<svg xmlns="http://www.w3.org/2000/svg" xmlns:xlink="http://www.w3.org/1999/xlink" xmlns:lucid="lucid" width="1684.06" height="713.33"><g transform="translate(-240 -86.66666666666657)" lucid:page-tab-id="0_0"><path d="M1308.4 308a8 8 0 0 1 8-8h538.23a8 8 0 0 1 8 8v214.67a8 8 0 0 1-8 8H1316.4a8 8 0 0 1-8-8z" fill="#fff" fill-opacity="0"/><path d="M1312.5 301.04l.27-.17 1.16-.48 1.22-.3h2m4.04 0h4m4.04 0h4.03m4.02 0h4.02m4.02 0h4.03m4.03 0h4.02m4.03 0h4.02m4.03 0h4.03m4.02 0h4.03m4.02 0l4.03-.02m4.02 0h4.03m4.03 0h4.03m4.03 0h4.03m4 0h4.04m4.02 0h4.03m4 0h4.04m4.03 0h4.02m4.02 0h4.03m4.02 0h4.03m4.02 0h4.03m4.02 0h4.03m4.03 0h4.02m4.03 0h4.03m4.03 0l4.03-.02m4.02 0h4.03m4.03 0h4.03m4.03 0h4m4.04 0h4.03m4.02 0h4.02m4.02 0h4.03m4.02 0h4.02m4.03 0h4.02m4.03 0h4.02m4.03 0h4.03m4.02 0h4.03m4.02 0h4.03m4.03 0h4.03m4.03 0l4.02-.02m4.03 0h4.04m4.02 0h4.03m4 0h4.04m4.03 0h4.02m4.02 0h4.02m4.03 0h4.03m4.02 0h4.03m4.02 0h4.03m4.03 0h4.02m4.03 0h4.02m4.03 0h4.03m4.02 0h4.03m4.03-.02h4.03m4.03 0h4m4.04 0h4.02m4.03 0h4.02m4.02 0h4.03m4.02 0h4.02m4.03 0h4.02m4.03 0h4.02m4.03 0h4.03m4.02 0h4.03m4.02 0h4.03m4.03 0h4.03m4.03 0h4.02m4.03 0h4.03m4.03 0l4.03-.02m4 0h4.04m4.03 0h4.02m4.02 0h2l1.26.1 1.22.3.3.1m4.2 3.6l.16.27.48 1.16.3 1.22v2m0 4v4m0 4v4m0 4v4m0 4v4m0 3.98v4m0 4l.02 4m0 4v4m0 4v4m0 4v4m0 4v4m0 4v3.98m.02 4v4m0 4v4m0 4v4m0 4v4m0 4v4m0 4l.02 4m0 4v4m0 4v4m0 4v4m0 4v3.98m0 4v4m.02 4v4m0 4v4m0 4v4m0 4v4m0 4v2l-.1 1.24-.28 1.22-.12.3m-3.6 4.2l-.26.15-1.16.48-1.22.3h-2m-4.04 0h-4.02m-4.03 0h-4.03m-4.03 0h-4.03m-4 0h-4.04m-4.03 0h-4.02m-4.02 0h-4.02m-4.03 0h-4.02m-4.02 0h-4.03m-4.02 0h-4.03m-4.03 0h-4.02m-4.03 0h-4.02m-4.03 0h-4.03m-4.02 0h-4.03m-4.03 0h-4.03m-4.03 0h-4m-4.04 0h-4.02m-4.03 0H1717m-4.02 0h-4.03m-4.02.02h-4.02m-4.03 0h-4.02m-4.03 0h-4.02m-4.03 0h-4.02m-4.03 0h-4.03m-4.02 0h-4.03m-4.02 0h-4.03m-4.03 0h-4.02m-4.03 0h-4.03m-4.03 0h-4.03m-4 0h-4.04m-4.02 0h-4.03m-4.02 0h-4.02m-4.03 0l-4.02.02m-4.02 0h-4.03m-4.02 0h-4.03m-4.02 0h-4.03m-4.03 0H1564m-4.03 0h-4.02m-4.03 0h-4.03m-4.03 0h-4.03m-4.02 0h-4.03m-4.04 0h-4.02m-4.03 0h-4m-4.04 0h-4.03m-4.02 0h-4.02m-4.02 0h-4.03m-4.03 0l-4.02.02m-4.03 0h-4.02m-4.03 0h-4.03m-4.02 0h-4.03m-4.02 0h-4.03m-4.03 0h-4.02m-4.03 0h-4.03m-4.03 0h-4.03m-4 0h-4.04m-4.02 0H1411m-4.02 0h-4.02m-4.03 0h-4.02m-4.02 0h-4.03m-4.02 0h-4.03m-4.02.02h-4.03m-4.03 0h-4.02m-4.03 0h-4.02m-4.03 0h-4.02m-4.03 0h-4.03m-4.02 0h-4.03m-4.04 0h-4.02m-4.03 0h-2l-1.25-.1-1.22-.28-.3-.13m-4.2-3.58l-.16-.27-.48-1.16-.3-1.22v-2m0-4v-4m0-4v-4m0-4v-4m-.02-4v-4m0-4v-4m0-3.98v-4m0-4v-4m0-4v-4m0-4l-.02-4m0-4v-4m0-4v-4m0-4v-4m0-3.98v-4m0-4v-4m-.02-4v-4m0-4v-4m0-4v-4m0-4v-4m0-3.98v-4m0-4l-.02-4m0-4v-4m0-4v-4m0-4v-4m0-4v-4m0-4v-4m-.02-3.98v-4m0-4v-2l.1-1.25.3-1.22.1-.3" stroke="#147eba" fill="none"/><path d="M1904.06 300v230.67h-54.73V300z" fill="#fff" fill-opacity="0"/><use xlink:href="#a" transform="matrix(6.123233995736766e-17,1,-1,6.123233995736766e-17,1899.0635809113744,305) translate(68.05 25.65)"/><path d="M1308.4 538.67a8 8 0 0 1 8-8h538.23a8 8 0 0 1 8 8v214.66a8 8 0 0 1-8 8H1316.4a8 8 0 0 1-8-8z" fill="#fff" fill-opacity="0"/><path d="M1312.5 531.7l.27-.16 1.16-.48 1.22-.3h2m4.04 0h4m4.04 0h4.03m4.02 0h4.02m4.02 0h4.03m4.03 0h4.02m4.03 0h4.02m4.03 0h4.03m4.02 0h4.03m4.02 0h4.03m4.02 0h4.03m4.03 0h4.03m4.03 0h4.03m4 0h4.04m4.02 0l4.03-.02m4 0h4.04m4.03 0h4.02m4.02 0h4.03m4.02 0h4.03m4.02 0h4.03m4.02 0h4.03m4.03 0h4.02m4.03 0h4.03m4.03 0h4.03m4.02 0h4.03m4.03 0h4.03m4.03 0h4m4.04 0h4.03m4.02-.02h4.02m4.02 0h4.03m4.02 0h4.02m4.03 0h4.02m4.03 0h4.02m4.03 0h4.03m4.02 0h4.03m4.02 0h4.03m4.03 0h4.03m4.03 0h4.02m4.03 0h4.04m4.02 0h4.03m4 0h4.04m4.03 0h4.02m4.02-.02h4.02m4.03 0h4.03m4.02 0h4.03m4.02 0h4.03m4.03 0h4.02m4.03 0h4.02m4.03 0h4.03m4.02 0h4.03m4.03 0h4.03m4.03 0h4m4.04 0h4.02m4.03 0h4.02m4.02 0l4.03-.02m4.02 0h4.02m4.03 0h4.02m4.03 0h4.02m4.03 0h4.03m4.02 0h4.03m4.02 0h4.03m4.03 0h4.03m4.03 0h4.02m4.03 0h4.03m4.03 0h4.03m4 0h4.04m4.03 0h4.02m4.02 0h2l1.26.1 1.22.28.3.12m4.2 3.6l.16.25.48 1.17.3 1.2v2m0 4v4m0 4v4m0 4v4m0 4v4m0 4v4m0 4l.02 4m0 4v4m0 4v4m0 4v4m0 4v3.98m0 4v4m.02 4v4m0 4v4m0 4v4m0 4v4m0 4v4m0 3.98l.02 4m0 4v4m0 4v4m0 4v4m0 4v4m0 4v4m.02 4v4m0 3.98v4m0 4v4m0 4v4m0 4v2l-.1 1.25-.28 1.2-.12.3m-3.6 4.2l-.26.16-1.16.48-1.22.3h-2m-4.04 0h-4.02m-4.03 0h-4.03m-4.03 0h-4.03m-4 0h-4.04m-4.03 0h-4.02m-4.02 0h-4.02m-4.03 0h-4.02m-4.02 0h-4.03m-4.02 0h-4.03m-4.03 0h-4.02m-4.03 0h-4.02m-4.03 0h-4.03m-4.02 0h-4.03m-4.03 0l-4.03.02m-4.03 0h-4m-4.04 0h-4.02m-4.03 0H1717m-4.02 0h-4.03m-4.02 0h-4.02m-4.03 0h-4.02m-4.03 0h-4.02m-4.03 0h-4.02m-4.03 0h-4.03m-4.02 0h-4.03m-4.02 0h-4.03m-4.03 0h-4.02m-4.03 0h-4.03m-4.03.02h-4.03m-4 0h-4.04m-4.02 0h-4.03m-4.02 0h-4.02m-4.03 0h-4.02m-4.02 0h-4.03m-4.02 0h-4.03m-4.02 0h-4.03m-4.03 0H1564m-4.03 0h-4.02m-4.03 0h-4.03m-4.03 0h-4.03m-4.02 0h-4.03m-4.04 0h-4.02m-4.03.02h-4m-4.04 0h-4.03m-4.02 0h-4.02m-4.02 0h-4.03m-4.03 0h-4.02m-4.03 0h-4.02m-4.03 0h-4.03m-4.02 0h-4.03m-4.02 0h-4.03m-4.03 0h-4.02m-4.03 0h-4.03m-4.03 0h-4.03m-4 0l-4.04.02m-4.02 0H1411m-4.02 0h-4.02m-4.03 0h-4.02m-4.02 0h-4.03m-4.02 0h-4.03m-4.02 0h-4.03m-4.03 0h-4.02m-4.03 0h-4.02m-4.03 0h-4.02m-4.03 0h-4.03m-4.02 0h-4.03m-4.04 0h-4.02m-4.03 0h-2l-1.25-.1-1.22-.28-.3-.12m-4.2-3.6l-.16-.25-.48-1.17-.3-1.2v-2m0-4v-4m0-4v-4m0-4v-4m-.02-4v-4m0-4v-4m0-4v-4m0-4v-4m0-4v-4m0-4l-.02-4m0-4v-3.98m0-4v-4m0-4v-4m0-4v-4m0-4v-4m-.02-4v-4m0-4v-4m0-3.98v-4m0-4v-4m0-4v-4m0-4l-.02-4m0-4v-4m0-4v-4m0-4v-4m0-3.98v-4m0-4v-4m-.02-4v-4m0-4v-2l.1-1.25.3-1.2.1-.3" stroke="#147eba" fill="none"/><path d="M1904.06 530.67v230.66h-54.73V530.67z" fill="#fff" fill-opacity="0"/><use xlink:href="#b" transform="matrix(6.123233995736766e-17,1,-1,6.123233995736766e-17,1899.0635809113742,535.6666666666667) translate(68.05 25.65)"/><path d="M301.68 312.48a8 8 0 0 1 8-8h531.85a8 8 0 0 1 8 8V518a8 8 0 0 1-8 8H309.68a8 8 0 0 1-8-8z" fill="#fff" fill-opacity="0"/><path d="M305.78 305.52l.27-.17 1.16-.48 1.23-.3h2m3.97 0h3.98m3.98 0h3.97m3.98 0h4m3.97 0h3.98m3.98 0h3.97m3.98 0h3.98m3.98 0h3.98m3.98 0h3.97m3.98 0h3.98m3.98 0h4m3.97 0h3.97m3.98 0h3.98m3.98 0h3.98m3.98 0h3.98m3.97 0h3.97m3.98 0h3.98m3.98 0h4m3.96-.02h3.98m3.98 0h3.98m3.98 0h3.98m3.97 0h3.98m4 0h3.97m3.98 0h3.98m3.97 0h3.98m3.98 0h3.98m3.98 0h3.98m3.97 0h3.98m3.98 0h3.98m4 0h3.97m3.97 0h3.98m3.98 0l3.98-.02m3.98 0h3.98m3.97 0h4m3.97 0h3.98m3.98 0h3.98m4 0h3.96m3.98 0h3.98m3.98 0h3.98m3.98 0h3.97m3.98 0h4m3.97 0h3.98m3.98 0h3.97m3.98 0h3.98m3.98 0h3.98m3.98-.02h3.97m3.98 0h3.98m3.98 0h4m3.97 0h3.97m3.98 0h3.98m3.98 0h3.98m3.98 0h3.97m4 0h3.97m3.98 0h3.98m3.98 0h3.98m3.98 0h3.98m3.98 0H756m3.98 0h3.97m3.98 0h3.98m4 0h3.97m3.98 0h3.98m3.97 0h3.98m3.98 0h3.98m3.98 0h3.98m3.97 0h3.98m3.98 0l3.98-.02m4 0h3.97m3.97 0h2l1.24.1 1.23.3.3.1m4.2 3.6l.16.27.48 1.16.3 1.23v2m0 3.96v3.97m0 3.98v3.97m0 3.98v3.98m0 3.97v3.98m0 3.98V353m.02 3.98v3.97m0 3.98v4m0 3.96v3.98m0 3.98v3.97m0 3.97v3.98m0 3.97l.02 3.98m0 3.97v3.98m0 3.98v3.97m0 3.98v3.98m0 3.97v3.98m0 4l.02 3.96m0 3.98v3.97m0 4v3.97m0 3.97v3.98m0 3.98v3.97m0 3.98v3.98m.02 3.97v3.98m0 3.97v3.98m0 3.98v3.98m0 3.98v3.97m0 3.98v2l-.1 1.25-.28 1.22-.12.3m-3.6 4.2l-.25.16-1.16.48-1.22.3h-2m-3.96 0h-3.98m-3.98 0h-3.98m-3.98 0h-3.98m-3.97 0h-3.98m-3.98 0h-4m-3.97 0h-3.98m-3.97 0h-3.98m-3.98 0h-3.98m-3.98 0h-3.98m-3.97.02h-3.97m-3.98 0h-3.98m-3.98 0h-4m-3.96 0h-3.98m-3.98 0h-3.98m-3.98 0h-3.98m-3.98 0h-3.97m-4 0h-3.97m-3.98 0h-3.98m-3.98 0h-3.98m-3.98 0h-3.98m-3.98 0h-3.98m-3.98 0h-3.97m-3.98 0l-3.98.02m-4 0h-3.97m-3.98 0h-3.97m-3.98 0h-3.98m-3.98 0h-3.98m-3.98 0H618m-3.97 0h-3.98m-3.98 0h-3.98m-4 0h-3.96m-3.98 0h-3.98m-3.98 0h-3.98m-3.98 0h-3.97m-3.98 0h-4m-3.97 0h-3.98m-3.98 0l-3.97.02m-3.98 0h-3.98m-3.98 0h-3.98m-3.98 0h-3.98m-3.97 0h-3.98m-3.98 0h-4m-3.97 0h-3.98m-3.97 0h-3.98m-3.98 0h-3.98m-3.98 0h-3.97m-4 0h-3.97m-3.98 0h-3.98m-3.98 0h-3.98m-3.98 0h-3.98m-3.98.02H435m-3.98 0h-3.97m-3.98 0h-3.98m-4 0h-3.97m-3.98 0h-3.98m-3.97 0h-3.98m-3.98 0h-3.98m-3.98 0h-3.98m-3.97 0h-3.98m-3.98 0h-3.98m-4 0h-3.97m-3.97 0h-3.98m-3.98 0h-3.98m-3.98 0l-3.98.02m-3.98 0h-3.97m-3.97 0h-3.98m-3.98 0h-2l-1.24-.1-1.22-.3-.28-.1m-4.2-3.6l-.17-.27-.48-1.16-.3-1.22v-2m0-3.96v-4m0-3.97v-3.97m0-3.98v-3.98m0-3.97v-3.98m0-3.97v-3.98m0-3.98v-3.97m0-3.98l-.02-3.98m0-3.98v-3.98m0-3.97v-3.98m0-4v-3.96m0-3.98v-3.98m0-3.97v-3.97m-.02-3.97v-3.98m0-3.98v-3.97m0-3.98v-3.98m0-3.97v-3.98m0-3.98v-3.97m-.02-3.98v-4m0-3.96v-3.98m0-3.97v-4m0-3.97v-3.97m0-3.98v-3.98m0-3.97v-3.98m0-3.98v-3.97m0-3.98v-3.97m-.02-3.98v-2l.1-1.24.3-1.22.1-.28" stroke="#147eba" fill="none"/><path d="M260 521.52V300h54.1v221.52z" fill="#fff" fill-opacity="0"/><use xlink:href="#c" transform="matrix(6.123233995736766e-17,-1,1,6.123233995736766e-17,265.00000000000006,516.5184135977338) translate(63.55 25.65)"/><path d="M301.68 543.15a8 8 0 0 1 8-8h531.85a8 8 0 0 1 8 8v205.52a8 8 0 0 1-8 8H309.68a8 8 0 0 1-8-8z" fill="#fff" fill-opacity="0"/><path d="M305.78 536.18l.27-.16 1.16-.48 1.23-.3h2m3.97 0h3.98m3.98 0h3.97m3.98 0h4m3.97 0h3.98m3.98 0h3.97m3.98 0h3.98m3.98 0h3.98m3.98 0h3.97m3.98 0h3.98m3.98 0h4m3.97 0h3.97m3.98 0h3.98m3.98 0h3.98m3.98 0h3.98m3.97 0l3.97-.02m3.98 0h3.98m3.98 0h4m3.96 0h3.98m3.98 0h3.98m3.98 0h3.98m3.97 0h3.98m4 0h3.97m3.98 0h3.98m3.97 0h3.98m3.98 0h3.98m3.98 0h3.98m3.97 0h3.98m3.98 0h3.98m4 0l3.97-.02m3.97 0h3.98m3.98 0h3.98m3.98 0h3.98m3.97 0h4m3.97 0h3.98m3.98 0h3.98m4 0h3.96m3.98 0h3.98m3.98 0h3.98m3.98 0h3.97m3.98 0h4m3.97 0h3.98m3.98-.02h3.97m3.98 0h3.98m3.98 0h3.98m3.98 0h3.97m3.98 0h3.98m3.98 0h4m3.97 0h3.97m3.98 0h3.98m3.98 0h3.98m3.98 0h3.97m4 0h3.97m3.98 0h3.98m3.98 0h3.98m3.98 0h3.98m3.98 0l3.98-.02m3.98 0h3.97m3.98 0h3.98m4 0h3.97m3.98 0h3.98m3.97 0h3.98m3.98 0h3.98m3.98 0h3.98m3.97 0h3.98m3.98 0h3.98m4 0h3.97m3.97 0h2l1.24.1 1.23.28.3.12m4.2 3.6l.16.26.48 1.16.3 1.22v2m0 3.96v3.98m0 3.97v4m0 3.97v3.97m0 3.98v3.98m0 3.97v3.98m.02 3.98v3.97m0 3.98v3.97m0 3.98v3.98m0 3.98v3.98m0 3.97v3.98m0 4l.02 3.97m0 3.97v3.98m0 3.97v3.97m0 3.98v3.97m0 3.98v3.97m0 3.98l.02 3.98m0 3.97v3.98m0 3.98v3.97m0 3.98v4m0 3.96v3.98m0 3.97v4m.02 3.97v3.97m0 3.98v3.98m0 3.97v3.98m0 3.98v3.97m0 3.98v2l-.1 1.24-.28 1.22-.12.3m-3.6 4.2l-.25.15-1.16.48-1.22.3h-2m-3.96 0h-3.98m-3.98 0h-3.98m-3.98 0h-3.98m-3.97 0h-3.98m-3.98 0h-4m-3.97 0h-3.98m-3.97 0h-3.98m-3.98 0h-3.98m-3.98 0h-3.98m-3.97 0h-3.97m-3.98 0h-3.98m-3.98 0h-4m-3.96 0h-3.98m-3.98 0h-3.98m-3.98 0h-3.98m-3.98 0h-3.97m-4 0h-3.97m-3.98 0h-3.98m-3.98.02h-3.98m-3.98 0h-3.98m-3.98 0h-3.98m-3.98 0h-3.97m-3.98 0h-3.98m-4 0h-3.97m-3.98 0h-3.97m-3.98 0h-3.98m-3.98 0h-3.98m-3.98 0H618m-3.97 0h-3.98m-3.98 0h-3.98m-4 0h-3.96m-3.98 0l-3.98.02m-3.98 0h-3.98m-3.98 0h-3.97m-3.98 0h-4m-3.97 0h-3.98m-3.98 0h-3.97m-3.98 0h-3.98m-3.98 0h-3.98m-3.98 0h-3.98m-3.97 0h-3.98m-3.98 0h-4m-3.97 0h-3.98m-3.97 0h-3.98m-3.98 0h-3.98m-3.98 0l-3.97.02m-4 0h-3.97m-3.98 0h-3.98m-3.98 0h-3.98m-3.98 0h-3.98m-3.98 0H435m-3.98 0h-3.97m-3.98 0h-3.98m-4 0h-3.97m-3.98 0h-3.98m-3.97 0h-3.98m-3.98 0h-3.98m-3.98 0h-3.98m-3.97 0h-3.98m-3.98.02h-3.98m-4 0h-3.97m-3.97 0h-3.98m-3.98 0h-3.98m-3.98 0h-3.98m-3.98 0h-3.97m-3.97 0h-3.98m-3.98 0h-2l-1.24-.1-1.22-.28-.28-.13m-4.2-3.58l-.17-.27-.48-1.16-.3-1.22v-2m0-3.97v-3.97m0-3.98v-3.98m0-3.97v-3.98m0-3.97v-3.98m0-3.98v-3.97m0-3.98v-4m0-3.96l-.02-3.98m0-3.98v-3.97m0-3.97v-3.97m0-3.98v-3.98m0-3.97v-3.98m0-3.98v-3.97m-.02-3.98v-3.98m0-3.97v-3.98m0-3.98v-3.98m0-3.98v-3.97m0-4v-3.97m-.02-3.97v-3.98m0-3.98v-3.97m0-3.98v-3.97m0-3.98v-3.98m0-3.97v-3.98m0-3.98V565m0-3.98v-3.97m0-3.98v-4m-.02-3.96v-2l.1-1.24.3-1.22.1-.3" stroke="#147eba" fill="none"/><path d="M260 752.18v-221.5h54.1v221.5z" fill="#fff" fill-opacity="0"/><use xlink:href="#b" transform="matrix(6.123233995736766e-17,-1,1,6.123233995736766e-17,265,747.1850802644005) translate(63.55 25.65)"/><path d="M340 114.67a8 8 0 0 1 8-8h1464a8 8 0 0 1 8 8V772a8 8 0 0 1-8 8H348a8 8 0 0 1-8-8z" fill="#fff" fill-opacity="0"/><path d="M340.97 110.87l.56-.9.8-.96.82-.68m1.97-1.1l.4-.16 1.23-.3h1.5m2 0h3m2 0h3m2 0h3m2 0h3m2 0h3m2 0h3m2 0h3m2 0h3m2 0h3m2 0h3m2 0h3m2 0h3m2 0h3m2 0h3m2 0h3m2 0h3m2 0h3m2 0h3m2 0h3m2 0h3.02m2 0h3m2 0h3m2 0h3m2 0h3m2 0h3m2 0h3m2 0h3m2 0h3m2 0h3m2 0h3m2 0h3m2 0h3m2 0h3m2 0h3m2 0h3m2 0h3m2 0h3m2 0h3m2 0h3m2 0h3m2 0h3m2 0h3m2 0h3.02m2 0h3m2 0h3m2 0h3m2 0h3m2 0h3m2 0h3m2 0h3m2 0h3m2 0h3m2 0h3m2 0h3m2 0h3m2 0h3m2 0h3m2 0h3m2-.02h3m2 0h3m2 0h3m2 0h3m2 0h3m2 0h3m2 0h3m2 0h3m2 0h3m2 0h3m2 0h3m2 0h3m2 0h3m2 0h3m2 0h3m2 0h3m2 0h3m2 0h3m2 0h3.02m2 0h3m2 0h3m2 0h3m2 0h3m2 0h3m2 0h3m2 0h3m2 0h3m2 0h3m2 0h3m2 0h3m2 0h3m2 0h3m2 0h3m2 0h3m2 0h3m2 0h3m2 0h3m2 0h3m2 0h3m2 0h3m2 0h3m2 0h3m2 0h3m2.02 0h3m2 0h3m2 0h3m2 0h3m2 0h3m2 0h3m2 0h3m2 0h3m2 0h3m2 0h3m2 0h3m2 0h3m2 0h3m2 0h3m2 0h3m2 0h3m2 0l3-.02m2 0h3m2 0h3m2 0h3m2 0h3m2 0h3m2 0h3m2.02 0h3m2 0h3m2 0h3m2 0h3m2 0h3m2 0h3m2 0h3m2 0h3m2 0h3m2 0h3m2 0h3m2 0h3m2 0h3m2 0h3m2 0h3m2 0h3m2 0h3m2 0h3m2 0h3m2 0h3m2 0h3m2 0h3m2 0h3.02m2 0h3m2 0h3m2 0h3m2 0h3m2 0h3m2 0h3m2 0h3m2 0h3m2 0h3m2 0h3m2 0h3m2 0h3m2 0h3m2 0h3m2 0h3m2 0h3m2 0h3m2 0h3m2 0h3m2 0h3m2 0h3m2 0h3m2 0h3m2 0h3.02m2 0h3m2 0h3m2 0h3m2 0h3m2 0h3m2 0h3m2-.02h3m2 0h3m2 0h3m2 0h3m2 0h3m2 0h3m2 0h3m2 0h3m2 0h3m2 0h3m2 0h3m2 0h3m2 0h3m2 0h3m2 0h3m2 0h3m2 0h3m2.02 0h3m2 0h3m2 0h3m2 0h3m2 0h3m2 0h3m2 0h3m2 0h3m2 0h3m2 0h3m2 0h3m2 0h3m2 0h3m2 0h3m2 0h3m2 0h3m2 0h3m2 0h3m2 0h3m2 0h3m2 0h3m2 0h3m2 0h3m2 0h3.02m2 0h3m2 0h3m2 0h3m2 0h3m2 0h3m2 0h3m2 0h3m2 0h3m2 0h3m2 0h3m2 0h3m2 0h3m2 0h3m2 0h3m2 0h3m2 0h3m2 0h3m2 0h3m2 0l3-.02m2 0h3m2 0h3m2 0h3m2 0h3.02m2 0h3m2 0h3m2 0h3m2 0h3m2 0h3m2 0h3m2 0h3m2 0h3m2 0h3m2 0h3m2 0h3m2 0h3m2 0h3m2 0h3m2 0h3m2 0h3m2 0h3m2 0h3m2 0h3m2 0h3m2 0h3m2 0h3m2 0h3m2.02 0h3m2 0h3m2 0h3m2 0h3m2 0h3m2 0h3m2 0h3m2 0h3m2 0h3m2 0h3m2 0h3m2 0h3m2 0h3m2 0h3m2 0h3m2 0h3m2 0h3m2 0h3m2 0h3m2 0h3m2 0h3m2 0h3m2 0h3m2 0h3.02m2 0h3m2 0h3m2 0h3m2 0h3m2 0h1.5l1.25.08.43.1m2.1.78l.92.55.96.8.7.82m1.08 1.97l.17.4.3 1.22v1.5m0 2v2.98m0 2v3m0 2v2.98m0 2v3m0 2v2.98m0 2v3m0 1.98v3m0 2v3m0 1.98v3m0 2v3m0 1.98v3m0 2v2.98m0 2v3m0 2v2.98m0 2v3m0 2v2.98m0 2v3m0 1.98v3m0 2l.02 3m0 1.98v3m0 2v3m0 1.98v3m0 2v2.98m0 2v3m0 2v2.98m0 2v3m0 2v2.98m0 2v3m0 2v2.98m0 2v3m0 2v2.98m0 2v3m0 2v2.98m0 2v3m0 1.98v3m0 2v3m0 1.98v3m0 2v3m0 1.98v3m0 2v2.98m0 2v3m0 2v2.98m0 2v3m0 2v2.98m0 2v3m.02 2v2.98m0 2v3m0 1.98v3m0 2v3m0 1.98v3m0 2v3m0 1.98v3m0 2v2.98m0 2v3m0 2v2.98m0 2v3m0 2v2.98m0 2v3m0 2v2.98m0 2v3m0 1.98v3m0 2v3m0 1.98v3m0 2v3m0 1.98v3m0 2v2.98m0 2v3m0 2v2.98m0 2v3m0 2v2.98m0 2v3m0 2v2.98m.02 2v3m0 2v2.98m0 2v3m0 1.98v3m0 2v3m0 1.98v3m0 2v3m0 1.98v3m0 2v2.98m0 2v3m0 2V529m0 2v3m0 2V539m0 2v3m0 2v2.98m0 2v3m0 1.98v3m0 2v3m0 1.98v3m0 2v3m0 1.98v3m0 2v2.98m0 2v3m0 2v2.98m0 2v3m0 2v2.98m0 2l.02 3m0 2v2.98m0 2v3m0 2v2.98m0 2v3m0 1.98v3m0 2v3m0 1.98v3m0 2v3m0 1.98v3m0 2v2.98m0 2v3m0 2v2.98m0 2v3m0 2v2.98m0 2v3m0 1.98v3m0 2v3m0 1.98v3m0 2v3m0 1.98v3m0 2v3m0 1.98v3m0 2v2.98m0 2v3m0 2v2.98m0 2v3m0 2l.02 2.98m0 2v3m0 2v2.98m0 2v3m0 2v2.98m0 2v3m0 1.98v1.5l-.1 1.25-.1.43m-.77 2.1l-.56.92-.8.96-.83.7m-1.96 1.08l-.4.17-1.23.3h-1.5m-2 0h-3m-2 0h-3m-2 0h-3m-2 0h-3m-2 0h-3m-2 0h-3m-2 0h-3m-2 0h-3m-2 0h-3m-2 0h-3m-2 0h-3m-2 0h-3m-2 0h-3m-2 0h-3m-2 0h-3m-2 0h-3m-2 0h-3m-2 0h-3m-2.02 0h-3m-2 0h-3m-2 0h-3m-2 0h-3m-2 0h-3m-2 0h-3m-2 0h-3m-2 0h-3m-2 0h-3m-2 0h-3m-2 0h-3m-2 0h-3m-2 0h-3m-2 0h-3m-2 0h-3m-2 0h-3m-2 0h-3m-2 0h-3m-2 0h-3m-2 0h-3m-2 0h-3m-2 0h-3m-2 0h-3m-2 0l-3.02.02m-2 0h-3m-2 0h-3m-2 0h-3m-2 0h-3m-2 0h-3m-2 0h-3m-2 0h-3m-2 0h-3m-2 0h-3m-2 0h-3m-2 0h-3m-2 0h-3m-2 0h-3m-2 0h-3m-2 0h-3m-2 0h-3m-2 0h-3m-2 0h-3m-2 0h-3m-2 0h-3m-2 0h-3m-2 0h-3m-2 0h-3m-2 0h-3m-2 0h-3m-2 0h-3m-2 0h-3m-2 0h-3m-2 0h-3m-2 0h-3m-2 0h-3m-2 0h-3m-2 0h-3m-2 0h-3m-2 0h-3.02m-2 0h-3m-2 0h-3m-2 0h-3m-2 0h-3m-2 0h-3m-2 0h-3m-2 0h-3m-2 0h-3m-2 0h-3m-2 0h-3m-2 0h-3m-2 0h-3m-2 0h-3m-2 0h-3m-2 0h-3m-2 0h-3m-2 0h-3m-2 0h-3m-2 0h-3m-2 0h-3m-2 0h-3m-2 0h-3m-2 0h-3.02m-2 0l-3 .02m-2 0h-3m-2 0h-3m-2 0h-3m-2 0h-3m-2 0h-3m-2 0h-3m-2 0h-3m-2 0h-3m-2 0h-3m-2 0h-3m-2 0h-3m-2 0h-3m-2 0h-3m-2 0h-3m-2 0h-3m-2 0h-3m-2 0h-3m-2 0h-3m-2 0h-3m-2 0h-3m-2 0h-3m-2 0h-3m-2.02 0h-3m-2 0h-3m-2 0h-3m-2 0h-3m-2 0h-3m-2 0h-3m-2 0h-3m-2 0h-3m-2 0h-3m-2 0h-3m-2 0h-3m-2 0h-3m-2 0h-3m-2 0h-3m-2 0h-3m-2 0h-3m-2 0h-3m-2 0h-3m-2 0h-3m-2 0h-3m-2 0h-3m-2 0h-3m-2 0h-3m-2 0h-3.02m-2 0h-3m-2 0h-3m-2 0h-3m-2 0h-3m-2 0h-3m-2 0h-3m-2 0h-3m-2 0h-3m-2 0h-3m-2 0h-3m-2 0h-3m-2 0h-3m-2 0h-3m-2 0l-3 .02m-2 0h-3m-2 0h-3m-2 0h-3m-2 0h-3m-2 0h-3m-2 0h-3m-2 0h-3m-2 0h-3m-2 0h-3m-2 0h-3.02m-2 0h-3m-2 0h-3m-2 0h-3m-2 0h-3m-2 0h-3m-2 0h-3m-2 0h-3m-2 0h-3m-2 0h-3m-2 0h-3m-2 0h-3m-2 0h-3m-2 0h-3m-2 0h-3m-2 0h-3m-2 0h-3m-2 0h-3m-2 0h-3m-2 0h-3m-2 0h-3m-2 0h-3m-2 0h-3m-2 0h-3m-2.02 0h-3m-2 0h-3m-2 0h-3m-2 0h-3m-2 0h-3m-2 0h-3m-2 0h-3m-2 0h-3m-2 0h-3m-2 0h-3m-2 0h-3m-2 0h-3m-2 0h-3m-2 0h-3m-2 0h-3m-2 0h-3m-2 0h-3m-2 0h-3m-2 0h-3m-2 0h-3m-2 0h-3m-2 0h-3m-2 0h-3m-2 0h-3.02m-2 0h-3m-2 0l-3 .02m-2 0h-3m-2 0h-3m-2 0h-3m-2 0h-3m-2 0h-3m-2 0h-3m-2 0h-3m-2 0h-3m-2 0h-3m-2 0h-3m-2 0h-3m-2 0h-3m-2 0h-3m-2 0h-3m-2 0h-3m-2 0h-3m-2 0h-3m-2 0h-3m-2 0h-3m-2 0h-3m-2 0h-3.02m-2 0h-3m-2 0h-3m-2 0h-3m-2 0h-3m-2 0h-3m-2 0h-3m-2 0h-3m-2 0h-3m-2 0h-3m-2 0h-3m-2 0h-3m-2 0h-3m-2 0h-3m-2 0h-3m-2 0h-3m-2 0h-3m-2 0h-3m-2 0h-3m-2 0h-3m-2 0h-3m-2 0h-3m-2 0h-3.02m-2 0h-3m-2 0h-3m-2 0h-3m-2 0h-3m-2 0h-3m-2 0h-3m-2 0h-3m-2 0h-3m-2 0h-3m-2 0h-3m-2 0h-3m-2 0h-3m-2 0h-3m-2 0h-3m-2 0h-3m-2 0h-3m-2 .02h-3m-2 0h-3m-2 0h-3m-2 0h-3m-2 0h-3m-2 0h-3m-2 0h-3m-2 0h-3m-2 0h-3.02m-2 0h-3m-2 0h-3m-2 0h-3m-2 0h-3m-2 0H348l-1.25-.1-.43-.1m-2.1-.77l-.92-.56-.96-.8-.7-.82m-1.08-1.97l-.17-.4-.3-1.23v-1.5m0-2v-3m0-1.98v-3m0-2v-2.98m0-2v-3m0-2v-3m0-2v-2.98m0-2v-3m0-2v-2.98m0-2v-3m0-2v-2.98m0-2v-3m0-1.98v-3m0-2v-3m0-1.98v-3m0-2v-2.98m0-2v-3m0-2v-2.98m-.02-2v-3m0-2v-2.98m0-2v-3m0-2V667m0-2v-3m0-2V657m0-2v-3m0-1.98v-3m0-2v-3m0-1.98v-3m0-2v-3m0-1.98v-3m0-2v-2.98m0-2v-3m0-2v-2.98m0-2v-3m0-2v-2.98m0-2v-3m0-2v-2.98m0-2v-3m0-1.98v-3m0-2v-3m0-1.98v-3m0-2v-3m0-1.98v-3m0-2v-2.98m0-2v-3m0-2v-2.98m-.02-2v-3m0-2v-2.98m0-2v-3m0-2v-2.98m0-2v-3m0-2v-2.98m0-2v-3m0-1.98v-3m0-2v-3m0-1.98v-3m0-2v-2.98m0-2v-3m0-2v-2.98m0-2v-3m0-2v-2.98m0-2v-3m0-2v-2.98m0-2v-3m0-2v-2.98m0-2v-3m0-1.98v-3m0-2v-3m0-1.98v-3m0-2v-3m0-1.98v-3m0-2v-2.98m0-2v-3m-.02-2v-2.98m0-2v-3m0-2v-2.98m0-2v-3m0-2v-2.98m0-2v-3m0-1.98v-3m0-2v-3m0-1.98v-3m0-2v-3m0-1.98v-3m0-2v-3m0-1.98v-3m0-2v-2.98m0-2v-3m0-2v-2.98m0-2v-3m0-2v-2.98m0-2v-3m0-2v-2.98m0-2v-3m0-1.98v-3m0-2v-3m0-1.98v-3m0-2v-2.98m0-2l-.02-3m0-2v-2.98m0-2v-3m0-2v-2.98m0-2v-3m0-2v-2.98m0-2v-3m0-2v-2.98m0-2v-3m0-1.98v-3m0-2v-3m0-1.98v-3m0-2v-3m0-1.98v-3m0-2v-2.98m0-2v-3m0-2V203m0-2v-3m0-2V193m0-2v-3m0-2v-2.98m0-2v-3m0-2v-2.98m0-2v-3m0-1.98v-3m0-2v-3m0-1.98v-3m0-2v-3m0-1.98l-.02-3m0-2v-2.98m0-2v-3m0-2v-2.98m0-2v-3m0-2v-2.98m0-2v-1.5l.1-1.24.1-.43" stroke="#147eba" fill="none"/><path d="M340 106.67h56v56h-56v-56z" stroke="#fff" stroke-opacity="0" fill="#147eba"/><path d="M383.84 136.03l-5.96-7.37 5.96-7.4h-26.17v-2.08c.98-.3 1.62-1.15 1.62-2.2v.02c-.1-1.16-1.03-2.04-2.17-2.16-1.3-.08-2.44.88-2.53 2.16 0 1.03.63 1.87 1.58 2.2v33.87h-4.02v1.6h9.44v-1.6h-3.93v-17.04zm-26.96-19.75c.4-.04.76.32.76.72 0 .43-.32.75-.73.75-.4.04-.75-.32-.75-.72V117c0-.4.32-.72.73-.72zm23.6 6.6l-4.66 5.78 4.66 5.74h-22.8v-11.5z" stroke="#fff" stroke-opacity="0" fill="#fff"/><use xlink:href="#d" transform="matrix(1,0,0,1,411,126.66666666666657) translate(0 14.4)"/><path d="M360 192a8 8 0 0 1 8-8h484a8 8 0 0 1 8 8v560a8 8 0 0 1-8 8H368a8 8 0 0 1-8-8z" stroke="#248814" fill="#fff" fill-opacity="0"/><path d="M360 184h56v56h-56v-56z" stroke="#fff" stroke-opacity="0" fill="#248814"/><path d="M391.76 212.3h-1.18v-1.1c-.12-1.73-1.47-3.07-3.2-3.2-1.9-.13-3.54 1.3-3.67 3.2v1.07h-1.17c-.44 0-.8.36-.8.8v6.13c0 .44.35.8.8.8h9.23c.44 0 .8-.36.8-.8v-6.1c0-.44-.36-.8-.8-.8zm-6.4-1.06c.1-1.03 1-1.77 2-1.67.9.08 1.58.77 1.67 1.67v1.06h-3.72zm5.65 7.08h-7.67v-4.42h7.63z" stroke="#fff" stroke-opacity="0" fill="#fff"/><path d="M402.27 209.75c-.08-2.45-1.58-4.48-3.87-5.3-1.58-.47-3.16-.14-4.4.9-.68-1.45-1.47-2.6-2.6-3.76-3.24-3.36-7.94-4.3-12.18-2.4-4.04 1.9-6.4 5.63-6.54 10.05v.7c-3.4.98-5.66 4.08-5.5 7.65v.63c.38 4.28 3.92 7.52 8.2 7.47h26s7.42-.63 7.42-8.1c.04-3.9-2.66-7.2-6.53-7.85zm-.96 14.38h-25.9c-3.47.06-6.3-2.52-6.6-5.96v-.52c-.15-3.05 1.93-5.7 4.92-6.3.38-.12.63-.48.6-.9-.06-.4-.06-.73 0-1.14.07-3.78 2.1-6.94 5.52-8.6 1.25-.56 2.4-.8 3.83-.84 2.62.08 4.87 1.04 6.7 2.94 1.25 1.3 2.04 2.6 2.62 4.3.03.15.1.28.24.37.37.27.87.2 1.12-.17.83-1.18 2.25-1.67 3.62-1.3 1.8.72 2.87 2.4 2.83 4.32-.07.4.22.83.64.9 3.57.36 6.2 3.55 5.82 7.12-.3 3.13-2.7 5.52-5.82 5.85z" stroke="#fff" stroke-opacity="0" fill="#fff"/><use xlink:href="#e" transform="matrix(1,0,0,1,431,204) translate(0 14.4)"/><use xlink:href="#f" transform="matrix(1,0,0,1,431,204) translate(64.9 14.4)"/><path d="M1300 192a8 8 0 0 1 8-8h484a8 8 0 0 1 8 8v560a8 8 0 0 1-8 8h-484a8 8 0 0 1-8-8z" stroke="#248814" fill="#fff" fill-opacity="0"/><path d="M1300 184h56v56h-56v-56z" stroke="#fff" stroke-opacity="0" fill="#248814"/><path d="M1331.76 212.3h-1.18v-1.1c-.12-1.73-1.47-3.07-3.2-3.2-1.9-.13-3.54 1.3-3.67 3.2v1.07h-1.17c-.44 0-.8.36-.8.8v6.13c0 .44.36.8.8.8h9.23c.44 0 .8-.36.8-.8v-6.1c0-.44-.36-.8-.8-.8zm-6.4-1.06c.1-1.03 1-1.77 2-1.67.9.08 1.58.77 1.67 1.67v1.06h-3.72zm5.65 7.08h-7.67v-4.42h7.63z" stroke="#fff" stroke-opacity="0" fill="#fff"/><path d="M1342.27 209.75c-.1-2.45-1.58-4.48-3.87-5.3-1.58-.47-3.16-.14-4.4.9-.68-1.45-1.47-2.6-2.6-3.76-3.24-3.36-7.94-4.3-12.18-2.4-4.04 1.9-6.4 5.63-6.54 10.05v.7c-3.4.98-5.66 4.08-5.5 7.65v.63c.38 4.28 3.92 7.52 8.2 7.47h26s7.42-.63 7.42-8.1c.04-3.9-2.66-7.2-6.53-7.85zm-.96 14.38h-25.9c-3.47.06-6.3-2.52-6.6-5.96v-.52c-.15-3.05 1.93-5.7 4.92-6.3.38-.12.63-.48.6-.9-.06-.4-.06-.73 0-1.14.07-3.78 2.1-6.94 5.52-8.6 1.25-.56 2.4-.8 3.83-.84 2.62.08 4.87 1.04 6.7 2.94 1.25 1.3 2.04 2.6 2.62 4.3.03.15.1.28.24.37.37.27.87.2 1.12-.17.83-1.18 2.25-1.67 3.62-1.3 1.8.72 2.87 2.4 2.83 4.32-.07.4.22.83.64.9 3.58.36 6.2 3.55 5.82 7.12-.3 3.13-2.7 5.52-5.82 5.85z" stroke="#fff" stroke-opacity="0" fill="#fff"/><use xlink:href="#g" transform="matrix(1,0,0,1,1371,204) translate(0 14.4)"/><use xlink:href="#h" transform="matrix(1,0,0,1,1371,204) translate(64.9 14.4)"/><path d="M880 248a8 8 0 0 1 8-8h384a8 8 0 0 1 8 8v504a8 8 0 0 1-8 8H888a8 8 0 0 1-8-8z" fill="#5a6c86" fill-opacity=".13"/><use xlink:href="#i" transform="matrix(1,0,0,1,880,259.9999999999999) translate(141.075 14.4)"/><use xlink:href="#j" transform="matrix(1,0,0,1,880,259.9999999999999) translate(208.975 14.4)"/><path d="M380 545.33a8 8 0 0 1 8-8h204a8 8 0 0 1 8 8V732a8 8 0 0 1-8 8H388a8 8 0 0 1-8-8z" fill="#147eba" fill-opacity=".13"/><path d="M380 537.33h56v56h-56v-56z" stroke="#fff" stroke-opacity="0" fill="#147eba"/><path d="M423.38 559.5c-.15-.16-.34-.24-.56-.24h-5.15v-5.58c-.03-2.53-.97-4.7-2.84-6.4-1.9-1.83-4.15-2.75-6.77-2.75-2.65 0-4.9.84-6.8 2.62-1.9 1.7-2.87 3.87-2.9 6.4v5.67h-5.15c-.24 0-.43.08-.58.25-.16.16-.22.33-.22.58v25.3c0 .4.34.78.8.78h29.6c.46 0 .8-.37.8-.8v-25.28c0-.2-.06-.37-.22-.54zm-23.46-5.9c.03-2.12.8-3.87 2.37-5.28 1.6-1.5 3.52-2.2 5.73-2.2 2.22 0 4.12.74 5.7 2.24 1.54 1.4 2.32 3.2 2.32 5.32v5.58H399.9zm22.1 30.95h-28.03v-23.7h28z" stroke="#fff" stroke-opacity="0" fill="#fff"/><path d="M407.2 574.64v6.25h1.6v-6.24c2.13-.4 3.62-2.2 3.63-4.36 0-2.43-1.97-4.4-4.4-4.42-2.2-.03-4.06 1.5-4.44 3.67-.42 2.4 1.2 4.7 3.6 5.1zm.82-7.16c.78 0 1.44.27 2 .83.54.56.82 1.22.8 2 .03 1.55-1.2 2.8-2.74 2.83h-.06c-1.56.12-2.92-1.05-3.04-2.62-.12-1.55 1.05-2.9 2.6-3.02h.44z" stroke="#fff" stroke-opacity="0" fill="#fff"/><use xlink:href="#k" transform="matrix(1,0,0,1,451,557.3333333333331) translate(0 10.844444444444445)"/><use xlink:href="#l" transform="matrix(1,0,0,1,451,557.3333333333331) translate(48.91296296296295 10.844444444444445)"/><path d="M620 545.33a8 8 0 0 1 8-8h204a8 8 0 0 1 8 8V732a8 8 0 0 1-8 8H628a8 8 0 0 1-8-8z" fill="#147eba" fill-opacity=".13"/><path d="M620 537.33h56v56h-56v-56z" stroke="#fff" stroke-opacity="0" fill="#147eba"/><path d="M663.38 559.5c-.15-.16-.34-.24-.56-.24h-5.15v-5.58c-.03-2.53-.96-4.7-2.84-6.4-1.9-1.83-4.15-2.75-6.77-2.75-2.65 0-4.9.84-6.8 2.62-1.9 1.7-2.87 3.87-2.9 6.4v5.67h-5.15c-.24 0-.43.08-.58.25-.16.16-.22.33-.22.58v25.3c0 .4.34.78.8.78h29.6c.46 0 .8-.37.8-.8v-25.28c0-.2-.06-.37-.22-.54zm-23.46-5.9c.03-2.12.8-3.87 2.37-5.28 1.6-1.5 3.52-2.2 5.73-2.2 2.22 0 4.12.74 5.7 2.24 1.54 1.4 2.32 3.2 2.32 5.32v5.58H639.9zm22.1 30.95h-28.03v-23.7h28z" stroke="#fff" stroke-opacity="0" fill="#fff"/><path d="M647.2 574.64v6.25h1.6v-6.24c2.13-.4 3.62-2.2 3.63-4.36 0-2.43-1.97-4.4-4.4-4.42-2.2-.03-4.06 1.5-4.44 3.67-.42 2.4 1.2 4.7 3.6 5.1zm.82-7.16c.78 0 1.44.27 2 .83.54.56.82 1.22.8 2 .03 1.55-1.2 2.8-2.74 2.83h-.06c-1.56.12-2.92-1.05-3.04-2.62-.12-1.55 1.05-2.9 2.6-3.02h.44z" stroke="#fff" stroke-opacity="0" fill="#fff"/><use xlink:href="#m" transform="matrix(1,0,0,1,691,557.3333333333331) translate(0 10.844444444444445)"/><use xlink:href="#l" transform="matrix(1,0,0,1,691,557.3333333333331) translate(78.09506172839504 10.844444444444445)"/><path d="M380 328a8 8 0 0 1 8-8h204a8 8 0 0 1 8 8v186.67a8 8 0 0 1-8 8H388a8 8 0 0 1-8-8z" fill="#147eba" fill-opacity=".13"/><path d="M380 320h56v56h-56v-56z" stroke="#fff" stroke-opacity="0" fill="#147eba"/><path d="M423.38 342.18c-.15-.17-.34-.25-.56-.25h-5.15v-5.58c-.03-2.54-.97-4.7-2.84-6.4-1.9-1.83-4.15-2.75-6.77-2.75-2.65 0-4.9.83-6.8 2.62-1.9 1.7-2.87 3.87-2.9 6.4v5.66h-5.15c-.24 0-.43.1-.58.25-.16.17-.22.34-.22.6V368c0 .43.34.8.8.8h29.6c.46 0 .8-.37.8-.8v-25.28c0-.2-.06-.38-.22-.54zm-23.46-5.9c.03-2.13.8-3.88 2.37-5.3 1.6-1.5 3.52-2.2 5.73-2.2 2.22 0 4.12.75 5.7 2.25 1.54 1.4 2.32 3.2 2.32 5.32v5.58H399.9zm22.1 30.94h-28.03v-23.7h28z" stroke="#fff" stroke-opacity="0" fill="#fff"/><path d="M407.2 357.3v6.25h1.6v-6.23c2.13-.4 3.62-2.2 3.63-4.35 0-2.43-1.97-4.4-4.4-4.43-2.2-.03-4.06 1.5-4.44 3.68-.42 2.4 1.2 4.68 3.6 5.1zm.82-7.15c.78 0 1.44.27 2 .83.54.55.82 1.2.8 2 .03 1.54-1.2 2.8-2.74 2.8h-.06c-1.56.13-2.92-1.04-3.04-2.6-.12-1.56 1.05-2.93 2.6-3.03.16-.02.3-.02.44 0z" stroke="#fff" stroke-opacity="0" fill="#fff"/><use xlink:href="#k" transform="matrix(1,0,0,1,451,339.9999999999998) translate(0 10.844444444444445)"/><use xlink:href="#l" transform="matrix(1,0,0,1,451,339.9999999999998) translate(48.91296296296295 10.844444444444445)"/><path d="M620 328a8 8 0 0 1 8-8h204a8 8 0 0 1 8 8v186.67a8 8 0 0 1-8 8H628a8 8 0 0 1-8-8z" fill="#147eba" fill-opacity=".13"/><path d="M620 320h56v56h-56v-56z" stroke="#fff" stroke-opacity="0" fill="#147eba"/><path d="M663.38 342.18c-.15-.17-.34-.25-.56-.25h-5.15v-5.58c-.03-2.54-.96-4.7-2.84-6.4-1.9-1.83-4.15-2.75-6.77-2.75-2.65 0-4.9.83-6.8 2.62-1.9 1.7-2.87 3.87-2.9 6.4v5.66h-5.15c-.24 0-.43.1-.58.25-.16.17-.22.34-.22.6V368c0 .43.34.8.8.8h29.6c.46 0 .8-.37.8-.8v-25.28c0-.2-.06-.38-.22-.54zm-23.46-5.9c.03-2.13.8-3.88 2.37-5.3 1.6-1.5 3.52-2.2 5.73-2.2 2.22 0 4.12.75 5.7 2.25 1.54 1.4 2.32 3.2 2.32 5.32v5.58H639.9zm22.1 30.94h-28.03v-23.7h28z" stroke="#fff" stroke-opacity="0" fill="#fff"/><path d="M647.2 357.3v6.25h1.6v-6.23c2.13-.4 3.62-2.2 3.63-4.35 0-2.43-1.97-4.4-4.4-4.43-2.2-.03-4.06 1.5-4.44 3.68-.42 2.4 1.2 4.68 3.6 5.1zm.82-7.15c.78 0 1.44.27 2 .83.54.55.82 1.2.8 2 .03 1.54-1.2 2.8-2.74 2.8h-.06c-1.56.13-2.92-1.04-3.04-2.6-.12-1.56 1.05-2.93 2.6-3.03.16-.02.28-.02.44 0z" stroke="#fff" stroke-opacity="0" fill="#fff"/><use xlink:href="#m" transform="matrix(1,0,0,1,691,339.9999999999998) translate(0 10.844444444444445)"/><use xlink:href="#l" transform="matrix(1,0,0,1,691,339.9999999999998) translate(78.09506172839504 10.844444444444445)"/><path d="M1321.6 545.33a8 8 0 0 1 8-8h204a8 8 0 0 1 8 8V732a8 8 0 0 1-8 8h-204a8 8 0 0 1-8-8z" fill="#147eba" fill-opacity=".13"/><path d="M1321.6 537.33h56v56h-56v-56z" stroke="#fff" stroke-opacity="0" fill="#147eba"/><path d="M1364.98 559.5c-.15-.16-.34-.24-.56-.24h-5.15v-5.58c-.03-2.53-.96-4.7-2.84-6.4-1.9-1.83-4.15-2.75-6.77-2.75-2.65 0-4.9.84-6.8 2.62-1.9 1.7-2.87 3.87-2.9 6.4v5.67h-5.15c-.24 0-.43.08-.58.25-.16.16-.22.33-.22.58v25.3c0 .4.34.78.8.78h29.6c.46 0 .8-.37.8-.8v-25.28c0-.2-.06-.37-.22-.54zm-23.46-5.9c.03-2.12.8-3.87 2.37-5.28 1.6-1.5 3.52-2.2 5.73-2.2 2.22 0 4.12.74 5.7 2.24 1.54 1.4 2.32 3.2 2.32 5.32v5.58h-16.16zm22.1 30.95h-28.03v-23.7h28z" stroke="#fff" stroke-opacity="0" fill="#fff"/><path d="M1348.8 574.64v6.25h1.6v-6.24c2.13-.4 3.62-2.2 3.63-4.36 0-2.43-1.97-4.4-4.4-4.42-2.2-.03-4.07 1.5-4.44 3.67-.42 2.4 1.2 4.7 3.6 5.1zm.82-7.16c.78 0 1.44.27 2 .83.54.56.82 1.22.8 2 .03 1.55-1.2 2.8-2.74 2.83h-.06c-1.56.12-2.92-1.05-3.04-2.62-.12-1.55 1.05-2.9 2.6-3.02h.44z" stroke="#fff" stroke-opacity="0" fill="#fff"/><use xlink:href="#n" transform="matrix(1,0,0,1,1392.6,557.3333333333334) translate(0 14.4)"/><use xlink:href="#o" transform="matrix(1,0,0,1,1392.6,557.3333333333334) translate(60.9 14.4)"/><path d="M1561.6 545.33a8 8 0 0 1 8-8h204a8 8 0 0 1 8 8V732a8 8 0 0 1-8 8h-204a8 8 0 0 1-8-8z" fill="#147eba" fill-opacity=".13"/><path d="M1561.6 537.33h56v56h-56v-56z" stroke="#fff" stroke-opacity="0" fill="#147eba"/><path d="M1604.98 559.5c-.15-.16-.34-.24-.56-.24h-5.15v-5.58c-.03-2.53-.96-4.7-2.84-6.4-1.9-1.83-4.15-2.75-6.77-2.75-2.65 0-4.9.84-6.8 2.62-1.9 1.7-2.87 3.87-2.9 6.4v5.67h-5.15c-.24 0-.43.08-.58.25-.16.16-.22.33-.22.58v25.3c0 .4.34.78.8.78h29.6c.46 0 .8-.37.8-.8v-25.28c0-.2-.06-.37-.22-.54zm-23.46-5.9c.03-2.12.8-3.87 2.37-5.28 1.6-1.5 3.52-2.2 5.73-2.2 2.22 0 4.12.74 5.7 2.24 1.54 1.4 2.32 3.2 2.32 5.32v5.58h-16.16zm22.1 30.95h-28.03v-23.7h28z" stroke="#fff" stroke-opacity="0" fill="#fff"/><path d="M1588.8 574.64v6.25h1.6v-6.24c2.13-.4 3.62-2.2 3.63-4.36 0-2.43-1.97-4.4-4.4-4.42-2.2-.03-4.07 1.5-4.44 3.67-.42 2.4 1.2 4.7 3.6 5.1zm.82-7.16c.78 0 1.44.27 2 .83.54.56.82 1.22.8 2 .03 1.55-1.2 2.8-2.74 2.83h-.06c-1.56.12-2.92-1.05-3.04-2.62-.12-1.55 1.05-2.9 2.6-3.02h.44z" stroke="#fff" stroke-opacity="0" fill="#fff"/><use xlink:href="#n" transform="matrix(1,0,0,1,1632.6,557.3333333333334) translate(0 14.4)"/><use xlink:href="#o" transform="matrix(1,0,0,1,1632.6,557.3333333333334) translate(60.9 14.4)"/><path d="M1321.6 328a8 8 0 0 1 8-8h204a8 8 0 0 1 8 8v186.67a8 8 0 0 1-8 8h-204a8 8 0 0 1-8-8z" fill="#147eba" fill-opacity=".13"/><path d="M1321.6 320h56v56h-56v-56z" stroke="#fff" stroke-opacity="0" fill="#147eba"/><path d="M1364.98 342.18c-.15-.17-.34-.25-.56-.25h-5.15v-5.58c-.03-2.54-.96-4.7-2.84-6.4-1.9-1.83-4.15-2.75-6.77-2.75-2.65 0-4.9.83-6.8 2.62-1.9 1.7-2.87 3.87-2.9 6.4v5.66h-5.15c-.24 0-.43.1-.58.25-.16.17-.22.34-.22.6V368c0 .43.34.8.8.8h29.6c.46 0 .8-.37.8-.8v-25.28c0-.2-.06-.38-.22-.54zm-23.46-5.9c.03-2.13.8-3.88 2.37-5.3 1.6-1.5 3.52-2.2 5.73-2.2 2.22 0 4.12.75 5.7 2.25 1.54 1.4 2.32 3.2 2.32 5.32v5.58h-16.16zm22.1 30.94h-28.03v-23.7h28z" stroke="#fff" stroke-opacity="0" fill="#fff"/><path d="M1348.8 357.3v6.25h1.6v-6.23c2.13-.4 3.62-2.2 3.63-4.35 0-2.43-1.97-4.4-4.4-4.43-2.2-.03-4.07 1.5-4.44 3.68-.42 2.4 1.2 4.68 3.6 5.1zm.82-7.15c.78 0 1.44.27 2 .83.54.55.82 1.2.8 2 .03 1.54-1.2 2.8-2.74 2.8h-.06c-1.56.13-2.92-1.04-3.04-2.6-.12-1.56 1.05-2.93 2.6-3.03.16-.02.28-.02.44 0z" stroke="#fff" stroke-opacity="0" fill="#fff"/><use xlink:href="#n" transform="matrix(1,0,0,1,1392.6,339.99999999999994) translate(0 14.4)"/><use xlink:href="#o" transform="matrix(1,0,0,1,1392.6,339.99999999999994) translate(60.9 14.4)"/><path d="M1561.6 328a8 8 0 0 1 8-8h204a8 8 0 0 1 8 8v186.67a8 8 0 0 1-8 8h-204a8 8 0 0 1-8-8z" fill="#147eba" fill-opacity=".13"/><path d="M1561.6 320h56v56h-56v-56z" stroke="#fff" stroke-opacity="0" fill="#147eba"/><path d="M1604.98 342.18c-.15-.17-.34-.25-.56-.25h-5.15v-5.58c-.03-2.54-.96-4.7-2.84-6.4-1.9-1.83-4.15-2.75-6.77-2.75-2.65 0-4.9.83-6.8 2.62-1.9 1.7-2.87 3.87-2.9 6.4v5.66h-5.15c-.24 0-.43.1-.58.25-.16.17-.22.34-.22.6V368c0 .43.34.8.8.8h29.6c.46 0 .8-.37.8-.8v-25.28c0-.2-.06-.38-.22-.54zm-23.46-5.9c.03-2.13.8-3.88 2.37-5.3 1.6-1.5 3.52-2.2 5.73-2.2 2.22 0 4.12.75 5.7 2.25 1.54 1.4 2.32 3.2 2.32 5.32v5.58h-16.16zm22.1 30.94h-28.03v-23.7h28z" stroke="#fff" stroke-opacity="0" fill="#fff"/><path d="M1588.8 357.3v6.25h1.6v-6.23c2.13-.4 3.62-2.2 3.63-4.35 0-2.43-1.97-4.4-4.4-4.43-2.2-.03-4.07 1.5-4.44 3.68-.42 2.4 1.2 4.68 3.6 5.1zm.82-7.15c.78 0 1.44.27 2 .83.54.55.82 1.2.8 2 .03 1.54-1.2 2.8-2.74 2.8h-.06c-1.56.13-2.92-1.04-3.04-2.6-.12-1.56 1.05-2.93 2.6-3.03.16-.02.28-.02.44 0z" stroke="#fff" stroke-opacity="0" fill="#fff"/><use xlink:href="#n" transform="matrix(1,0,0,1,1632.6,339.99999999999994) translate(0 14.4)"/><use xlink:href="#o" transform="matrix(1,0,0,1,1632.6,339.99999999999994) translate(60.9 14.4)"/><path d="M820 413.33h240v60H820z" fill="none"/><use xlink:href="#p" transform="matrix(1,0,0,1,820,413.33333333333326) translate(91.1 33.6)"/><path d="M1100 580h240v60h-240z" fill="none"/><use xlink:href="#q" transform="matrix(1,0,0,1,1100,580) translate(84.57499999999999 33.6)"/><path d="M522.18 672.18h-64.36v-64.36h64.36zm-61.02-3.34h57.68v-57.68h-57.68z" stroke="#fff" stroke-opacity="0" fill="#fc9432"/><path d="M467.02 600h3.33v9.48h-3.33V600zM477.47 600h3.33v9.48h-3.33V600zM487.93 600h3.34v9.48h-3.34V600zM498.4 600h3.33v9.48h-3.33V600zM508.87 600h3.33v9.48h-3.33V600zM467.02 670.52h3.33V680h-3.33v-9.48zM477.47 670.52h3.33V680h-3.33v-9.48zM487.93 670.52h3.34V680h-3.34v-9.48zM498.4 670.52h3.33V680h-3.33v-9.48zM508.87 670.52h3.33V680h-3.33v-9.48zM520.52 617.42H530v3.33h-9.48v-3.33zM520.52 627.87H530v3.33h-9.48v-3.33zM520.52 638.33H530v3.34h-9.48v-3.34zM520.52 648.8H530v3.33h-9.48v-3.33zM520.52 659.25H530v3.33h-9.48v-3.33zM450 617.42h9.48v3.33H450v-3.33zM450 627.87h9.48v3.33H450v-3.33zM450 638.33h9.48v3.34H450v-3.34zM450 648.8h9.48v3.33H450v-3.33zM450 659.25h9.48v3.33H450v-3.33z" stroke="#fff" stroke-opacity="0" fill="#fc9432"/><use xlink:href="#r" transform="matrix(1,0,0,1,420,689) translate(36.099999999999994 14.4)"/><use xlink:href="#s" transform="matrix(1,0,0,1,420,689) translate(27.5 36)"/><path d="M1020 260h120v120h-120V260z" stroke="#fff" stroke-opacity="0" fill="#693cc5"/><path d="M1080 298.82c-4.2 0-7.6-3.4-7.6-7.6 0-4.2 3.4-7.6 7.6-7.6 4.2 0 7.6 3.4 7.6 7.6 0 4.2-3.4 7.6-7.6 7.6zm0-11.98c-2.43 0-4.4 1.96-4.4 4.4 0 2.42 1.97 4.4 4.4 4.4 2.43 0 4.4-1.98 4.4-4.4 0-2.44-1.97-4.4-4.4-4.4zM1108.77 327.6c-4.2 0-7.6-3.4-7.6-7.6 0-4.2 3.4-7.6 7.6-7.6 4.2 0 7.6 3.4 7.6 7.6 0 4.2-3.4 7.6-7.6 7.6zm0-12c-2.43 0-4.4 1.97-4.4 4.4 0 2.43 1.97 4.4 4.4 4.4 2.43 0 4.4-1.97 4.4-4.4 0-2.43-1.97-4.4-4.4-4.4zM1080 356.37c-4.2 0-7.6-3.4-7.6-7.6 0-4.2 3.4-7.6 7.6-7.6 4.2 0 7.6 3.4 7.6 7.6 0 4.2-3.4 7.6-7.6 7.6zm0-11.98h-.02c-2.43 0-4.4 1.97-4.37 4.4 0 2.43 1.98 4.4 4.42 4.4 2.43-.02 4.4-2 4.37-4.43 0-2.43-1.97-4.38-4.4-4.38zM1051.23 327.6c-4.2 0-7.6-3.4-7.6-7.6-.03-4.18 3.38-7.58 7.57-7.6 4.2 0 7.6 3.4 7.62 7.6 0 4.2-3.4 7.58-7.6 7.6zm0-12c-2.45 0-4.4 1.97-4.4 4.4 0 2.43 1.95 4.4 4.4 4.4 2.42 0 4.38-1.97 4.38-4.4 0-2.43-1.94-4.4-4.37-4.4z" stroke="#fff" stroke-opacity="0" fill="#fff"/><path d="M1080 358.77c-21.4 0-38.77-17.37-38.77-38.77 0-21.4 17.37-38.77 38.77-38.77 21.4 0 38.77 17.37 38.77 38.77 0 21.4-17.37 38.77-38.77 38.77zm0-74.36c-19.62 0-35.6 15.98-35.6 35.6s15.98 35.6 35.6 35.6 35.6-15.98 35.6-35.6c-.1-19.62-15.98-35.5-35.6-35.6z" stroke="#fff" stroke-opacity="0" fill="#fff"/><path d="M1080 331.1c-6.12 0-11.1-4.98-11.1-11.1 0-6.12 4.98-11.1 11.1-11.1 6.12 0 11.1 4.98 11.1 11.1 0 6.12-4.98 11.1-11.1 11.1zm0-19c-4.35 0-7.9 3.55-7.9 7.9 0 4.35 3.55 7.9 7.9 7.9 4.35 0 7.9-3.55 7.9-7.9 0-4.35-3.55-7.9-7.9-7.9z" stroke="#fff" stroke-opacity="0" fill="#fff"/><path d="M1057.22 318.4h13.28v3.2h-13.28v-3.2zM1089.5 318.4h13.27v3.2h-13.28v-3.2zM1078.4 329.5h3.2v13.27h-3.2V329.5zM1078.4 297.22h3.2v13.28h-3.2v-13.28z" stroke="#fff" stroke-opacity="0" fill="#fff"/><use xlink:href="#t" transform="matrix(1,0,0,1,990,389) translate(37.625 14.4)"/><use xlink:href="#u" transform="matrix(1,0,0,1,990,389) translate(83.525 14.4)"/><use xlink:href="#v" transform="matrix(1,0,0,1,990,389) translate(53.025 36)"/><path d="M730 606.67c17.66 0 32 14.33 32 32 0 17.66-14.34 32-32 32s-32-14.34-32-32c0-17.67 14.34-32 32-32zm0 61.12c16.06 0 29.12-13.07 29.12-29.13 0-16.07-13.06-29.12-29.12-29.12-16.06 0-29.12 13.05-29.12 29.12 0 16.06 13.06 29.12 29.12 29.12zm17.47-36.43c3.97 0 7.23 3.26 7.23 7.3 0 4.03-3.26 7.3-7.23 7.3-3.52 0-6.46-2.5-7.17-5.83h-20.6c-.7 3.33-3.65 5.82-7.17 5.82-3.97 0-7.23-3.26-7.23-7.3 0-4.02 3.26-7.3 7.23-7.3 3.52 0 6.46 2.5 7.17 5.84h20.6c.7-3.33 3.65-5.83 7.17-5.83zm-34.94 11.65c2.43 0 4.35-1.92 4.35-4.35 0-2.43-1.92-4.35-4.35-4.35-2.37 0-4.35 1.9-4.35 4.35 0 2.43 1.98 4.35 4.35 4.35zm34.94 0c2.37 0 4.35-1.92 4.35-4.35 0-2.43-1.98-4.35-4.35-4.35-2.43 0-4.35 1.9-4.35 4.35 0 2.43 1.92 4.35 4.35 4.35z" stroke="#000" stroke-opacity="0" fill="#4d27aa"/><use xlink:href="#w" transform="matrix(1,0,0,1,668,679.6666666666664) translate(17.124999999999993 14.4)"/><use xlink:href="#x" transform="matrix(1,0,0,1,668,679.6666666666664) translate(46.55 36)"/><use xlink:href="#y" transform="matrix(1,0,0,1,668,679.6666666666664) translate(14.125 57.6)"/><path d="M1703.78 453.52h-64.36v-64.37h64.36zm-61.02-3.35h57.68V392.5h-57.68z" stroke="#fff" stroke-opacity="0" fill="#fc9432"/><path d="M1648.62 381.33h3.33v9.5h-3.33v-9.5zM1659.07 381.33h3.33v9.5h-3.33v-9.5zM1669.53 381.33h3.34v9.5h-3.34v-9.5zM1680 381.33h3.33v9.5H1680v-9.5zM1690.47 381.33h3.33v9.5h-3.33v-9.5zM1648.62 451.85h3.33v9.48h-3.33v-9.48zM1659.07 451.85h3.33v9.48h-3.33v-9.48zM1669.53 451.85h3.34v9.48h-3.34v-9.48zM1680 451.85h3.33v9.48H1680v-9.48zM1690.47 451.85h3.33v9.48h-3.33v-9.48zM1702.12 398.75h9.48v3.33h-9.48v-3.33zM1702.12 409.2h9.48v3.33h-9.48v-3.33zM1702.12 419.67h9.48V423h-9.48v-3.33zM1702.12 430.13h9.48v3.34h-9.48v-3.34zM1702.12 440.58h9.48v3.34h-9.48v-3.34zM1631.6 398.75h9.48v3.33h-9.48v-3.33zM1631.6 409.2h9.48v3.33h-9.48v-3.33zM1631.6 419.67h9.48V423h-9.48v-3.33zM1631.6 430.13h9.48v3.34h-9.48v-3.34zM1631.6 440.58h9.48v3.34h-9.48v-3.34z" stroke="#fff" stroke-opacity="0" fill="#fc9432"/><use xlink:href="#z" transform="matrix(1,0,0,1,1601.6,470.3333333333333) translate(36.099999999999994 14.4)"/><use xlink:href="#A" transform="matrix(1,0,0,1,1601.6,470.3333333333333) translate(27.5 36)"/><path d="M730 387.33c17.66 0 32 14.34 32 32 0 17.67-14.34 32-32 32s-32-14.33-32-32c0-17.66 14.34-32 32-32zm0 61.12c16.06 0 29.12-13.05 29.12-29.12 0-16.06-13.06-29.12-29.12-29.12-16.06 0-29.12 13.07-29.12 29.13 0 16.07 13.06 29.12 29.12 29.12zm17.47-36.4c3.97 0 7.23 3.25 7.23 7.28 0 4.04-3.26 7.3-7.23 7.3-3.52 0-6.46-2.5-7.17-5.82h-20.6c-.7 3.33-3.65 5.83-7.17 5.83-3.97 0-7.23-3.26-7.23-7.3 0-4.03 3.26-7.3 7.23-7.3 3.52 0 6.46 2.5 7.17 5.83h20.6c.7-3.33 3.65-5.82 7.17-5.82zm-34.94 11.63c2.43 0 4.35-1.92 4.35-4.35 0-2.43-1.92-4.35-4.35-4.35-2.37 0-4.35 1.92-4.35 4.35 0 2.44 1.98 4.36 4.35 4.36zm34.94 0c2.37 0 4.35-1.92 4.35-4.35 0-2.43-1.98-4.35-4.35-4.35-2.43 0-4.35 1.92-4.35 4.35 0 2.44 1.92 4.36 4.35 4.36z" stroke="#000" stroke-opacity="0" fill="#4d27aa"/><use xlink:href="#B" transform="matrix(1,0,0,1,668,460.3333333333333) translate(17.599999999999994 14.4)"/><use xlink:href="#x" transform="matrix(1,0,0,1,668,460.3333333333333) translate(46.55 36)"/><use xlink:href="#y" transform="matrix(1,0,0,1,668,460.3333333333333) translate(14.125 57.6)"/><path d="M1432 383.33c17.66 0 32 14.34 32 32 0 17.67-14.34 32-32 32s-32-14.33-32-32c0-17.66 14.34-32 32-32zm0 61.12c16.06 0 29.12-13.05 29.12-29.12 0-16.06-13.06-29.12-29.12-29.12-16.06 0-29.12 13.07-29.12 29.13 0 16.07 13.06 29.12 29.12 29.12zm17.47-36.4c3.97 0 7.23 3.25 7.23 7.28 0 4.04-3.26 7.3-7.23 7.3-3.52 0-6.46-2.5-7.17-5.82h-20.6c-.7 3.33-3.65 5.83-7.17 5.83-3.97 0-7.23-3.26-7.23-7.3 0-4.03 3.26-7.3 7.23-7.3 3.52 0 6.46 2.5 7.17 5.83h20.6c.7-3.33 3.65-5.82 7.17-5.82zm-34.94 11.63c2.43 0 4.35-1.92 4.35-4.35 0-2.43-1.92-4.35-4.35-4.35-2.37 0-4.35 1.92-4.35 4.35 0 2.44 1.98 4.36 4.35 4.36zm34.94 0c2.37 0 4.35-1.92 4.35-4.35 0-2.43-1.98-4.35-4.35-4.35-2.43 0-4.35 1.92-4.35 4.35 0 2.44 1.92 4.36 4.35 4.36z" stroke="#000" stroke-opacity="0" fill="#4d27aa"/><use xlink:href="#B" transform="matrix(1,0,0,1,1370,456.3333333333333) translate(17.599999999999994 14.4)"/><use xlink:href="#x" transform="matrix(1,0,0,1,1370,456.3333333333333) translate(46.55 36)"/><use xlink:href="#y" transform="matrix(1,0,0,1,1370,456.3333333333333) translate(14.125 57.6)"/><path d="M1431.6 606.67c17.66 0 32 14.33 32 32 0 17.66-14.34 32-32 32s-32-14.34-32-32c0-17.67 14.34-32 32-32zm0 61.12c16.06 0 29.12-13.07 29.12-29.13 0-16.07-13.06-29.12-29.12-29.12-16.06 0-29.12 13.05-29.12 29.12 0 16.06 13.06 29.12 29.12 29.12zm17.47-36.43c3.97 0 7.23 3.26 7.23 7.3 0 4.03-3.26 7.3-7.23 7.3-3.52 0-6.46-2.5-7.17-5.83h-20.6c-.7 3.33-3.65 5.82-7.17 5.82-3.97 0-7.23-3.26-7.23-7.3 0-4.02 3.26-7.3 7.23-7.3 3.52 0 6.46 2.5 7.17 5.84h20.6c.7-3.33 3.65-5.83 7.17-5.83zm-34.94 11.65c2.43 0 4.35-1.92 4.35-4.35 0-2.43-1.92-4.35-4.35-4.35-2.37 0-4.35 1.9-4.35 4.35 0 2.43 1.98 4.35 4.35 4.35zm34.94 0c2.37 0 4.35-1.92 4.35-4.35 0-2.43-1.98-4.35-4.35-4.35-2.43 0-4.35 1.9-4.35 4.35 0 2.43 1.92 4.35 4.35 4.35z" stroke="#000" stroke-opacity="0" fill="#4d27aa"/><g><use xlink:href="#w" transform="matrix(1,0,0,1,1369.6,679.6666666666664) translate(17.124999999999993 14.4)"/><use xlink:href="#x" transform="matrix(1,0,0,1,1369.6,679.6666666666664) translate(46.55 36)"/><use xlink:href="#y" transform="matrix(1,0,0,1,1369.6,679.6666666666664) translate(14.125 57.6)"/></g><path d="M764 638.67h612.86" stroke="#e81313" stroke-width="4" fill="none"/><path d="M764.05 640.67h-2.2l.15-2v-.27l-.15-1.73h2.2z" stroke="#e81313" stroke-width=".05" fill="#e81313"/><path d="M1393.13 638.67l-14.27 4.63v-9.27z" stroke="#e81313" stroke-width="4" fill="#e81313"/><path d="M1464.9 637.15l151.92-177.56" stroke="#e81313" stroke-width="4" fill="none"/><path d="M1466.45 638.4l-3.1 3.65.25-3.38v-.27l-.22-2.55.03-.04z" stroke="#e81313" stroke-width=".05" fill="#e81313"/><path d="M1627.4 447.23l-5.76 13.85-7.04-6.03z" stroke="#e81313" stroke-width="4" fill="#e81313"/><path d="M524.18 638.34l151.08.28" stroke="#e81313" stroke-width="4" fill="none"/><path d="M522.18 636.33v2h2.06v2h-5.06v-4z" stroke="#e81313" stroke-width=".05" fill="#e81313"/><path d="M691.53 638.65l-14.28 4.6.02-9.26z" stroke="#e81313" stroke-width="4" fill="#e81313"/><path d="M1637.42 415.33h-150.68" stroke="#333" stroke-width="4" fill="none"/><path d="M1639.42 417.33h-2.06v-4h2.06z" stroke="#333" stroke-width=".05" fill="#333"/><path d="M1470.47 415.33l14.27-4.63v9.27z" stroke="#333" stroke-width="4" fill="#333"/><path d="M1398 415.33H784.42" stroke="#333" stroke-width="4" fill="none"/><path d="M1400 415.33v.27l.15 1.73h-2.2v-4h2.2z" stroke="#333" stroke-width=".05" fill="#333"/><path d="M768.15 415.33l14.27-4.63v9.27z" stroke="#333" stroke-width="4" fill="#333"/><path d="M696.7 420.86L544.65 601.64" stroke="#333" stroke-width="4" fill="none"/><path d="M698 419.33v.27l.22 2.57v.02l-3.07-2.58 3.12-3.7z" stroke="#333" stroke-width=".05" fill="#333"/><path d="M534.17 614.1l5.63-13.92 7.1 5.97z" stroke="#333" stroke-width="4" fill="#333"/><defs><path fill="#147eba" d="M84 4C-5 8 30-112 23-190h32v120c0 31 7 50 39 49 72-2 45-101 50-169h31l1 190h-30c-1-10 1-25-2-33-11 22-28 36-60 37" id="C"/><path fill="#147eba" d="M135-143c-3-34-86-38-87 0 15 53 115 12 119 90S17 21 10-45l28-5c4 36 97 45 98 0-10-56-113-15-118-90-4-57 82-63 122-42 12 7 21 19 24 35" id="D"/><path fill="#147eba" d="M16-82v-28h88v28H16" id="E"/><path fill="#147eba" d="M100-194c63 0 86 42 84 106H49c0 40 14 67 53 68 26 1 43-12 49-29l28 8c-11 28-37 45-77 45C44 4 14-33 15-96c1-61 26-98 85-98zm52 81c6-60-76-77-97-28-3 7-6 17-6 28h103" id="F"/><path fill="#147eba" d="M141-36C126-15 110 5 73 4 37 3 15-17 15-53c-1-64 63-63 125-63 3-35-9-54-41-54-24 1-41 7-42 31l-33-3c5-37 33-52 76-52 45 0 72 20 72 64v82c-1 20 7 32 28 27v20c-31 9-61-2-59-35zM48-53c0 20 12 33 32 33 41-3 63-29 60-74-43 2-92-5-92 41" id="G"/><path fill="#147eba" d="M59-47c-2 24 18 29 38 22v24C64 9 27 4 27-40v-127H5v-23h24l9-43h21v43h35v23H59v120" id="H"/><path fill="#147eba" d="M27 0v-27h64v-190l-56 39v-29l58-41h29v221h61V0H27" id="I"/><g id="a"><use transform="matrix(0.05,0,0,0.05,0,0)" xlink:href="#C"/><use transform="matrix(0.05,0,0,0.05,10,0)" xlink:href="#D"/><use transform="matrix(0.05,0,0,0.05,19,0)" xlink:href="#E"/><use transform="matrix(0.05,0,0,0.05,24.95,0)" xlink:href="#F"/><use transform="matrix(0.05,0,0,0.05,34.95,0)" xlink:href="#G"/><use transform="matrix(0.05,0,0,0.05,44.95,0)" xlink:href="#D"/><use transform="matrix(0.05,0,0,0.05,53.95,0)" xlink:href="#H"/><use transform="matrix(0.05,0,0,0.05,58.95,0)" xlink:href="#E"/><use transform="matrix(0.05,0,0,0.05,64.9,0)" xlink:href="#I"/><use transform="matrix(0.05,0,0,0.05,74.9,0)" xlink:href="#G"/></g><path fill="#147eba" d="M115-194c53 0 69 39 70 98 0 66-23 100-70 100C84 3 66-7 56-30L54 0H23l1-261h32v101c10-23 28-34 59-34zm-8 174c40 0 45-34 45-75 0-40-5-75-45-74-42 0-51 32-51 76 0 43 10 73 51 73" id="J"/><g id="b"><use transform="matrix(0.05,0,0,0.05,0,0)" xlink:href="#C"/><use transform="matrix(0.05,0,0,0.05,10,0)" xlink:href="#D"/><use transform="matrix(0.05,0,0,0.05,19,0)" xlink:href="#E"/><use transform="matrix(0.05,0,0,0.05,24.95,0)" xlink:href="#F"/><use transform="matrix(0.05,0,0,0.05,34.95,0)" xlink:href="#G"/><use transform="matrix(0.05,0,0,0.05,44.95,0)" xlink:href="#D"/><use transform="matrix(0.05,0,0,0.05,53.95,0)" xlink:href="#H"/><use transform="matrix(0.05,0,0,0.05,58.95,0)" xlink:href="#E"/><use transform="matrix(0.05,0,0,0.05,64.9,0)" xlink:href="#I"/><use transform="matrix(0.05,0,0,0.05,74.9,0)" xlink:href="#J"/></g><g id="c"><use transform="matrix(0.05,0,0,0.05,0,0)" xlink:href="#C"/><use transform="matrix(0.05,0,0,0.05,10,0)" xlink:href="#D"/><use transform="matrix(0.05,0,0,0.05,19,0)" xlink:href="#E"/><use transform="matrix(0.05,0,0,0.05,24.95,0)" xlink:href="#F"/><use transform="matrix(0.05,0,0,0.05,34.95,0)" xlink:href="#D"/><use transform="matrix(0.05,0,0,0.05,43.95,0)" xlink:href="#G"/><use transform="matrix(0.05,0,0,0.05,53.95,0)" xlink:href="#H"/><use transform="matrix(0.05,0,0,0.05,58.95,0)" xlink:href="#E"/><use transform="matrix(0.05,0,0,0.05,64.9,0)" xlink:href="#I"/><use transform="matrix(0.05,0,0,0.05,74.9,0)" xlink:href="#G"/></g><g id="d"><use transform="matrix(0.05,0,0,0.05,0,0)" xlink:href="#C"/><use transform="matrix(0.05,0,0,0.05,10,0)" xlink:href="#D"/><use transform="matrix(0.05,0,0,0.05,19,0)" xlink:href="#E"/><use transform="matrix(0.05,0,0,0.05,24.95,0)" xlink:href="#F"/><use transform="matrix(0.05,0,0,0.05,34.95,0)" xlink:href="#G"/><use transform="matrix(0.05,0,0,0.05,44.95,0)" xlink:href="#D"/><use transform="matrix(0.05,0,0,0.05,53.95,0)" xlink:href="#H"/><use transform="matrix(0.05,0,0,0.05,58.95,0)" xlink:href="#E"/><use transform="matrix(0.05,0,0,0.05,64.9,0)" xlink:href="#I"/></g><path fill="#248814" d="M137 0h-34L2-248h35l83 218 83-218h36" id="K"/><path fill="#248814" d="M30-248c87 1 191-15 191 75 0 78-77 80-158 76V0H30v-248zm33 125c57 0 124 11 124-50 0-59-68-47-124-48v98" id="L"/><path fill="#248814" d="M212-179c-10-28-35-45-73-45-59 0-87 40-87 99 0 60 29 101 89 101 43 0 62-24 78-52l27 14C228-24 195 4 139 4 59 4 22-46 18-125c-6-104 99-153 187-111 19 9 31 26 39 46" id="M"/><path fill="#248814" d="M16-82v-28h88v28H16" id="N"/><path fill="#248814" d="M205 0l-28-72H64L36 0H1l101-248h38L239 0h-34zm-38-99l-47-123c-12 45-31 82-46 123h93" id="O"/><path fill="#248814" d="M33-154v-36h34v36H33zM33 0v-36h34V0H33" id="P"/><g id="e"><use transform="matrix(0.05,0,0,0.05,0,0)" xlink:href="#K"/><use transform="matrix(0.05,0,0,0.05,12,0)" xlink:href="#L"/><use transform="matrix(0.05,0,0,0.05,24,0)" xlink:href="#M"/><use transform="matrix(0.05,0,0,0.05,36.95,0)" xlink:href="#N"/><use transform="matrix(0.05,0,0,0.05,42.900000000000006,0)" xlink:href="#O"/><use transform="matrix(0.05,0,0,0.05,54.900000000000006,0)" xlink:href="#P"/></g><path fill="#248814" d="M27 0v-27h64v-190l-56 39v-29l58-41h29v221h61V0H27" id="Q"/><path fill="#248814" d="M101-251c68 0 85 55 85 127S166 4 100 4C33 4 14-52 14-124c0-73 17-127 87-127zm-1 229c47 0 54-49 54-102s-4-102-53-102c-51 0-55 48-55 102 0 53 5 102 54 102" id="R"/><path fill="#248814" d="M33 0v-38h34V0H33" id="S"/><path fill="#248814" d="M0 4l72-265h28L28 4H0" id="T"/><path fill="#248814" d="M101-251c82-7 93 87 43 132L82-64C71-53 59-42 53-27h129V0H18c2-99 128-94 128-182 0-28-16-43-45-43s-46 15-49 41l-32-3c6-41 34-60 81-64" id="U"/><g id="f"><use transform="matrix(0.05,0,0,0.05,0,0)" xlink:href="#Q"/><use transform="matrix(0.05,0,0,0.05,10,0)" xlink:href="#R"/><use transform="matrix(0.05,0,0,0.05,20,0)" xlink:href="#S"/><use transform="matrix(0.05,0,0,0.05,25,0)" xlink:href="#R"/><use transform="matrix(0.05,0,0,0.05,35,0)" xlink:href="#S"/><use transform="matrix(0.05,0,0,0.05,40,0)" xlink:href="#R"/><use transform="matrix(0.05,0,0,0.05,50,0)" xlink:href="#S"/><use transform="matrix(0.05,0,0,0.05,55,0)" xlink:href="#R"/><use transform="matrix(0.05,0,0,0.05,65,0)" xlink:href="#T"/><use transform="matrix(0.05,0,0,0.05,70,0)" xlink:href="#U"/><use transform="matrix(0.05,0,0,0.05,80,0)" xlink:href="#R"/></g><path fill="#248814" d="M160-131c35 5 61 23 61 61C221 17 115-2 30 0v-248c76 3 177-17 177 60 0 33-19 50-47 57zm-97-11c50-1 110 9 110-42 0-47-63-36-110-37v79zm0 115c55-2 124 14 124-45 0-56-70-42-124-44v89" id="V"/><g id="g"><use transform="matrix(0.05,0,0,0.05,0,0)" xlink:href="#K"/><use transform="matrix(0.05,0,0,0.05,12,0)" xlink:href="#L"/><use transform="matrix(0.05,0,0,0.05,24,0)" xlink:href="#M"/><use transform="matrix(0.05,0,0,0.05,36.95,0)" xlink:href="#N"/><use transform="matrix(0.05,0,0,0.05,42.900000000000006,0)" xlink:href="#V"/><use transform="matrix(0.05,0,0,0.05,54.900000000000006,0)" xlink:href="#P"/></g><g id="h"><use transform="matrix(0.05,0,0,0.05,0,0)" xlink:href="#Q"/><use transform="matrix(0.05,0,0,0.05,10,0)" xlink:href="#R"/><use transform="matrix(0.05,0,0,0.05,20,0)" xlink:href="#S"/><use transform="matrix(0.05,0,0,0.05,25,0)" xlink:href="#Q"/><use transform="matrix(0.05,0,0,0.05,35,0)" xlink:href="#S"/><use transform="matrix(0.05,0,0,0.05,40,0)" xlink:href="#R"/><use transform="matrix(0.05,0,0,0.05,50,0)" xlink:href="#S"/><use transform="matrix(0.05,0,0,0.05,55,0)" xlink:href="#R"/><use transform="matrix(0.05,0,0,0.05,65,0)" xlink:href="#T"/><use transform="matrix(0.05,0,0,0.05,70,0)" xlink:href="#U"/><use transform="matrix(0.05,0,0,0.05,80,0)" xlink:href="#R"/></g><path d="M143 4C61 4 22-44 18-125c-5-107 100-154 193-111 17 8 29 25 37 43l-32 9c-13-25-37-40-76-40-61 0-88 39-88 99 0 61 29 100 91 101 35 0 62-11 79-27v-45h-74v-28h105v86C228-13 192 4 143 4" id="W"/><path d="M100-194c63 0 86 42 84 106H49c0 40 14 67 53 68 26 1 43-12 49-29l28 8c-11 28-37 45-77 45C44 4 14-33 15-96c1-61 26-98 85-98zm52 81c6-60-76-77-97-28-3 7-6 17-6 28h103" id="X"/><path d="M117-194c89-4 53 116 60 194h-32v-121c0-31-8-49-39-48C34-167 62-67 57 0H25l-1-190h30c1 10-1 24 2 32 11-22 29-35 61-36" id="Y"/><path d="M114-163C36-179 61-72 57 0H25l-1-190h30c1 12-1 29 2 39 6-27 23-49 58-41v29" id="Z"/><path d="M24-231v-30h32v30H24zM24 0v-190h32V0H24" id="aa"/><path d="M96-169c-40 0-48 33-48 73s9 75 48 75c24 0 41-14 43-38l32 2c-6 37-31 61-74 61-59 0-76-41-82-99-10-93 101-131 147-64 4 7 5 14 7 22l-32 3c-4-21-16-35-41-35" id="ab"/><g id="i"><use transform="matrix(0.05,0,0,0.05,0,0)" xlink:href="#W"/><use transform="matrix(0.05,0,0,0.05,14,0)" xlink:href="#X"/><use transform="matrix(0.05,0,0,0.05,24,0)" xlink:href="#Y"/><use transform="matrix(0.05,0,0,0.05,34,0)" xlink:href="#X"/><use transform="matrix(0.05,0,0,0.05,44,0)" xlink:href="#Z"/><use transform="matrix(0.05,0,0,0.05,49.95,0)" xlink:href="#aa"/><use transform="matrix(0.05,0,0,0.05,53.900000000000006,0)" xlink:href="#ab"/></g><path d="M100-194c62-1 85 37 85 99 1 63-27 99-86 99S16-35 15-95c0-66 28-99 85-99zM99-20c44 1 53-31 53-75 0-43-8-75-51-75s-53 32-53 75 10 74 51 75" id="ac"/><path d="M84 4C-5 8 30-112 23-190h32v120c0 31 7 50 39 49 72-2 45-101 50-169h31l1 190h-30c-1-10 1-25-2-33-11 22-28 36-60 37" id="ad"/><path d="M115-194c55 1 70 41 70 98S169 2 115 4C84 4 66-9 55-30l1 105H24l-1-265h31l2 30c10-21 28-34 59-34zm-8 174c40 0 45-34 45-75s-6-73-45-74c-42 0-51 32-51 76 0 43 10 73 51 73" id="ae"/><g id="j"><use transform="matrix(0.05,0,0,0.05,0,0)" xlink:href="#W"/><use transform="matrix(0.05,0,0,0.05,14,0)" xlink:href="#Z"/><use transform="matrix(0.05,0,0,0.05,19.95,0)" xlink:href="#ac"/><use transform="matrix(0.05,0,0,0.05,29.950000000000003,0)" xlink:href="#ad"/><use transform="matrix(0.05,0,0,0.05,39.95,0)" xlink:href="#ae"/></g><path fill="#147eba" d="M24-248c93 1 206-16 204 79-1 75-69 88-152 82V0H24v-248zm52 121c47 0 100 7 100-41 0-47-54-39-100-39v80" id="af"/><path fill="#147eba" d="M135-150c-39-12-60 13-60 57V0H25l-1-190h47c2 13-1 29 3 40 6-28 27-53 61-41v41" id="ag"/><path fill="#147eba" d="M25-224v-37h50v37H25zM25 0v-190h50V0H25" id="ah"/><path fill="#147eba" d="M128 0H69L1-190h53L99-40l48-150h52" id="ai"/><path fill="#147eba" d="M133-34C117-15 103 5 69 4 32 3 11-16 11-54c-1-60 55-63 116-61 1-26-3-47-28-47-18 1-26 9-28 27l-52-2c7-38 36-58 82-57s74 22 75 68l1 82c-1 14 12 18 25 15v27c-30 8-71 5-69-32zm-48 3c29 0 43-24 42-57-32 0-66-3-65 30 0 17 8 27 23 27" id="aj"/><path fill="#147eba" d="M115-3C79 11 28 4 28-45v-112H4v-33h27l15-45h31v45h36v33H77v99c-1 23 16 31 38 25v30" id="ak"/><path fill="#147eba" d="M185-48c-13 30-37 53-82 52C43 2 14-33 14-96s30-98 90-98c62 0 83 45 84 108H66c0 31 8 55 39 56 18 0 30-7 34-22zm-45-69c5-46-57-63-70-21-2 6-4 13-4 21h74" id="al"/><g id="k"><use transform="matrix(0.03765432098765432,0,0,0.03765432098765432,0,0)" xlink:href="#af"/><use transform="matrix(0.03765432098765432,0,0,0.03765432098765432,9.037037037037036,0)" xlink:href="#ag"/><use transform="matrix(0.03765432098765432,0,0,0.03765432098765432,14.30864197530864,0)" xlink:href="#ah"/><use transform="matrix(0.03765432098765432,0,0,0.03765432098765432,18.074074074074073,0)" xlink:href="#ai"/><use transform="matrix(0.03765432098765432,0,0,0.03765432098765432,25.604938271604937,0)" xlink:href="#aj"/><use transform="matrix(0.03765432098765432,0,0,0.03765432098765432,33.1358024691358,0)" xlink:href="#ak"/><use transform="matrix(0.03765432098765432,0,0,0.03765432098765432,37.61666666666666,0)" xlink:href="#al"/></g><path fill="#147eba" d="M169-182c-1-43-94-46-97-3 18 66 151 10 154 114 3 95-165 93-204 36-6-8-10-19-12-30l50-8c3 46 112 56 116 5-17-69-150-10-154-114-4-87 153-88 188-35 5 8 8 18 10 28" id="am"/><path fill="#147eba" d="M85 4C-2 5 27-109 22-190h50c7 57-23 150 33 157 60-5 35-97 40-157h50l1 190h-47c-2-12 1-28-3-38-12 25-28 42-61 42" id="an"/><path fill="#147eba" d="M135-194c52 0 70 43 70 98 0 56-19 99-73 100-30 1-46-15-58-35L72 0H24l1-261h50v104c11-23 29-37 60-37zM114-30c31 0 40-27 40-66 0-37-7-63-39-63s-41 28-41 65c0 36 8 64 40 64" id="ao"/><path fill="#147eba" d="M135-194c87-1 58 113 63 194h-50c-7-57 23-157-34-157-59 0-34 97-39 157H25l-1-190h47c2 12-1 28 3 38 12-26 28-41 61-42" id="ap"/><g id="l"><use transform="matrix(0.03765432098765432,0,0,0.03765432098765432,0,0)" xlink:href="#am"/><use transform="matrix(0.03765432098765432,0,0,0.03765432098765432,9.037037037037036,0)" xlink:href="#an"/><use transform="matrix(0.03765432098765432,0,0,0.03765432098765432,17.28333333333333,0)" xlink:href="#ao"/><use transform="matrix(0.03765432098765432,0,0,0.03765432098765432,25.52962962962962,0)" xlink:href="#ap"/><use transform="matrix(0.03765432098765432,0,0,0.03765432098765432,33.77592592592592,0)" xlink:href="#al"/><use transform="matrix(0.03765432098765432,0,0,0.03765432098765432,41.30679012345678,0)" xlink:href="#ak"/></g><path fill="#147eba" d="M199 0l-22-63H83L61 0H9l90-248h61L250 0h-51zm-33-102l-36-108c-10 38-24 72-36 108h72" id="aq"/><path fill="#147eba" d="M190-63c-7 42-38 67-86 67-59 0-84-38-90-98-12-110 154-137 174-36l-49 2c-2-19-15-32-35-32-30 0-35 28-38 64-6 74 65 87 74 30" id="ar"/><path fill="#147eba" d="M114-157C55-157 80-60 75 0H25v-261h50l-1 109c12-26 28-41 61-42 86-1 58 113 63 194h-50c-7-57 23-157-34-157" id="as"/><path fill="#147eba" d="M220-157c-53 9-28 100-34 157h-49v-107c1-27-5-49-29-50C55-147 81-57 75 0H25l-1-190h47c2 12-1 28 3 38 10-53 101-56 108 0 13-22 24-43 59-42 82 1 51 116 57 194h-49v-107c-1-25-5-48-29-50" id="at"/><g id="m"><use transform="matrix(0.03765432098765432,0,0,0.03765432098765432,0,0)" xlink:href="#aq"/><use transform="matrix(0.03765432098765432,0,0,0.03765432098765432,9.752469135802468,0)" xlink:href="#ak"/><use transform="matrix(0.03765432098765432,0,0,0.03765432098765432,14.23333333333333,0)" xlink:href="#ak"/><use transform="matrix(0.03765432098765432,0,0,0.03765432098765432,18.714197530864194,0)" xlink:href="#aj"/><use transform="matrix(0.03765432098765432,0,0,0.03765432098765432,26.245061728395058,0)" xlink:href="#ar"/><use transform="matrix(0.03765432098765432,0,0,0.03765432098765432,33.77592592592592,0)" xlink:href="#as"/><use transform="matrix(0.03765432098765432,0,0,0.03765432098765432,42.02222222222221,0)" xlink:href="#at"/><use transform="matrix(0.03765432098765432,0,0,0.03765432098765432,54.07160493827159,0)" xlink:href="#al"/><use transform="matrix(0.03765432098765432,0,0,0.03765432098765432,61.60246913580246,0)" xlink:href="#ap"/><use transform="matrix(0.03765432098765432,0,0,0.03765432098765432,69.84876543209874,0)" xlink:href="#ak"/></g><path fill="#147eba" d="M30-248c87 1 191-15 191 75 0 78-77 80-158 76V0H30v-248zm33 125c57 0 124 11 124-50 0-59-68-47-124-48v98" id="au"/><path fill="#147eba" d="M114-163C36-179 61-72 57 0H25l-1-190h30c1 12-1 29 2 39 6-27 23-49 58-41v29" id="av"/><path fill="#147eba" d="M24-231v-30h32v30H24zM24 0v-190h32V0H24" id="aw"/><path fill="#147eba" d="M108 0H70L1-190h34L89-25l56-165h34" id="ax"/><g id="n"><use transform="matrix(0.05,0,0,0.05,0,0)" xlink:href="#au"/><use transform="matrix(0.05,0,0,0.05,12,0)" xlink:href="#av"/><use transform="matrix(0.05,0,0,0.05,17.95,0)" xlink:href="#aw"/><use transform="matrix(0.05,0,0,0.05,21.9,0)" xlink:href="#ax"/><use transform="matrix(0.05,0,0,0.05,30.899999999999995,0)" xlink:href="#G"/><use transform="matrix(0.05,0,0,0.05,40.9,0)" xlink:href="#H"/><use transform="matrix(0.05,0,0,0.05,45.9,0)" xlink:href="#F"/></g><path fill="#147eba" d="M185-189c-5-48-123-54-124 2 14 75 158 14 163 119 3 78-121 87-175 55-17-10-28-26-33-46l33-7c5 56 141 63 141-1 0-78-155-14-162-118-5-82 145-84 179-34 5 7 8 16 11 25" id="ay"/><path fill="#147eba" d="M117-194c89-4 53 116 60 194h-32v-121c0-31-8-49-39-48C34-167 62-67 57 0H25l-1-190h30c1 10-1 24 2 32 11-22 29-35 61-36" id="az"/><g id="o"><use transform="matrix(0.05,0,0,0.05,0,0)" xlink:href="#ay"/><use transform="matrix(0.05,0,0,0.05,12,0)" xlink:href="#C"/><use transform="matrix(0.05,0,0,0.05,22,0)" xlink:href="#J"/><use transform="matrix(0.05,0,0,0.05,32,0)" xlink:href="#az"/><use transform="matrix(0.05,0,0,0.05,42,0)" xlink:href="#F"/><use transform="matrix(0.05,0,0,0.05,52,0)" xlink:href="#H"/></g><path fill="#333" d="M240-174c0 40-23 61-54 70L253 0h-59l-57-94H76V0H24v-248c93 4 217-23 216 74zM76-134c48-2 112 12 112-38 0-48-66-32-112-35v73" id="aA"/><path fill="#333" d="M185-48c-13 30-37 53-82 52C43 2 14-33 14-96s30-98 90-98c62 0 83 45 84 108H66c0 31 8 55 39 56 18 0 30-7 34-22zm-45-69c5-46-57-63-70-21-2 6-4 13-4 21h74" id="aB"/><path fill="#333" d="M115-3C79 11 28 4 28-45v-112H4v-33h27l15-45h31v45h36v33H77v99c-1 23 16 31 38 25v30" id="aC"/><path fill="#333" d="M85 4C-2 5 27-109 22-190h50c7 57-23 150 33 157 60-5 35-97 40-157h50l1 190h-47c-2-12 1-28-3-38-12 25-28 42-61 42" id="aD"/><path fill="#333" d="M135-150c-39-12-60 13-60 57V0H25l-1-190h47c2 13-1 29 3 40 6-28 27-53 61-41v41" id="aE"/><path fill="#333" d="M135-194c87-1 58 113 63 194h-50c-7-57 23-157-34-157-59 0-34 97-39 157H25l-1-190h47c2 12-1 28 3 38 12-26 28-41 61-42" id="aF"/><g id="p"><use transform="matrix(0.05,0,0,0.05,0,0)" xlink:href="#aA"/><use transform="matrix(0.05,0,0,0.05,12.950000000000001,0)" xlink:href="#aB"/><use transform="matrix(0.05,0,0,0.05,22.950000000000003,0)" xlink:href="#aC"/><use transform="matrix(0.05,0,0,0.05,28.900000000000002,0)" xlink:href="#aD"/><use transform="matrix(0.05,0,0,0.05,39.85,0)" xlink:href="#aE"/><use transform="matrix(0.05,0,0,0.05,46.85,0)" xlink:href="#aF"/></g><path fill="#e81313" d="M76-208v77h127v40H76V0H24v-248h183v40H76" id="aG"/><path fill="#e81313" d="M110-194c64 0 96 36 96 99 0 64-35 99-97 99-61 0-95-36-95-99 0-62 34-99 96-99zm-1 164c35 0 45-28 45-65 0-40-10-65-43-65-34 0-45 26-45 65 0 36 10 65 43 65" id="aH"/><path fill="#e81313" d="M135-150c-39-12-60 13-60 57V0H25l-1-190h47c2 13-1 29 3 40 6-28 27-53 61-41v41" id="aI"/><path fill="#e81313" d="M231 0h-52l-39-155L100 0H48L-1-190h46L77-45c9-52 24-97 36-145h53l37 145 32-145h46" id="aJ"/><path fill="#e81313" d="M133-34C117-15 103 5 69 4 32 3 11-16 11-54c-1-60 55-63 116-61 1-26-3-47-28-47-18 1-26 9-28 27l-52-2c7-38 36-58 82-57s74 22 75 68l1 82c-1 14 12 18 25 15v27c-30 8-71 5-69-32zm-48 3c29 0 43-24 42-57-32 0-66-3-65 30 0 17 8 27 23 27" id="aK"/><path fill="#e81313" d="M88-194c31-1 46 15 58 34l-1-101h50l1 261h-48c-2-10 0-23-3-31C134-8 116 4 84 4 32 4 16-41 15-95c0-56 19-97 73-99zm17 164c33 0 40-30 41-66 1-37-9-64-41-64s-38 30-39 65c0 43 13 65 39 65" id="aL"/><g id="q"><use transform="matrix(0.05,0,0,0.05,0,0)" xlink:href="#aG"/><use transform="matrix(0.05,0,0,0.05,10.950000000000001,0)" xlink:href="#aH"/><use transform="matrix(0.05,0,0,0.05,21.900000000000002,0)" xlink:href="#aI"/><use transform="matrix(0.05,0,0,0.05,28.900000000000002,0)" xlink:href="#aJ"/><use transform="matrix(0.05,0,0,0.05,42.900000000000006,0)" xlink:href="#aK"/><use transform="matrix(0.05,0,0,0.05,52.900000000000006,0)" xlink:href="#aI"/><use transform="matrix(0.05,0,0,0.05,59.900000000000006,0)" xlink:href="#aL"/></g><path fill="#fc9432" d="M186 0v-106H76V0H24v-248h52v99h110v-99h50V0h-50" id="aM"/><path fill="#fc9432" d="M140-251c80 0 125 45 125 126S219 4 139 4C58 4 15-44 15-125s44-126 125-126zm-1 214c52 0 73-35 73-88 0-50-21-86-72-86-52 0-73 35-73 86s22 88 72 88" id="aN"/><path fill="#fc9432" d="M169-182c-1-43-94-46-97-3 18 66 151 10 154 114 3 95-165 93-204 36-6-8-10-19-12-30l50-8c3 46 112 56 116 5-17-69-150-10-154-114-4-87 153-88 188-35 5 8 8 18 10 28" id="aO"/><path fill="#fc9432" d="M136-208V0H84v-208H4v-40h212v40h-80" id="aP"/><path fill="#fc9432" d="M14-72v-43h91v43H14" id="aQ"/><path fill="#fc9432" d="M199 0l-22-63H83L61 0H9l90-248h61L250 0h-51zm-33-102l-36-108c-10 38-24 72-36 108h72" id="aR"/><g id="r"><use transform="matrix(0.05,0,0,0.05,0,0)" xlink:href="#aM"/><use transform="matrix(0.05,0,0,0.05,12.950000000000001,0)" xlink:href="#aN"/><use transform="matrix(0.05,0,0,0.05,26.950000000000003,0)" xlink:href="#aO"/><use transform="matrix(0.05,0,0,0.05,38.95,0)" xlink:href="#aP"/><use transform="matrix(0.05,0,0,0.05,48.900000000000006,0)" xlink:href="#aQ"/><use transform="matrix(0.05,0,0,0.05,54.85,0)" xlink:href="#aR"/></g><path fill="#fc9432" d="M23 0v-37h61v-169l-59 37v-38l62-41h46v211h57V0H23" id="aS"/><path fill="#fc9432" d="M101-251c68 0 84 54 84 127C185-50 166 4 99 4S15-52 14-124c-1-75 17-127 87-127zm-1 216c37-5 36-46 36-89s4-89-36-89c-39 0-36 45-36 89 0 43-3 85 36 89" id="aT"/><path fill="#fc9432" d="M24 0v-54h51V0H24" id="aU"/><path fill="#fc9432" d="M99-251c69 0 84 53 88 123 5 99-61 162-144 118-15-8-21-25-26-45l46-6c4 31 50 33 63 7 7-15 12-36 12-60-9 18-29 28-54 28-48 0-72-32-72-82 0-55 31-83 87-83zm-1 128c24 0 37-16 37-39 0-27-10-51-37-51-25 0-35 19-35 45 0 25 10 45 35 45" id="aV"/><path fill="#fc9432" d="M128-127c34 4 56 21 59 58 7 91-148 94-172 28-4-9-6-17-7-26l51-5c1 24 16 35 40 36 23 0 39-12 38-36-1-31-31-36-65-34v-40c32 2 59-3 59-33 0-20-13-33-34-33s-33 13-35 32l-50-3c6-44 37-68 86-68 50 0 83 20 83 66 0 35-22 52-53 58" id="aW"/><path fill="#fc9432" d="M182-182c0 78-84 86-111 141h115V0H12c-6-101 99-100 120-180 1-22-12-31-33-32-23 0-32 14-35 34l-49-3c5-45 32-70 84-70 51 0 83 22 83 69" id="aX"/><g id="s"><use transform="matrix(0.05,0,0,0.05,0,0)" xlink:href="#aS"/><use transform="matrix(0.05,0,0,0.05,10,0)" xlink:href="#aT"/><use transform="matrix(0.05,0,0,0.05,20,0)" xlink:href="#aU"/><use transform="matrix(0.05,0,0,0.05,25,0)" xlink:href="#aT"/><use transform="matrix(0.05,0,0,0.05,35,0)" xlink:href="#aU"/><use transform="matrix(0.05,0,0,0.05,40,0)" xlink:href="#aV"/><use transform="matrix(0.05,0,0,0.05,50,0)" xlink:href="#aU"/><use transform="matrix(0.05,0,0,0.05,55,0)" xlink:href="#aS"/><use transform="matrix(0.05,0,0,0.05,65,0)" xlink:href="#aW"/><use transform="matrix(0.05,0,0,0.05,75,0)" xlink:href="#aX"/></g><path fill="#693cc5" d="M199 0l-22-63H83L61 0H9l90-248h61L250 0h-51zm-33-102l-36-108c-10 38-24 72-36 108h72" id="aY"/><path fill="#693cc5" d="M275 0h-61l-44-196L126 0H64L0-248h53L97-49l45-199h58l43 199 44-199h52" id="aZ"/><path fill="#693cc5" d="M169-182c-1-43-94-46-97-3 18 66 151 10 154 114 3 95-165 93-204 36-6-8-10-19-12-30l50-8c3 46 112 56 116 5-17-69-150-10-154-114-4-87 153-88 188-35 5 8 8 18 10 28" id="ba"/><g id="t"><use transform="matrix(0.05,0,0,0.05,0,0)" xlink:href="#aY"/><use transform="matrix(0.05,0,0,0.05,11.950000000000001,0)" xlink:href="#aZ"/><use transform="matrix(0.05,0,0,0.05,28.899999999999995,0)" xlink:href="#ba"/></g><path fill="#693cc5" d="M136-208V0H84v-208H4v-40h212v40h-80" id="bb"/><path fill="#693cc5" d="M135-150c-39-12-60 13-60 57V0H25l-1-190h47c2 13-1 29 3 40 6-28 27-53 61-41v41" id="bc"/><path fill="#693cc5" d="M133-34C117-15 103 5 69 4 32 3 11-16 11-54c-1-60 55-63 116-61 1-26-3-47-28-47-18 1-26 9-28 27l-52-2c7-38 36-58 82-57s74 22 75 68l1 82c-1 14 12 18 25 15v27c-30 8-71 5-69-32zm-48 3c29 0 43-24 42-57-32 0-66-3-65 30 0 17 8 27 23 27" id="bd"/><path fill="#693cc5" d="M135-194c87-1 58 113 63 194h-50c-7-57 23-157-34-157-59 0-34 97-39 157H25l-1-190h47c2 12-1 28 3 38 12-26 28-41 61-42" id="be"/><path fill="#693cc5" d="M137-138c1-29-70-34-71-4 15 46 118 7 119 86 1 83-164 76-172 9l43-7c4 19 20 25 44 25 33 8 57-30 24-41C81-84 22-81 20-136c-2-80 154-74 161-7" id="bf"/><path fill="#693cc5" d="M25-224v-37h50v37H25zM25 0v-190h50V0H25" id="bg"/><path fill="#693cc5" d="M115-3C79 11 28 4 28-45v-112H4v-33h27l15-45h31v45h36v33H77v99c-1 23 16 31 38 25v30" id="bh"/><g id="u"><use transform="matrix(0.05,0,0,0.05,0,0)" xlink:href="#bb"/><use transform="matrix(0.05,0,0,0.05,9.950000000000001,0)" xlink:href="#bc"/><use transform="matrix(0.05,0,0,0.05,16.950000000000003,0)" xlink:href="#bd"/><use transform="matrix(0.05,0,0,0.05,26.950000000000003,0)" xlink:href="#be"/><use transform="matrix(0.05,0,0,0.05,37.900000000000006,0)" xlink:href="#bf"/><use transform="matrix(0.05,0,0,0.05,47.900000000000006,0)" xlink:href="#bg"/><use transform="matrix(0.05,0,0,0.05,52.900000000000006,0)" xlink:href="#bh"/></g><path fill="#693cc5" d="M67-125c0 54 23 88 75 88 28 0 53-7 68-21v-34h-60v-39h108v91C232-14 192 4 140 4 58 4 20-42 15-125 8-236 126-280 215-234c19 10 29 26 37 47l-47 15c-11-23-29-39-63-39-53 1-75 33-75 86" id="bi"/><path fill="#693cc5" d="M185-48c-13 30-37 53-82 52C43 2 14-33 14-96s30-98 90-98c62 0 83 45 84 108H66c0 31 8 55 39 56 18 0 30-7 34-22zm-45-69c5-46-57-63-70-21-2 6-4 13-4 21h74" id="bj"/><path fill="#693cc5" d="M231 0h-52l-39-155L100 0H48L-1-190h46L77-45c9-52 24-97 36-145h53l37 145 32-145h46" id="bk"/><path fill="#693cc5" d="M123 10C108 53 80 86 19 72V37c35 8 53-11 59-39L3-190h52l48 148c12-52 28-100 44-148h51" id="bl"/><g id="v"><use transform="matrix(0.05,0,0,0.05,0,0)" xlink:href="#bi"/><use transform="matrix(0.05,0,0,0.05,14,0)" xlink:href="#bd"/><use transform="matrix(0.05,0,0,0.05,24,0)" xlink:href="#bh"/><use transform="matrix(0.05,0,0,0.05,29.950000000000003,0)" xlink:href="#bj"/><use transform="matrix(0.05,0,0,0.05,39.95,0)" xlink:href="#bk"/><use transform="matrix(0.05,0,0,0.05,53.95,0)" xlink:href="#bd"/><use transform="matrix(0.05,0,0,0.05,63.95,0)" xlink:href="#bl"/></g><path fill="#693cc5" d="M85 4C-2 5 27-109 22-190h50c7 57-23 150 33 157 60-5 35-97 40-157h50l1 190h-47c-2-12 1-28-3-38-12 25-28 42-61 42" id="bm"/><path fill="#693cc5" d="M14-72v-43h91v43H14" id="bn"/><path fill="#693cc5" d="M23 0v-37h61v-169l-59 37v-38l62-41h46v211h57V0H23" id="bo"/><path fill="#693cc5" d="M135-194c52 0 70 43 70 98 0 56-19 99-73 100-30 1-46-15-58-35L72 0H24l1-261h50v104c11-23 29-37 60-37zM114-30c31 0 40-27 40-66 0-37-7-63-39-63s-41 28-41 65c0 36 8 64 40 64" id="bp"/><g id="w"><use transform="matrix(0.05,0,0,0.05,0,0)" xlink:href="#bm"/><use transform="matrix(0.05,0,0,0.05,10.950000000000001,0)" xlink:href="#bf"/><use transform="matrix(0.05,0,0,0.05,20.950000000000003,0)" xlink:href="#bn"/><use transform="matrix(0.05,0,0,0.05,26.900000000000002,0)" xlink:href="#bj"/><use transform="matrix(0.05,0,0,0.05,36.900000000000006,0)" xlink:href="#bd"/><use transform="matrix(0.05,0,0,0.05,46.900000000000006,0)" xlink:href="#bf"/><use transform="matrix(0.05,0,0,0.05,56.900000000000006,0)" xlink:href="#bh"/><use transform="matrix(0.05,0,0,0.05,62.85,0)" xlink:href="#bn"/><use transform="matrix(0.05,0,0,0.05,68.80000000000001,0)" xlink:href="#bo"/><use transform="matrix(0.05,0,0,0.05,78.80000000000001,0)" xlink:href="#bp"/></g><path fill="#693cc5" d="M195-6C206 82 75 100 31 46c-4-6-6-13-8-21l49-6c3 16 16 24 34 25 40 0 42-37 40-79-11 22-30 35-61 35-53 0-70-43-70-97 0-56 18-96 73-97 30 0 46 14 59 34l2-30h47zm-90-29c32 0 41-27 41-63 0-35-9-62-40-62-32 0-39 29-40 63 0 36 9 62 39 62" id="bq"/><g id="x"><use transform="matrix(0.05,0,0,0.05,0,0)" xlink:href="#bh"/><use transform="matrix(0.05,0,0,0.05,5.95,0)" xlink:href="#bq"/><use transform="matrix(0.05,0,0,0.05,16.900000000000002,0)" xlink:href="#bk"/></g><path fill="#693cc5" d="M190-63c-7 42-38 67-86 67-59 0-84-38-90-98-12-110 154-137 174-36l-49 2c-2-19-15-32-35-32-30 0-35 28-38 64-6 74 65 87 74 30" id="br"/><path fill="#693cc5" d="M114-157C55-157 80-60 75 0H25v-261h50l-1 109c12-26 28-41 61-42 86-1 58 113 63 194h-50c-7-57 23-157-34-157" id="bs"/><path fill="#693cc5" d="M220-157c-53 9-28 100-34 157h-49v-107c1-27-5-49-29-50C55-147 81-57 75 0H25l-1-190h47c2 12-1 28 3 38 10-53 101-56 108 0 13-22 24-43 59-42 82 1 51 116 57 194h-49v-107c-1-25-5-48-29-50" id="bt"/><g id="y"><use transform="matrix(0.05,0,0,0.05,0,0)" xlink:href="#bd"/><use transform="matrix(0.05,0,0,0.05,10,0)" xlink:href="#bh"/><use transform="matrix(0.05,0,0,0.05,15.949999999999998,0)" xlink:href="#bh"/><use transform="matrix(0.05,0,0,0.05,21.9,0)" xlink:href="#bd"/><use transform="matrix(0.05,0,0,0.05,31.899999999999995,0)" xlink:href="#br"/><use transform="matrix(0.05,0,0,0.05,41.9,0)" xlink:href="#bs"/><use transform="matrix(0.05,0,0,0.05,52.85,0)" xlink:href="#bt"/><use transform="matrix(0.05,0,0,0.05,68.85,0)" xlink:href="#bj"/><use transform="matrix(0.05,0,0,0.05,78.85,0)" xlink:href="#be"/><use transform="matrix(0.05,0,0,0.05,89.8,0)" xlink:href="#bh"/></g><path fill="#fc9432" d="M182-130c37 4 62 22 62 59C244 23 116-4 24 0v-248c84 5 203-23 205 63 0 31-19 50-47 55zM76-148c40-3 101 13 101-30 0-44-60-28-101-31v61zm0 110c48-3 116 14 116-37 0-48-69-32-116-35v72" id="bu"/><g id="z"><use transform="matrix(0.05,0,0,0.05,0,0)" xlink:href="#aM"/><use transform="matrix(0.05,0,0,0.05,12.950000000000001,0)" xlink:href="#aN"/><use transform="matrix(0.05,0,0,0.05,26.950000000000003,0)" xlink:href="#aO"/><use transform="matrix(0.05,0,0,0.05,38.95,0)" xlink:href="#aP"/><use transform="matrix(0.05,0,0,0.05,48.900000000000006,0)" xlink:href="#aQ"/><use transform="matrix(0.05,0,0,0.05,54.85,0)" xlink:href="#bu"/></g><path fill="#fc9432" d="M138-131c27 9 52 24 51 61 0 53-36 74-89 74S11-19 11-69c0-35 22-54 51-61-78-25-46-121 38-121 51 0 83 19 83 66 0 30-18 49-45 54zm-38-16c24 0 32-13 32-36 1-23-11-34-32-34-22 0-33 12-32 34 0 22 9 36 32 36zm1 116c27 0 37-17 37-43 0-25-13-39-39-39-24 0-37 15-37 40 0 27 11 42 39 42" id="bv"/><g id="A"><use transform="matrix(0.05,0,0,0.05,0,0)" xlink:href="#aS"/><use transform="matrix(0.05,0,0,0.05,10,0)" xlink:href="#aT"/><use transform="matrix(0.05,0,0,0.05,20,0)" xlink:href="#aU"/><use transform="matrix(0.05,0,0,0.05,25,0)" xlink:href="#aS"/><use transform="matrix(0.05,0,0,0.05,35,0)" xlink:href="#aU"/><use transform="matrix(0.05,0,0,0.05,40,0)" xlink:href="#bv"/><use transform="matrix(0.05,0,0,0.05,50,0)" xlink:href="#aU"/><use transform="matrix(0.05,0,0,0.05,55,0)" xlink:href="#aS"/><use transform="matrix(0.05,0,0,0.05,65,0)" xlink:href="#aW"/><use transform="matrix(0.05,0,0,0.05,75,0)" xlink:href="#aS"/></g><g id="B"><use transform="matrix(0.05,0,0,0.05,0,0)" xlink:href="#bm"/><use transform="matrix(0.05,0,0,0.05,10.950000000000001,0)" xlink:href="#bf"/><use transform="matrix(0.05,0,0,0.05,20.950000000000003,0)" xlink:href="#bn"/><use transform="matrix(0.05,0,0,0.05,26.900000000000002,0)" xlink:href="#bj"/><use transform="matrix(0.05,0,0,0.05,36.900000000000006,0)" xlink:href="#bd"/><use transform="matrix(0.05,0,0,0.05,46.900000000000006,0)" xlink:href="#bf"/><use transform="matrix(0.05,0,0,0.05,56.900000000000006,0)" xlink:href="#bh"/><use transform="matrix(0.05,0,0,0.05,62.85,0)" xlink:href="#bn"/><use transform="matrix(0.05,0,0,0.05,68.80000000000001,0)" xlink:href="#bo"/><use transform="matrix(0.05,0,0,0.05,78.80000000000001,0)" xlink:href="#bd"/></g></defs></g></svg>