<svg xmlns="http://www.w3.org/2000/svg" xmlns:xlink="http://www.w3.org/1999/xlink" xmlns:lucid="lucid" width="1419.5" height="648.2"><g transform="translate(19.5 0)" lucid:page-tab-id="0_0"><path d="M320 181.5h960V520H320z" fill="#fff" fill-opacity="0"/><path d="M332 181.5h8m8 0h8m8 0h8m8 0h8m8 0h8m8 0h8m8 0h8m8 0h8m8 0h8m8 0h8m8 0h8m8 0h8m8 0h8m8 0h8m8 0h8m8 0h8m8 0h8m8 0h8m8 0h8m8 0h8m8 0h8m8 0h8m8 0h8m8 0h8m8 0h8m8 0h8m8 0h8m8 0h8m8 0h8m8 0h8m8 0h8m8 0h8m8 0h8m8 0h8m8 0h8m8 0h8m8 0h8m8 0h8m8 0h8m8 0h8m8 0h8m8 0h8m8 0h8m8 0h8m8 0h8m8 0h8m8 0h8m8 0h8m8 0h8m8 0h8m8 0h8m8 0h8m8 0h8m8 0h8m8 0h8m8 0h8m8 0h8m8 0h8m8 0h8m8 0h4v4.04m0 8.05v8.05m0 8.06v8.07m0 8.06v8.06m0 8.05V250m0 8.07v8.06m0 8.06v8.05m0 8.06v8.07m0 8.06v8.06m0 8.04v8.06m0 8.06v8.06m0 8.06v8.06m0 8.06v8.06m0 8.06v8.06m0 8.06v8.06m0 8.06v8.06m0 8.06v8.06m0 8.06v8.05m0 8.06v8.07m0 8.06v8.06m0 8.05v8.06m0 8.07V520h-4m-8 0h-8m-8 0h-8m-8 0h-8m-8 0h-8m-8 0h-8m-8 0h-8m-8 0h-8m-8 0h-8m-8 0h-8m-8 0h-8m-8 0h-8m-8 0h-8m-8 0h-8m-8 0h-8m-8 0h-8m-8 0h-8m-8 0h-8m-8 0h-8m-8 0h-8m-8 0h-8m-8 0h-8m-8 0h-8m-8 0h-8m-8 0h-8m-8 0h-8m-8 0h-8m-8 0h-8m-8 0h-8m-8 0h-8m-8 0h-8m-8 0h-8m-8 0h-8m-8 0h-8m-8 0h-8m-8 0h-8m-8 0h-8m-8 0h-8m-8 0h-8m-8 0h-8m-8 0h-8m-8 0h-8m-8 0h-8m-8 0h-8m-8 0h-8m-8 0h-8m-8 0h-8m-8 0h-8m-8 0h-8m-8 0h-8m-8 0h-8m-8 0h-8m-8 0h-8m-8 0h-8m-8 0h-8m-8 0h-8m-8 0h-8m-8 0h-8m-8 0h-8m-8 0h-8m-8 0h-4v-4.03m0-8.06v-8.05m0-8.06v-8.07m0-8.06v-8.06m0-8.05v-8.05m0-8.06v-8.06m0-8.06v-8.06m0-8.06v-8.06m0-8.06v-8.06m0-8.06v-8.06m0-8.06v-8.06m0-8.06v-8.06m0-8.06v-8.06m0-8.05v-8.07m0-8.06v-8.06m0-8.05v-8.06m0-8.07v-8.06m0-8.06v-8.05m0-8.06v-8.07m0-8.06v-8.06m0-8.05v-8.06m0-8.06v-4.03h4" stroke="#147eba" stroke-width="2" fill="none"/><path d="M320.1 520V181.5h29.16V520z" stroke="#000" stroke-opacity="0" stroke-width="2" fill="#fff" fill-opacity="0"/><use xlink:href="#a" transform="matrix(6.123233995736766e-17,-1,1,6.123233995736766e-17,325.0877962956903,515) translate(85.48765432098763 19.662222222222223)"/><use xlink:href="#b" transform="matrix(6.123233995736766e-17,-1,1,6.123233995736766e-17,325.0877962956903,515) translate(183.462962962963 19.662222222222223)"/><use xlink:href="#c" transform="matrix(6.123233995736766e-17,-1,1,6.123233995736766e-17,325.0877962956903,515) translate(230.72222222222223 19.662222222222223)"/><path d="M501.25 200h360v200h-360z" fill="#248814" fill-opacity=".13"/><path d="M501.25 200h56v56h-56v-56z" stroke="#fff" stroke-opacity="0" fill="#248814"/><path d="M544.63 222.18c-.15-.17-.34-.25-.56-.25h-5.15v-5.58c-.03-2.54-.96-4.7-2.84-6.4-1.9-1.84-4.15-2.75-6.77-2.75-2.64 0-4.9.83-6.8 2.62-1.9 1.7-2.86 3.87-2.9 6.4v5.66h-5.14c-.25 0-.44.1-.6.25-.15.17-.2.34-.2.6V248c0 .43.33.8.8.8h29.58c.47 0 .8-.37.8-.8v-25.28c0-.2-.05-.38-.2-.54zm-23.46-5.9c.03-2.13.8-3.88 2.37-5.3 1.62-1.5 3.53-2.2 5.74-2.2 2.22 0 4.12.75 5.7 2.25 1.54 1.4 2.32 3.2 2.32 5.32v5.58h-16.16zm22.1 30.94h-28.03v-23.7h28.02z" stroke="#fff" stroke-opacity="0" fill="#fff"/><path d="M528.45 237.3v6.25h1.6v-6.23c2.13-.4 3.62-2.2 3.63-4.35 0-2.43-1.97-4.4-4.4-4.43-2.2-.03-4.06 1.5-4.44 3.68-.4 2.4 1.2 4.68 3.6 5.1zm.82-7.15c.78 0 1.44.27 2 .82.54.56.82 1.22.8 2 .03 1.55-1.2 2.8-2.74 2.82h-.06c-1.56.1-2.92-1.06-3.04-2.62-.12-1.56 1.05-2.93 2.6-3.03.16-.02.28-.02.44 0z" stroke="#fff" stroke-opacity="0" fill="#fff"/><use xlink:href="#d" transform="matrix(1,0,0,1,572.25,220) translate(0 14.222222222222223)"/><use xlink:href="#e" transform="matrix(1,0,0,1,572.25,220) translate(58.17283950617284 14.222222222222223)"/><use xlink:href="#f" transform="matrix(1,0,0,1,572.25,220) translate(123.16049382716051 14.222222222222223)"/><use xlink:href="#g" transform="matrix(1,0,0,1,572.25,220) translate(137.97530864197532 14.222222222222223)"/><use xlink:href="#h" transform="matrix(1,0,0,1,572.25,220) translate(148.79012345679013 14.222222222222223)"/><path d="M901.25 200h360v200h-360z" fill="#147eba" fill-opacity=".13"/><path d="M901.25 200h56v56h-56v-56z" stroke="#fff" stroke-opacity="0" fill="#147eba"/><path d="M944.63 222.18c-.15-.17-.34-.25-.56-.25h-5.15v-5.58c-.03-2.54-.96-4.7-2.84-6.4-1.9-1.84-4.15-2.75-6.77-2.75-2.64 0-4.9.83-6.8 2.62-1.9 1.7-2.86 3.87-2.9 6.4v5.66h-5.14c-.25 0-.44.1-.6.25-.15.17-.2.34-.2.6V248c0 .43.33.8.8.8h29.58c.47 0 .8-.37.8-.8v-25.28c0-.2-.05-.38-.2-.54zm-23.46-5.9c.03-2.13.8-3.88 2.37-5.3 1.62-1.5 3.53-2.2 5.74-2.2 2.22 0 4.12.75 5.7 2.25 1.54 1.4 2.32 3.2 2.32 5.32v5.58h-16.16zm22.1 30.94h-28.03v-23.7h28.02z" stroke="#fff" stroke-opacity="0" fill="#fff"/><path d="M928.45 237.3v6.25h1.6v-6.23c2.13-.4 3.62-2.2 3.63-4.35 0-2.43-1.97-4.4-4.4-4.43-2.2-.03-4.06 1.5-4.44 3.68-.4 2.4 1.2 4.68 3.6 5.1zm.82-7.15c.78 0 1.44.27 2 .82.54.56.82 1.22.8 2 .03 1.55-1.2 2.8-2.74 2.82h-.06c-1.56.1-2.92-1.06-3.04-2.62-.12-1.56 1.05-2.93 2.6-3.03.16-.02.28-.02.44 0z" stroke="#fff" stroke-opacity="0" fill="#fff"/><use xlink:href="#i" transform="matrix(1,0,0,1,972.25,220) translate(0 14.222222222222223)"/><use xlink:href="#e" transform="matrix(1,0,0,1,972.25,220) translate(64.14814814814815 14.222222222222223)"/><use xlink:href="#f" transform="matrix(1,0,0,1,972.25,220) translate(129.1358024691358 14.222222222222223)"/><use xlink:href="#j" transform="matrix(1,0,0,1,972.25,220) translate(143.9506172839506 14.222222222222223)"/><path d="M441.25 100H1340v337.2H441.25z" stroke="#248814" stroke-width="2" fill-opacity="0"/><path d="M441.25 100h56v56h-56v-56z" stroke="#fff" stroke-opacity="0" fill="#248814"/><path d="M473 128.3h-1.17v-1.1c-.12-1.73-1.48-3.07-3.2-3.2-1.9-.13-3.54 1.3-3.67 3.2v1.07h-1.18c-.44 0-.8.36-.8.8v6.13c0 .44.36.8.8.8H473c.45 0 .8-.36.8-.8v-6.1c0-.44-.35-.8-.8-.8zm-6.4-1.06c.1-1.02 1-1.77 2-1.67.9.08 1.6.77 1.68 1.67v1.06h-3.72zm5.66 7.08h-7.68v-4.42h7.63z" stroke="#fff" stroke-opacity="0" fill="#fff"/><path d="M483.52 125.74c-.08-2.44-1.58-4.47-3.87-5.3-1.58-.46-3.16-.13-4.4.9-.68-1.44-1.47-2.6-2.6-3.75-3.24-3.36-7.94-4.3-12.18-2.4-4.04 1.9-6.4 5.63-6.54 10.05v.7c-3.4.98-5.66 4.08-5.5 7.65v.63c.4 4.28 3.92 7.52 8.2 7.47h26s7.42-.63 7.42-8.1c.04-3.9-2.66-7.2-6.53-7.86zm-.96 14.4h-25.92c-3.46.05-6.3-2.53-6.58-5.97v-.52c-.16-3.05 1.92-5.7 4.9-6.3.4-.12.64-.48.6-.9-.05-.4-.05-.73 0-1.14.08-3.78 2.12-6.94 5.53-8.6 1.24-.56 2.4-.8 3.82-.84 2.62.08 4.87 1.04 6.7 2.94 1.25 1.3 2.04 2.6 2.62 4.3.04.15.12.28.25.37.36.27.86.2 1.1-.17.84-1.18 2.26-1.67 3.63-1.3 1.8.72 2.87 2.4 2.83 4.32-.08.4.2.82.63.9 3.56.36 6.2 3.55 5.8 7.12-.28 3.13-2.7 5.52-5.8 5.85z" stroke="#fff" stroke-opacity="0" fill="#fff"/><use xlink:href="#k" transform="matrix(1,0,0,1,512.25,120.00000000000011) translate(0 14.222222222222223)"/><use xlink:href="#l" transform="matrix(1,0,0,1,512.25,120.00000000000011) translate(0 33.777777777777786)"/><path d="M240 20h1140v540H240z" stroke="#232f3e" stroke-width="2" fill-opacity="0"/><path d="M240 20h56v56h-56V20z" stroke="#fff" stroke-opacity="0" fill="#232f3e"/><path d="M258.22 45.87c-.04.48.05.87.17 1.34.1.4.28.7.48 1.07.04.1.08.22.08.34 0 .2-.12.36-.28.46l-.95.62c-.12.08-.25.13-.37.13-.16 0-.33-.06-.45-.2-.2-.2-.36-.43-.52-.7-.17-.25-.3-.53-.46-.86-1.1 1.37-2.62 2.1-4.4 2.06-1.14.06-2.12-.3-2.95-1.08-.78-.8-1.15-1.76-1.1-2.85-.05-1.23.4-2.28 1.35-3.08 1.07-.85 2.3-1.23 3.66-1.16.57 0 1.02.02 1.6.1.57.1 1.1.2 1.72.33v-1.1c.08-.88-.16-1.67-.7-2.37-.74-.56-1.56-.8-2.46-.7-.53 0-1.03.07-1.6.2-.58.13-1.03.3-1.6.5l-.5.2h-.24c-.2 0-.33-.16-.33-.45v-.75c0-.18.04-.34.12-.5.12-.16.24-.26.4-.33.66-.3 1.2-.5 1.9-.67.77-.2 1.47-.3 2.3-.28 1.47-.13 2.78.26 3.9 1.2.94 1.05 1.35 2.28 1.22 3.67zm-6.07 2.28c.57 0 1.06-.1 1.6-.28.57-.2 1.02-.5 1.44-.96.23-.27.4-.56.48-.93.12-.45.16-.84.16-1.3V44c-.53-.1-.94-.17-1.43-.2H253c-.8-.08-1.55.12-2.2.58-.54.45-.8 1.04-.75 1.73-.04.6.13 1.16.54 1.6.44.38.97.52 1.55.45zm12 1.6c-.22 0-.42-.03-.6-.15-.15-.17-.23-.36-.32-.6l-3.5-11.5-.1-.62c0-.24.1-.37.36-.37h1.47c.2 0 .37.04.57.15.17.18.25.37.3.6l2.5 9.96 2.38-9.93c0-.24.08-.44.28-.6.17-.12.37-.16.58-.15h1.2c.24 0 .4.03.6.15.17.18.25.36.3.6l2.33 9.94 2.56-10c.04-.2.16-.4.33-.58.15-.1.36-.17.56-.14h1.4c.16 0 .33.1.37.3v.31s0 .2-.12.35L274 48.98c-.05.22-.13.42-.3.6-.2.1-.36.14-.57.13h-1.27c-.25.04-.45-.02-.62-.15-.16-.16-.25-.36-.3-.6l-2.3-9.6-2.3 9.6c-.03.24-.1.44-.27.6-.2.13-.4.2-.62.16zm19.2.38c-.82 0-1.5-.07-2.3-.25-.65-.13-1.14-.3-1.72-.6-.2-.1-.37-.23-.45-.42-.08-.14-.12-.28-.12-.43v-.75c0-.3.12-.46.32-.46h.3l.36.16c.58.23 1.03.4 1.6.5.62.14 1.15.2 1.8.2.8.05 1.5-.1 2.2-.5.48-.3.77-.8.72-1.4.05-.4-.12-.76-.36-1.04-.46-.4-.95-.65-1.52-.8l-2.18-.68c-.94-.25-1.73-.73-2.38-1.5-.5-.65-.74-1.35-.74-2.18 0-.6.12-1.08.4-1.6.3-.5.63-.9 1.08-1.22.5-.38.98-.6 1.6-.78.66-.18 1.2-.26 1.9-.25.32-.03.6-.03.97 0l1 .16.8.22.67.26c.16.1.28.22.45.38.08.15.12.3.12.5v.7c0 .32-.12.47-.37.47-.2-.03-.37-.08-.57-.18-.95-.42-1.8-.6-2.88-.58-.7-.04-1.3.1-1.97.4-.5.3-.74.8-.7 1.36 0 .4.13.76.46 1.05.5.4.98.65 1.6.82l2.1.67c.94.24 1.67.7 2.3 1.44.48.64.7 1.3.7 2.1 0 .63-.13 1.17-.38 1.73-.3.55-.62.95-1.1 1.32-.5.4-1 .66-1.6.84-.75.23-1.4.33-2.15.34zM286.1 57.48c-5.6 3.82-11.36 5.58-18.15 5.56-8.54.05-15.82-2.74-22.16-8.45-.5-.42 0-1 .48-.68 7.07 4.05 14.03 5.9 22.2 5.9 6.1-.04 11.3-1.1 16.93-3.47.83-.35 1.52.55.7 1.13z" stroke="#fff" stroke-opacity="0" fill="#fff"/><path d="M288.16 55.2c-.64-.82-4.16-.38-5.75-.2-.46 0-.53-.36-.1-.66 2.8-1.98 7.42-1.4 8-.74.6.67-.14 5.28-2.78 7.5-.4.32-.78.13-.6-.3.54-1.52 1.86-4.83 1.24-5.6z" stroke="#fff" stroke-opacity="0" fill="#fff"/><use xlink:href="#m" transform="matrix(1,0,0,1,311.0000000000001,40) translate(0 14.222222222222223)"/><use xlink:href="#n" transform="matrix(1,0,0,1,311.0000000000001,40) translate(45.333333333333336 14.222222222222223)"/><path d="M680 341.5c-22.08 0-40-17.9-40-40 0-22.07 17.92-40 40-40s40 17.93 40 40c0 22.1-17.92 40-40 40zm0-76.55c-20.24 0-36.56 16.32-36.56 36.56 0 20.25 16.32 36.57 36.56 36.57 20.24 0 36.56-16.32 36.56-36.56 0-20.23-16.32-36.55-36.56-36.55z" stroke="#fff" stroke-opacity="0" fill="#693cc5"/><path d="M684.8 323.96h-14.04v-3.42h12.33v-34.87h-12.34v-3.42h14.03c.93 0 1.7.75 1.7 1.7v38.3c0 .96-.77 1.7-1.7 1.7z" stroke="#fff" stroke-opacity="0" fill="#693cc5"/><path d="M670.42 301.4h30.3v3.4h-30.3v-3.4zM659.25 292.04c-.27 0-.5-.05-.73-.18-.6-.27-.97-.85-.97-1.52v-12.76c0-.68.36-1.25.97-1.54.6-.3 1.27-.22 1.8.2l7.97 6.4c.4.33.64.78.64 1.3 0 .55-.23 1.02-.65 1.34l-7.97 6.4c-.32.25-.67.36-1.08.36zm1.7-10.93v5.7l3.56-2.85zM659.25 311.2c-.27 0-.5-.06-.73-.2-.6-.26-.97-.84-.97-1.5v-12.77c0-.68.36-1.25.97-1.54.6-.3 1.27-.23 1.8.2l7.97 6.38c.4.34.64.8.64 1.32 0 .54-.23 1-.65 1.33l-7.97 6.4c-.32.25-.67.36-1.08.36zm1.7-10.94v5.7l3.56-2.86z" stroke="#fff" stroke-opacity="0" fill="#693cc5"/><path d="M702.33 312.77c-.23 0-.42-.04-.64-.1-.67-.28-1.07-.88-1.07-1.6V295.1c0-.92.75-1.7 1.7-1.7.46 0 .87.18 1.22.5l7.98 8c.65.67.65 1.73 0 2.4l-7.98 8c-.35.32-.74.47-1.22.47zm1.7-13.6v7.74l3.9-3.87zM659.26 328.74c-.28 0-.5-.05-.74-.18-.6-.27-.97-.86-.97-1.52v-12.76c0-.96.75-1.72 1.7-1.72.4 0 .76.13 1.08.4l7.96 6.36c.72.6.84 1.67.25 2.4-.08.1-.16.18-.26.26l-7.97 6.4c-.32.25-.68.36-1.07.36zm1.7-10.94v5.7l3.55-2.85z" stroke="#fff" stroke-opacity="0" fill="#693cc5"/><use xlink:href="#o" transform="matrix(1,0,0,1,610,350.50531892601987) translate(14.299999999999997 14.4)"/><use xlink:href="#p" transform="matrix(1,0,0,1,610,350.50531892601987) translate(54.800000000000004 14.4)"/><use xlink:href="#q" transform="matrix(1,0,0,1,610,350.50531892601987) translate(27.5 36)"/><path d="M1112.18 332.18h-64.36v-64.36h64.36zm-61.02-3.34h57.68v-57.68h-57.68z" stroke="#fff" stroke-opacity="0" fill="#d86613"/><path d="M1057.02 260h3.33v9.48h-3.33V260zM1067.47 260h3.33v9.48h-3.33V260zM1077.93 260h3.34v9.48h-3.34V260zM1088.4 260h3.33v9.48h-3.33V260zM1098.87 260h3.33v9.48h-3.33V260zM1057.02 330.52h3.33V340h-3.33v-9.48zM1067.47 330.52h3.33V340h-3.33v-9.48zM1077.93 330.52h3.34V340h-3.34v-9.48zM1088.4 330.52h3.33V340h-3.33v-9.48zM1098.87 330.52h3.33V340h-3.33v-9.48zM1110.52 277.42h9.48v3.33h-9.48v-3.33zM1110.52 287.87h9.48v3.33h-9.48v-3.33zM1110.52 298.33h9.48v3.34h-9.48v-3.34zM1110.52 308.8h9.48v3.33h-9.48v-3.33zM1110.52 319.25h9.48v3.33h-9.48v-3.33zM1040 277.42h9.48v3.33H1040v-3.33zM1040 287.87h9.48v3.33H1040v-3.33zM1040 298.33h9.48v3.34H1040v-3.34zM1040 308.8h9.48v3.33H1040v-3.33zM1040 319.25h9.48v3.33H1040v-3.33z" stroke="#fff" stroke-opacity="0" fill="#d86613"/><use xlink:href="#r" transform="matrix(1,0,0,1,1010,349) translate(33.574999999999996 14.4)"/><use xlink:href="#s" transform="matrix(1,0,0,1,1010,349) translate(17.5 36)"/><path d="M453.42 466.83c-18.45 0-33.42-14.97-33.42-33.4 0-18.46 14.97-33.43 33.42-33.43 18.44 0 33.4 14.97 33.4 33.42 0 18.44-14.96 33.4-33.4 33.4zm0-63.96c-16.9 0-30.55 13.64-30.55 30.55 0 16.9 13.64 30.54 30.55 30.54 16.9 0 30.54-13.64 30.54-30.54s-13.64-30.55-30.54-30.55z" stroke="#fff" stroke-opacity="0" fill="#693cc5"/><path d="M469.4 453.5h-5.32c-.8 0-1.43-.64-1.43-1.43V424.5c-2.9-1.5-5.65-2.18-8.9-2.25-3.54.07-6.5.86-9.64 2.56v27.27c0 .8-.6 1.42-1.38 1.42h-5.3c-.8 0-1.42-.64-1.42-1.43v-31c0-.44.17-.8.48-1.07 5.1-4.2 10.73-6.12 17.28-5.96 6.2-.12 11.53 1.62 16.52 5.3.38.26.55.66.55 1.1v31.63c0 .8-.62 1.42-1.42 1.42zm-3.9-2.85h2.48v-29.5c-4.36-3-8.92-4.35-14.22-4.27-5.6-.16-10.45 1.42-14.9 4.8v28.97h2.43V423.9c0-.55.27-1.02.76-1.26 3.76-2.13 7.38-3.16 11.7-3.24 3.94.12 7.28 1 10.77 2.85h.14c.52.23.83.7.83 1.3z" stroke="#fff" stroke-opacity="0" fill="#693cc5"/><use xlink:href="#t" transform="matrix(1,0,0,1,389.99999999999994,475.83036520329057) translate(31.00617283950617 14.222222222222223)"/><use xlink:href="#u" transform="matrix(1,0,0,1,389.99999999999994,475.83036520329057) translate(26.981481481481474 35.55555555555556)"/><path d="M100.8 549.5c-21.9 16.9-53.3 13-70.3-8.9-16.9-21.9-13-53.3 8.9-70.3l.5-.3c22.2-16.6 53.6-12 70.1 10.1 16.3 21.9 12.2 52.6-9.2 69.4" stroke="#000" stroke-opacity="0" fill="url(#v)"/><path d="M70.1 464.6c-25.02 0-45.3 20.28-45.3 45.3 0 25 20.28 45.3 45.3 45.3 25 0 45.3-20.3 45.3-45.3 0-25.02-20.3-45.3-45.3-45.3zm30.34 15.2c-4.17 2.37-7.97 3.82-12.68 4.72-1.63-5.98-3.8-10.78-7.34-15.85 7.88 1.9 14.22 5.43 20.02 11.14zM70.1 467.14c2.25 0 4.16.18 6.42.54 4.53 5.35 7.34 10.87 8.97 17.67-11.15 2-20.94 2-32.08 0 1.72-6.7 4.44-12.05 8.88-17.3 2.72-.55 5.07-.82 7.8-.9zm-11.8 1.54c-3.52 5.07-5.8 9.78-7.5 15.76-4.18-.8-7.53-2.26-11.15-4.53 5.43-5.53 11.23-9.06 18.66-11.23zM39 539.34c3.37-2.27 6.54-3.63 10.43-4.44 1.54 6.16 4 11.05 7.98 16.03-7.33-2.35-13.13-5.98-18.4-11.6zm37.7 12.95c-2.26.35-4.25.44-6.6.35-3 0-5.54-.27-8.53-.9-5.16-5-8.24-10.6-9.78-17.67 11.95-2.45 22.55-2.45 34.6 0-1.54 7.07-4.7 12.68-9.97 17.67zm4.35-.92c4.08-5.07 6.62-10.14 8.16-16.48 4.36 1 7.9 2.44 11.78 4.9-5.7 5.8-12.05 9.4-19.93 11.3zm8.7-19.02c.45-2.1.9-4.26 1.18-6.52l-2.72.63c-.26 1.8-.53 3.62-1 5.35-12.4-2.54-23.36-2.54-35.86 0-.37-1.64-.73-3.36-1-5.08v-.54l-2.72-.73v1.63c0 1.9.64 3.63 1 5.35-4.35 1-7.98 2.54-11.78 4.98-13.5-16.2-13.23-39.4.63-55.35 4 2.53 7.7 4.07 12.33 5.07-.46 1.45-.82 3-1.1 4.44-.26 1.53 0 1.53-.44 2.16l2.7-.63v-1c.38-1.54.74-3 1.2-4.35 6.24 1.1 11.6 1.54 17.93 1.36 5.8 0 10.68-.45 16.4-1.54.35 1.63.8 3.35 1.17 5l2.7.7c-.44-2.16-.9-4.07-1.44-5.88 5.08-1.18 9.16-2.72 13.6-5.43 14.13 16.1 14.3 39.67.36 55.9-4.27-2.73-8.26-4.45-13.15-5.72z" stroke="#000" stroke-opacity="0" fill="#5ea0ef"/><path d="M38.86 498.13c2.38-.36 4.43-.48 6.85-.48 3.8-.3 7.12.7 10.1 3.07 2.37 2.35 3.54 5.23 3.48 8.58.18 3.72-1.03 6.97-3.6 9.68-3.2 2.67-6.8 3.87-10.98 3.57-2.07.02-3.83-.07-5.9-.27zm3.24 21.94c1.15.1 2.1.1 3.26 0 .78.1 1.46.1 2.25 0 5.24-.65 8.97-5.42 8.32-10.65.06-.72.04-1.35-.06-2.07-.7-4.83-5.2-8.18-10.03-7.45-1.3-.15-2.42-.15-3.73 0zM63.4 522.32V497.5h3.48l7.95 12.38c1.76 2.75 3.1 5.14 4.48 8.07-.3-3.3-.34-6.3-.34-10.2V497.5h2.94v24.82h-3.24l-7.8-12.45c-1.7-2.77-3.33-5.9-4.63-8.25V522.5zM87.1 518.45c1.88 1.1 3.72 1.6 5.88 1.6 3.3 0 5.18-1.7 5.18-4.24 0-2.52-1.3-3.65-4.64-4.88-3.36-1.22-6.6-3.53-6.6-7.06.24-3.94 3.63-6.96 7.6-6.76.16.03.3.03.47.05 1.97-.05 3.67.3 5.45 1.18l-.93 2.66c-1.5-.85-2.98-1.2-4.7-1.2-3.42 0-4.72 2-4.72 3.7 0 1.72 1.53 3.48 4.94 4.8 3.42 1.27 6.36 3.62 6.36 7.28 0 3.64-2.82 7.12-8.7 7.12-2.3.03-4.28-.46-6.3-1.6z" stroke="#000" stroke-opacity="0" fill="#fff"/><g><use xlink:href="#w" transform="matrix(1,0,0,1,-10,569) translate(12.5 14.4)"/><use xlink:href="#x" transform="matrix(1,0,0,1,-10,569) translate(93.60000000000001 14.4)"/><use xlink:href="#y" transform="matrix(1,0,0,1,-10,569) translate(61.05 36)"/><use xlink:href="#z" transform="matrix(1,0,0,1,-10,569) translate(52.5 57.6)"/></g><path d="M473.5 388.3v-74.8a12 12 0 0 1 12-12h136" stroke="#333" stroke-width="2" fill="none"/><path d="M473.5 403.57l-4.65-14.26h9.27zM636.76 301.5l-14.26 4.64v-9.27z" stroke="#333" stroke-width="2" fill="#333"/><path d="M738.5 301.5h283" stroke="#333" stroke-width="2" fill="none"/><path d="M723.24 301.5l14.26-4.63v9.27zM1036.76 301.5l-14.26 4.64v-9.27z" stroke="#333" stroke-width="2" fill="#333"/><path d="M138.46 509.56l13.42-.84 13.14-1.37 11.87-1.75 10.94-2.1 10.3-2.4 9.95-2.78 9.9-3.22 10.3-3.83 11.6-4.9 16.7-7.9 43.45-21.43 11.6-4.9 10.32-3.83 9.9-3.2 9.94-2.78 10.32-2.42 10.95-2.08 11.87-1.75 13.14-1.38 13.42-.85" stroke="#333" stroke-width="2" stroke-linejoin="round" fill="none"/><path d="M123.2 509.92l14.15-4.97.22 9.27zM416.76 433.5l-14.15 4.96-.2-9.27z" stroke="#333" stroke-width="2" fill="#333"/><defs><path fill="#666" d="M199 0l-22-63H83L61 0H9l90-248h61L250 0h-51zm-33-102l-36-108c-10 38-24 72-36 108h72" id="A"/><path fill="#666" d="M128 0H69L1-190h53L99-40l48-150h52" id="B"/><path fill="#666" d="M133-34C117-15 103 5 69 4 32 3 11-16 11-54c-1-60 55-63 116-61 1-26-3-47-28-47-18 1-26 9-28 27l-52-2c7-38 36-58 82-57s74 22 75 68l1 82c-1 14 12 18 25 15v27c-30 8-71 5-69-32zm-48 3c29 0 43-24 42-57-32 0-66-3-65 30 0 17 8 27 23 27" id="C"/><path fill="#666" d="M25-224v-37h50v37H25zM25 0v-190h50V0H25" id="D"/><path fill="#666" d="M25 0v-261h50V0H25" id="E"/><path fill="#666" d="M135-194c52 0 70 43 70 98 0 56-19 99-73 100-30 1-46-15-58-35L72 0H24l1-261h50v104c11-23 29-37 60-37zM114-30c31 0 40-27 40-66 0-37-7-63-39-63s-41 28-41 65c0 36 8 64 40 64" id="F"/><path fill="#666" d="M115-3C79 11 28 4 28-45v-112H4v-33h27l15-45h31v45h36v33H77v99c-1 23 16 31 38 25v30" id="G"/><path fill="#666" d="M123 10C108 53 80 86 19 72V37c35 8 53-11 59-39L3-190h52l48 148c12-52 28-100 44-148h51" id="H"/><g id="a"><use transform="matrix(0.04938271604938272,0,0,0.04938271604938272,0,0)" xlink:href="#A"/><use transform="matrix(0.04938271604938272,0,0,0.04938271604938272,12.14814814814815,0)" xlink:href="#B"/><use transform="matrix(0.04938271604938272,0,0,0.04938271604938272,22.024691358024697,0)" xlink:href="#C"/><use transform="matrix(0.04938271604938272,0,0,0.04938271604938272,31.90123456790124,0)" xlink:href="#D"/><use transform="matrix(0.04938271604938272,0,0,0.04938271604938272,36.83950617283951,0)" xlink:href="#E"/><use transform="matrix(0.04938271604938272,0,0,0.04938271604938272,41.777777777777786,0)" xlink:href="#C"/><use transform="matrix(0.04938271604938272,0,0,0.04938271604938272,51.65432098765432,0)" xlink:href="#F"/><use transform="matrix(0.04938271604938272,0,0,0.04938271604938272,62.469135802469154,0)" xlink:href="#D"/><use transform="matrix(0.04938271604938272,0,0,0.04938271604938272,67.40740740740742,0)" xlink:href="#E"/><use transform="matrix(0.04938271604938272,0,0,0.04938271604938272,72.3456790123457,0)" xlink:href="#D"/><use transform="matrix(0.04938271604938272,0,0,0.04938271604938272,77.28395061728398,0)" xlink:href="#G"/><use transform="matrix(0.04938271604938272,0,0,0.04938271604938272,83.16049382716052,0)" xlink:href="#H"/></g><path fill="#666" d="M210 0H11v-37l134-170H24v-41h178v36L68-41h142V0" id="I"/><path fill="#666" d="M110-194c64 0 96 36 96 99 0 64-35 99-97 99-61 0-95-36-95-99 0-62 34-99 96-99zm-1 164c35 0 45-28 45-65 0-40-10-65-43-65-34 0-45 26-45 65 0 36 10 65 43 65" id="J"/><path fill="#666" d="M135-194c87-1 58 113 63 194h-50c-7-57 23-157-34-157-59 0-34 97-39 157H25l-1-190h47c2 12-1 28 3 38 12-26 28-41 61-42" id="K"/><path fill="#666" d="M185-48c-13 30-37 53-82 52C43 2 14-33 14-96s30-98 90-98c62 0 83 45 84 108H66c0 31 8 55 39 56 18 0 30-7 34-22zm-45-69c5-46-57-63-70-21-2 6-4 13-4 21h74" id="L"/><g id="b"><use transform="matrix(0.04938271604938272,0,0,0.04938271604938272,0,0)" xlink:href="#I"/><use transform="matrix(0.04938271604938272,0,0,0.04938271604938272,10.814814814814815,0)" xlink:href="#J"/><use transform="matrix(0.04938271604938272,0,0,0.04938271604938272,21.62962962962963,0)" xlink:href="#K"/><use transform="matrix(0.04938271604938272,0,0,0.04938271604938272,32.44444444444444,0)" xlink:href="#L"/></g><use transform="matrix(0.04938271604938272,0,0,0.04938271604938272,0,0)" xlink:href="#A" id="c"/><path fill="#666" d="M24-248c93 1 206-16 204 79-1 75-69 88-152 82V0H24v-248zm52 121c47 0 100 7 100-41 0-47-54-39-100-39v80" id="M"/><path fill="#666" d="M85 4C-2 5 27-109 22-190h50c7 57-23 150 33 157 60-5 35-97 40-157h50l1 190h-47c-2-12 1-28-3-38-12 25-28 42-61 42" id="N"/><path fill="#666" d="M190-63c-7 42-38 67-86 67-59 0-84-38-90-98-12-110 154-137 174-36l-49 2c-2-19-15-32-35-32-30 0-35 28-38 64-6 74 65 87 74 30" id="O"/><g id="d"><use transform="matrix(0.04938271604938272,0,0,0.04938271604938272,0,0)" xlink:href="#M"/><use transform="matrix(0.04938271604938272,0,0,0.04938271604938272,11.851851851851853,0)" xlink:href="#N"/><use transform="matrix(0.04938271604938272,0,0,0.04938271604938272,22.666666666666668,0)" xlink:href="#F"/><use transform="matrix(0.04938271604938272,0,0,0.04938271604938272,33.48148148148148,0)" xlink:href="#E"/><use transform="matrix(0.04938271604938272,0,0,0.04938271604938272,38.41975308641975,0)" xlink:href="#D"/><use transform="matrix(0.04938271604938272,0,0,0.04938271604938272,43.358024691358025,0)" xlink:href="#O"/></g><path fill="#666" d="M169-182c-1-43-94-46-97-3 18 66 151 10 154 114 3 95-165 93-204 36-6-8-10-19-12-30l50-8c3 46 112 56 116 5-17-69-150-10-154-114-4-87 153-88 188-35 5 8 8 18 10 28" id="P"/><g id="e"><use transform="matrix(0.04938271604938272,0,0,0.04938271604938272,0,0)" xlink:href="#P"/><use transform="matrix(0.04938271604938272,0,0,0.04938271604938272,11.851851851851853,0)" xlink:href="#N"/><use transform="matrix(0.04938271604938272,0,0,0.04938271604938272,22.666666666666668,0)" xlink:href="#F"/><use transform="matrix(0.04938271604938272,0,0,0.04938271604938272,33.48148148148148,0)" xlink:href="#K"/><use transform="matrix(0.04938271604938272,0,0,0.04938271604938272,44.2962962962963,0)" xlink:href="#L"/><use transform="matrix(0.04938271604938272,0,0,0.04938271604938272,54.17283950617284,0)" xlink:href="#G"/></g><path fill="#666" d="M23 0v-37h61v-169l-59 37v-38l62-41h46v211h57V0H23" id="Q"/><use transform="matrix(0.04938271604938272,0,0,0.04938271604938272,0,0)" xlink:href="#Q" id="f"/><path fill="#666" d="M14-72v-43h91v43H14" id="R"/><use transform="matrix(0.04938271604938272,0,0,0.04938271604938272,0,0)" xlink:href="#R" id="g"/><path fill="#666" d="M101-251c68 0 84 54 84 127C185-50 166 4 99 4S15-52 14-124c-1-75 17-127 87-127zm-1 216c37-5 36-46 36-89s4-89-36-89c-39 0-36 45-36 89 0 43-3 85 36 89" id="S"/><path fill="#666" d="M24 0v-54h51V0H24" id="T"/><path fill="#666" d="M4 7l51-268h42L46 7H4" id="U"/><path fill="#666" d="M182-182c0 78-84 86-111 141h115V0H12c-6-101 99-100 120-180 1-22-12-31-33-32-23 0-32 14-35 34l-49-3c5-45 32-70 84-70 51 0 83 22 83 69" id="V"/><g id="h"><use transform="matrix(0.04938271604938272,0,0,0.04938271604938272,0,0)" xlink:href="#Q"/><use transform="matrix(0.04938271604938272,0,0,0.04938271604938272,9.876543209876544,0)" xlink:href="#S"/><use transform="matrix(0.04938271604938272,0,0,0.04938271604938272,19.75308641975309,0)" xlink:href="#T"/><use transform="matrix(0.04938271604938272,0,0,0.04938271604938272,24.69135802469136,0)" xlink:href="#S"/><use transform="matrix(0.04938271604938272,0,0,0.04938271604938272,34.567901234567906,0)" xlink:href="#T"/><use transform="matrix(0.04938271604938272,0,0,0.04938271604938272,39.50617283950618,0)" xlink:href="#S"/><use transform="matrix(0.04938271604938272,0,0,0.04938271604938272,49.38271604938272,0)" xlink:href="#T"/><use transform="matrix(0.04938271604938272,0,0,0.04938271604938272,54.320987654320994,0)" xlink:href="#S"/><use transform="matrix(0.04938271604938272,0,0,0.04938271604938272,64.19753086419755,0)" xlink:href="#U"/><use transform="matrix(0.04938271604938272,0,0,0.04938271604938272,69.13580246913583,0)" xlink:href="#V"/><use transform="matrix(0.04938271604938272,0,0,0.04938271604938272,79.01234567901237,0)" xlink:href="#S"/></g><path fill="#666" d="M135-150c-39-12-60 13-60 57V0H25l-1-190h47c2 13-1 29 3 40 6-28 27-53 61-41v41" id="W"/><g id="i"><use transform="matrix(0.04938271604938272,0,0,0.04938271604938272,0,0)" xlink:href="#M"/><use transform="matrix(0.04938271604938272,0,0,0.04938271604938272,11.851851851851853,0)" xlink:href="#W"/><use transform="matrix(0.04938271604938272,0,0,0.04938271604938272,18.765432098765434,0)" xlink:href="#D"/><use transform="matrix(0.04938271604938272,0,0,0.04938271604938272,23.703703703703706,0)" xlink:href="#B"/><use transform="matrix(0.04938271604938272,0,0,0.04938271604938272,33.580246913580254,0)" xlink:href="#C"/><use transform="matrix(0.04938271604938272,0,0,0.04938271604938272,43.4567901234568,0)" xlink:href="#G"/><use transform="matrix(0.04938271604938272,0,0,0.04938271604938272,49.33333333333334,0)" xlink:href="#L"/></g><path fill="#666" d="M138-131c27 9 52 24 51 61 0 53-36 74-89 74S11-19 11-69c0-35 22-54 51-61-78-25-46-121 38-121 51 0 83 19 83 66 0 30-18 49-45 54zm-38-16c24 0 32-13 32-36 1-23-11-34-32-34-22 0-33 12-32 34 0 22 9 36 32 36zm1 116c27 0 37-17 37-43 0-25-13-39-39-39-24 0-37 15-37 40 0 27 11 42 39 42" id="X"/><g id="j"><use transform="matrix(0.04938271604938272,0,0,0.04938271604938272,0,0)" xlink:href="#R"/><use transform="matrix(0.04938271604938272,0,0,0.04938271604938272,5.8765432098765435,0)" xlink:href="#Q"/><use transform="matrix(0.04938271604938272,0,0,0.04938271604938272,15.753086419753087,0)" xlink:href="#S"/><use transform="matrix(0.04938271604938272,0,0,0.04938271604938272,25.629629629629633,0)" xlink:href="#T"/><use transform="matrix(0.04938271604938272,0,0,0.04938271604938272,30.567901234567906,0)" xlink:href="#S"/><use transform="matrix(0.04938271604938272,0,0,0.04938271604938272,40.44444444444445,0)" xlink:href="#T"/><use transform="matrix(0.04938271604938272,0,0,0.04938271604938272,45.38271604938272,0)" xlink:href="#Q"/><use transform="matrix(0.04938271604938272,0,0,0.04938271604938272,55.25925925925927,0)" xlink:href="#V"/><use transform="matrix(0.04938271604938272,0,0,0.04938271604938272,65.13580246913581,0)" xlink:href="#X"/><use transform="matrix(0.04938271604938272,0,0,0.04938271604938272,75.01234567901236,0)" xlink:href="#T"/><use transform="matrix(0.04938271604938272,0,0,0.04938271604938272,79.95061728395063,0)" xlink:href="#S"/><use transform="matrix(0.04938271604938272,0,0,0.04938271604938272,89.82716049382718,0)" xlink:href="#U"/><use transform="matrix(0.04938271604938272,0,0,0.04938271604938272,94.76543209876544,0)" xlink:href="#V"/><use transform="matrix(0.04938271604938272,0,0,0.04938271604938272,104.64197530864199,0)" xlink:href="#S"/></g><path fill="#666" d="M147 0H94L2-248h55l64 206c17-72 42-137 63-206h54" id="Y"/><path fill="#666" d="M67-125c0 53 21 87 73 88 37 1 54-22 65-47l45 17C233-25 199 4 140 4 58 4 20-42 15-125 8-235 124-281 211-232c18 10 29 29 36 50l-46 12c-8-25-30-41-62-41-52 0-71 34-72 86" id="Z"/><g id="k"><use transform="matrix(0.04938271604938272,0,0,0.04938271604938272,0,0)" xlink:href="#Y"/><use transform="matrix(0.04938271604938272,0,0,0.04938271604938272,11.851851851851853,0)" xlink:href="#M"/><use transform="matrix(0.04938271604938272,0,0,0.04938271604938272,23.703703703703706,0)" xlink:href="#Z"/></g><path fill="#666" d="M27 0v-27h64v-190l-56 39v-29l58-41h29v221h61V0H27" id="aa"/><path fill="#666" d="M101-251c68 0 85 55 85 127S166 4 100 4C33 4 14-52 14-124c0-73 17-127 87-127zm-1 229c47 0 54-49 54-102s-4-102-53-102c-51 0-55 48-55 102 0 53 5 102 54 102" id="ab"/><path fill="#666" d="M33 0v-38h34V0H33" id="ac"/><path fill="#666" d="M0 4l72-265h28L28 4H0" id="ad"/><path fill="#666" d="M110-160c48 1 74 30 74 79 0 53-28 85-80 85-65 0-83-55-86-122-5-90 50-162 133-122 14 7 22 21 27 39l-31 6c-5-40-67-38-82-6-9 19-15 44-15 74 11-20 30-34 60-33zm-7 138c34 0 49-23 49-58s-16-56-50-56c-29 0-50 16-49 49 1 36 15 65 50 65" id="ae"/><g id="l"><use transform="matrix(0.04320987654320988,0,0,0.04320987654320988,0,0)" xlink:href="#aa"/><use transform="matrix(0.04320987654320988,0,0,0.04320987654320988,8.641975308641976,0)" xlink:href="#ab"/><use transform="matrix(0.04320987654320988,0,0,0.04320987654320988,17.283950617283953,0)" xlink:href="#ac"/><use transform="matrix(0.04320987654320988,0,0,0.04320987654320988,21.60493827160494,0)" xlink:href="#ab"/><use transform="matrix(0.04320987654320988,0,0,0.04320987654320988,30.24691358024692,0)" xlink:href="#ac"/><use transform="matrix(0.04320987654320988,0,0,0.04320987654320988,34.567901234567906,0)" xlink:href="#ab"/><use transform="matrix(0.04320987654320988,0,0,0.04320987654320988,43.20987654320988,0)" xlink:href="#ac"/><use transform="matrix(0.04320987654320988,0,0,0.04320987654320988,47.53086419753087,0)" xlink:href="#ab"/><use transform="matrix(0.04320987654320988,0,0,0.04320987654320988,56.17283950617284,0)" xlink:href="#ad"/><use transform="matrix(0.04320987654320988,0,0,0.04320987654320988,60.49382716049384,0)" xlink:href="#aa"/><use transform="matrix(0.04320987654320988,0,0,0.04320987654320988,69.13580246913581,0)" xlink:href="#ae"/></g><path fill="#666" d="M275 0h-61l-44-196L126 0H64L0-248h53L97-49l45-199h58l43 199 44-199h52" id="af"/><g id="m"><use transform="matrix(0.04938271604938272,0,0,0.04938271604938272,0,0)" xlink:href="#A"/><use transform="matrix(0.04938271604938272,0,0,0.04938271604938272,11.80246913580247,0)" xlink:href="#af"/><use transform="matrix(0.04938271604938272,0,0,0.04938271604938272,28.543209876543205,0)" xlink:href="#P"/></g><path fill="#666" d="M88-194c31-1 46 15 58 34l-1-101h50l1 261h-48c-2-10 0-23-3-31C134-8 116 4 84 4 32 4 16-41 15-95c0-56 19-97 73-99zm17 164c33 0 40-30 41-66 1-37-9-64-41-64s-38 30-39 65c0 43 13 65 39 65" id="ag"/><g id="n"><use transform="matrix(0.04938271604938272,0,0,0.04938271604938272,0,0)" xlink:href="#Z"/><use transform="matrix(0.04938271604938272,0,0,0.04938271604938272,12.790123456790125,0)" xlink:href="#E"/><use transform="matrix(0.04938271604938272,0,0,0.04938271604938272,17.7283950617284,0)" xlink:href="#J"/><use transform="matrix(0.04938271604938272,0,0,0.04938271604938272,28.54320987654322,0)" xlink:href="#N"/><use transform="matrix(0.04938271604938272,0,0,0.04938271604938272,39.35802469135803,0)" xlink:href="#ag"/></g><path fill="#6f7681" d="M175 0L67-191c6 58 2 128 3 191H24v-248h59L193-55c-6-58-2-129-3-193h46V0h-61" id="ah"/><path fill="#6f7681" d="M199 0l-22-63H83L61 0H9l90-248h61L250 0h-51zm-33-102l-36-108c-10 38-24 72-36 108h72" id="ai"/><path fill="#6f7681" d="M136-208V0H84v-208H4v-40h212v40h-80" id="aj"/><g id="o"><use transform="matrix(0.05,0,0,0.05,0,0)" xlink:href="#ah"/><use transform="matrix(0.05,0,0,0.05,12.950000000000001,0)" xlink:href="#ai"/><use transform="matrix(0.05,0,0,0.05,24.550000000000004,0)" xlink:href="#aj"/></g><path fill="#6f7681" d="M195-6C206 82 75 100 31 46c-4-6-6-13-8-21l49-6c3 16 16 24 34 25 40 0 42-37 40-79-11 22-30 35-61 35-53 0-70-43-70-97 0-56 18-96 73-97 30 0 46 14 59 34l2-30h47zm-90-29c32 0 41-27 41-63 0-35-9-62-40-62-32 0-39 29-40 63 0 36 9 62 39 62" id="ak"/><path fill="#6f7681" d="M133-34C117-15 103 5 69 4 32 3 11-16 11-54c-1-60 55-63 116-61 1-26-3-47-28-47-18 1-26 9-28 27l-52-2c7-38 36-58 82-57s74 22 75 68l1 82c-1 14 12 18 25 15v27c-30 8-71 5-69-32zm-48 3c29 0 43-24 42-57-32 0-66-3-65 30 0 17 8 27 23 27" id="al"/><path fill="#6f7681" d="M115-3C79 11 28 4 28-45v-112H4v-33h27l15-45h31v45h36v33H77v99c-1 23 16 31 38 25v30" id="am"/><path fill="#6f7681" d="M185-48c-13 30-37 53-82 52C43 2 14-33 14-96s30-98 90-98c62 0 83 45 84 108H66c0 31 8 55 39 56 18 0 30-7 34-22zm-45-69c5-46-57-63-70-21-2 6-4 13-4 21h74" id="an"/><path fill="#6f7681" d="M231 0h-52l-39-155L100 0H48L-1-190h46L77-45c9-52 24-97 36-145h53l37 145 32-145h46" id="ao"/><path fill="#6f7681" d="M123 10C108 53 80 86 19 72V37c35 8 53-11 59-39L3-190h52l48 148c12-52 28-100 44-148h51" id="ap"/><g id="p"><use transform="matrix(0.05,0,0,0.05,0,0)" xlink:href="#ak"/><use transform="matrix(0.05,0,0,0.05,10.950000000000001,0)" xlink:href="#al"/><use transform="matrix(0.05,0,0,0.05,20.950000000000003,0)" xlink:href="#am"/><use transform="matrix(0.05,0,0,0.05,26.900000000000002,0)" xlink:href="#an"/><use transform="matrix(0.05,0,0,0.05,36.900000000000006,0)" xlink:href="#ao"/><use transform="matrix(0.05,0,0,0.05,50.900000000000006,0)" xlink:href="#al"/><use transform="matrix(0.05,0,0,0.05,60.900000000000006,0)" xlink:href="#ap"/></g><path fill="#6f7681" d="M23 0v-37h61v-169l-59 37v-38l62-41h46v211h57V0H23" id="aq"/><path fill="#6f7681" d="M101-251c68 0 84 54 84 127C185-50 166 4 99 4S15-52 14-124c-1-75 17-127 87-127zm-1 216c37-5 36-46 36-89s4-89-36-89c-39 0-36 45-36 89 0 43-3 85 36 89" id="ar"/><path fill="#6f7681" d="M24 0v-54h51V0H24" id="as"/><path fill="#6f7681" d="M138-131c27 9 52 24 51 61 0 53-36 74-89 74S11-19 11-69c0-35 22-54 51-61-78-25-46-121 38-121 51 0 83 19 83 66 0 30-18 49-45 54zm-38-16c24 0 32-13 32-36 1-23-11-34-32-34-22 0-33 12-32 34 0 22 9 36 32 36zm1 116c27 0 37-17 37-43 0-25-13-39-39-39-24 0-37 15-37 40 0 27 11 42 39 42" id="at"/><path fill="#6f7681" d="M165-50V0h-47v-50H5v-38l105-160h55v161h33v37h-33zm-47-37l2-116L46-87h72" id="au"/><path fill="#6f7681" d="M128-127c34 4 56 21 59 58 7 91-148 94-172 28-4-9-6-17-7-26l51-5c1 24 16 35 40 36 23 0 39-12 38-36-1-31-31-36-65-34v-40c32 2 59-3 59-33 0-20-13-33-34-33s-33 13-35 32l-50-3c6-44 37-68 86-68 50 0 83 20 83 66 0 35-22 52-53 58" id="av"/><g id="q"><use transform="matrix(0.05,0,0,0.05,0,0)" xlink:href="#aq"/><use transform="matrix(0.05,0,0,0.05,10,0)" xlink:href="#ar"/><use transform="matrix(0.05,0,0,0.05,20,0)" xlink:href="#as"/><use transform="matrix(0.05,0,0,0.05,25,0)" xlink:href="#ar"/><use transform="matrix(0.05,0,0,0.05,35,0)" xlink:href="#as"/><use transform="matrix(0.05,0,0,0.05,40,0)" xlink:href="#at"/><use transform="matrix(0.05,0,0,0.05,50,0)" xlink:href="#as"/><use transform="matrix(0.05,0,0,0.05,55,0)" xlink:href="#aq"/><use transform="matrix(0.05,0,0,0.05,65,0)" xlink:href="#au"/><use transform="matrix(0.05,0,0,0.05,75,0)" xlink:href="#av"/></g><path fill="#6f7681" d="M24 0v-248h52V0H24" id="aw"/><path fill="#6f7681" d="M135-194c87-1 58 113 63 194h-50c-7-57 23-157-34-157-59 0-34 97-39 157H25l-1-190h47c2 12-1 28 3 38 12-26 28-41 61-42" id="ax"/><path fill="#6f7681" d="M137-138c1-29-70-34-71-4 15 46 118 7 119 86 1 83-164 76-172 9l43-7c4 19 20 25 44 25 33 8 57-30 24-41C81-84 22-81 20-136c-2-80 154-74 161-7" id="ay"/><path fill="#6f7681" d="M190-63c-7 42-38 67-86 67-59 0-84-38-90-98-12-110 154-137 174-36l-49 2c-2-19-15-32-35-32-30 0-35 28-38 64-6 74 65 87 74 30" id="az"/><g id="r"><use transform="matrix(0.05,0,0,0.05,0,0)" xlink:href="#aw"/><use transform="matrix(0.05,0,0,0.05,5,0)" xlink:href="#ax"/><use transform="matrix(0.05,0,0,0.05,15.950000000000001,0)" xlink:href="#ay"/><use transform="matrix(0.05,0,0,0.05,25.950000000000003,0)" xlink:href="#am"/><use transform="matrix(0.05,0,0,0.05,31.900000000000002,0)" xlink:href="#al"/><use transform="matrix(0.05,0,0,0.05,41.900000000000006,0)" xlink:href="#ax"/><use transform="matrix(0.05,0,0,0.05,52.85,0)" xlink:href="#az"/><use transform="matrix(0.05,0,0,0.05,62.85,0)" xlink:href="#an"/></g><path fill="#6f7681" d="M182-182c0 78-84 86-111 141h115V0H12c-6-101 99-100 120-180 1-22-12-31-33-32-23 0-32 14-35 34l-49-3c5-45 32-70 84-70 51 0 83 22 83 69" id="aA"/><path fill="#6f7681" d="M139-81c0-46-55-55-73-27H18l9-140h149v37H72l-4 63c44-38 133-4 122 66C201 21 21 35 11-62l49-4c5 18 15 30 39 30 26 0 40-18 40-45" id="aB"/><g id="s"><use transform="matrix(0.05,0,0,0.05,0,0)" xlink:href="#aq"/><use transform="matrix(0.05,0,0,0.05,10,0)" xlink:href="#ar"/><use transform="matrix(0.05,0,0,0.05,20,0)" xlink:href="#as"/><use transform="matrix(0.05,0,0,0.05,25,0)" xlink:href="#ar"/><use transform="matrix(0.05,0,0,0.05,35,0)" xlink:href="#as"/><use transform="matrix(0.05,0,0,0.05,40,0)" xlink:href="#aq"/><use transform="matrix(0.05,0,0,0.05,50,0)" xlink:href="#au"/><use transform="matrix(0.05,0,0,0.05,60,0)" xlink:href="#aA"/><use transform="matrix(0.05,0,0,0.05,70,0)" xlink:href="#as"/><use transform="matrix(0.05,0,0,0.05,75,0)" xlink:href="#aq"/><use transform="matrix(0.05,0,0,0.05,85,0)" xlink:href="#aB"/><use transform="matrix(0.05,0,0,0.05,95,0)" xlink:href="#au"/></g><path fill="#666" d="M24 0v-248h52V0H24" id="aC"/><g id="t"><use transform="matrix(0.04938271604938272,0,0,0.04938271604938272,0,0)" xlink:href="#aC"/><use transform="matrix(0.04938271604938272,0,0,0.04938271604938272,4.938271604938272,0)" xlink:href="#K"/><use transform="matrix(0.04938271604938272,0,0,0.04938271604938272,15.753086419753087,0)" xlink:href="#G"/><use transform="matrix(0.04938271604938272,0,0,0.04938271604938272,21.62962962962963,0)" xlink:href="#L"/><use transform="matrix(0.04938271604938272,0,0,0.04938271604938272,31.506172839506174,0)" xlink:href="#W"/><use transform="matrix(0.04938271604938272,0,0,0.04938271604938272,38.41975308641975,0)" xlink:href="#K"/><use transform="matrix(0.04938271604938272,0,0,0.04938271604938272,49.23456790123457,0)" xlink:href="#L"/><use transform="matrix(0.04938271604938272,0,0,0.04938271604938272,59.111111111111114,0)" xlink:href="#G"/></g><path fill="#666" d="M67-125c0 54 23 88 75 88 28 0 53-7 68-21v-34h-60v-39h108v91C232-14 192 4 140 4 58 4 20-42 15-125 8-236 126-280 215-234c19 10 29 26 37 47l-47 15c-11-23-29-39-63-39-53 1-75 33-75 86" id="aD"/><path fill="#666" d="M231 0h-52l-39-155L100 0H48L-1-190h46L77-45c9-52 24-97 36-145h53l37 145 32-145h46" id="aE"/><g id="u"><use transform="matrix(0.04938271604938272,0,0,0.04938271604938272,0,0)" xlink:href="#aD"/><use transform="matrix(0.04938271604938272,0,0,0.04938271604938272,13.827160493827162,0)" xlink:href="#C"/><use transform="matrix(0.04938271604938272,0,0,0.04938271604938272,23.703703703703706,0)" xlink:href="#G"/><use transform="matrix(0.04938271604938272,0,0,0.04938271604938272,29.58024691358025,0)" xlink:href="#L"/><use transform="matrix(0.04938271604938272,0,0,0.04938271604938272,39.4567901234568,0)" xlink:href="#aE"/><use transform="matrix(0.04938271604938272,0,0,0.04938271604938272,53.28395061728396,0)" xlink:href="#C"/><use transform="matrix(0.04938271604938272,0,0,0.04938271604938272,63.16049382716051,0)" xlink:href="#H"/></g><radialGradient gradientUnits="userSpaceOnUse" id="v" fx="71.34" fy="511.11" cx="71.34" cy="511.11" r="50.08"><stop offset="18%" stop-color="#5ea0ef"/><stop offset="100%" stop-color="#0078d4"/></radialGradient><path fill="#4c535d" d="M67-125c0 54 23 88 75 88 28 0 53-7 68-21v-34h-60v-39h108v91C232-14 192 4 140 4 58 4 20-42 15-125 8-236 126-280 215-234c19 10 29 26 37 47l-47 15c-11-23-29-39-63-39-53 1-75 33-75 86" id="aF"/><path fill="#4c535d" d="M110-194c64 0 96 36 96 99 0 64-35 99-97 99-61 0-95-36-95-99 0-62 34-99 96-99zm-1 164c35 0 45-28 45-65 0-40-10-65-43-65-34 0-45 26-45 65 0 36 10 65 43 65" id="aG"/><path fill="#4c535d" d="M195-6C206 82 75 100 31 46c-4-6-6-13-8-21l49-6c3 16 16 24 34 25 40 0 42-37 40-79-11 22-30 35-61 35-53 0-70-43-70-97 0-56 18-96 73-97 30 0 46 14 59 34l2-30h47zm-90-29c32 0 41-27 41-63 0-35-9-62-40-62-32 0-39 29-40 63 0 36 9 62 39 62" id="aH"/><path fill="#4c535d" d="M25 0v-261h50V0H25" id="aI"/><path fill="#4c535d" d="M185-48c-13 30-37 53-82 52C43 2 14-33 14-96s30-98 90-98c62 0 83 45 84 108H66c0 31 8 55 39 56 18 0 30-7 34-22zm-45-69c5-46-57-63-70-21-2 6-4 13-4 21h74" id="aJ"/><path fill="#4c535d" d="M62-158H24l-5-90h48" id="aK"/><path fill="#4c535d" d="M137-138c1-29-70-34-71-4 15 46 118 7 119 86 1 83-164 76-172 9l43-7c4 19 20 25 44 25 33 8 57-30 24-41C81-84 22-81 20-136c-2-80 154-74 161-7" id="aL"/><g id="w"><use transform="matrix(0.05,0,0,0.05,0,0)" xlink:href="#aF"/><use transform="matrix(0.05,0,0,0.05,14,0)" xlink:href="#aG"/><use transform="matrix(0.05,0,0,0.05,24.950000000000003,0)" xlink:href="#aG"/><use transform="matrix(0.05,0,0,0.05,35.900000000000006,0)" xlink:href="#aH"/><use transform="matrix(0.05,0,0,0.05,46.85000000000001,0)" xlink:href="#aI"/><use transform="matrix(0.05,0,0,0.05,51.85,0)" xlink:href="#aJ"/><use transform="matrix(0.05,0,0,0.05,61.85,0)" xlink:href="#aK"/><use transform="matrix(0.05,0,0,0.05,66.10000000000001,0)" xlink:href="#aL"/></g><path fill="#4c535d" d="M24-248c93 1 206-16 204 79-1 75-69 88-152 82V0H24v-248zm52 121c47 0 100 7 100-41 0-47-54-39-100-39v80" id="aM"/><path fill="#4c535d" d="M85 4C-2 5 27-109 22-190h50c7 57-23 150 33 157 60-5 35-97 40-157h50l1 190h-47c-2-12 1-28-3-38-12 25-28 42-61 42" id="aN"/><path fill="#4c535d" d="M135-194c52 0 70 43 70 98 0 56-19 99-73 100-30 1-46-15-58-35L72 0H24l1-261h50v104c11-23 29-37 60-37zM114-30c31 0 40-27 40-66 0-37-7-63-39-63s-41 28-41 65c0 36 8 64 40 64" id="aO"/><path fill="#4c535d" d="M25-224v-37h50v37H25zM25 0v-190h50V0H25" id="aP"/><path fill="#4c535d" d="M190-63c-7 42-38 67-86 67-59 0-84-38-90-98-12-110 154-137 174-36l-49 2c-2-19-15-32-35-32-30 0-35 28-38 64-6 74 65 87 74 30" id="aQ"/><g id="x"><use transform="matrix(0.05,0,0,0.05,0,0)" xlink:href="#aM"/><use transform="matrix(0.05,0,0,0.05,12,0)" xlink:href="#aN"/><use transform="matrix(0.05,0,0,0.05,22.950000000000003,0)" xlink:href="#aO"/><use transform="matrix(0.05,0,0,0.05,33.900000000000006,0)" xlink:href="#aI"/><use transform="matrix(0.05,0,0,0.05,38.900000000000006,0)" xlink:href="#aP"/><use transform="matrix(0.05,0,0,0.05,43.900000000000006,0)" xlink:href="#aQ"/></g><path fill="#4c535d" d="M24-248c120-7 223 5 221 122C244-46 201 0 124 0H24v-248zM76-40c74 7 117-18 117-86 0-67-45-88-117-82v168" id="aR"/><path fill="#4c535d" d="M175 0L67-191c6 58 2 128 3 191H24v-248h59L193-55c-6-58-2-129-3-193h46V0h-61" id="aS"/><path fill="#4c535d" d="M169-182c-1-43-94-46-97-3 18 66 151 10 154 114 3 95-165 93-204 36-6-8-10-19-12-30l50-8c3 46 112 56 116 5-17-69-150-10-154-114-4-87 153-88 188-35 5 8 8 18 10 28" id="aT"/><g id="y"><use transform="matrix(0.05,0,0,0.05,0,0)" xlink:href="#aR"/><use transform="matrix(0.05,0,0,0.05,12.950000000000001,0)" xlink:href="#aS"/><use transform="matrix(0.05,0,0,0.05,25.900000000000002,0)" xlink:href="#aT"/></g><path fill="#4c535d" d="M138-131c27 9 52 24 51 61 0 53-36 74-89 74S11-19 11-69c0-35 22-54 51-61-78-25-46-121 38-121 51 0 83 19 83 66 0 30-18 49-45 54zm-38-16c24 0 32-13 32-36 1-23-11-34-32-34-22 0-33 12-32 34 0 22 9 36 32 36zm1 116c27 0 37-17 37-43 0-25-13-39-39-39-24 0-37 15-37 40 0 27 11 42 39 42" id="aU"/><path fill="#4c535d" d="M24 0v-54h51V0H24" id="aV"/><g id="z"><use transform="matrix(0.05,0,0,0.05,0,0)" xlink:href="#aU"/><use transform="matrix(0.05,0,0,0.05,10,0)" xlink:href="#aV"/><use transform="matrix(0.05,0,0,0.05,15,0)" xlink:href="#aU"/><use transform="matrix(0.05,0,0,0.05,25,0)" xlink:href="#aV"/><use transform="matrix(0.05,0,0,0.05,30,0)" xlink:href="#aU"/><use transform="matrix(0.05,0,0,0.05,40,0)" xlink:href="#aV"/><use transform="matrix(0.05,0,0,0.05,45,0)" xlink:href="#aU"/></g></defs></g></svg>