<svg xmlns="http://www.w3.org/2000/svg" xmlns:xlink="http://www.w3.org/1999/xlink" xmlns:lucid="lucid" width="860" height="445.01"><g transform="translate(0 -239.19220972990928)" lucid:page-tab-id="0_0"><path d="M375.2 262.8a8 8 0 0 1 9.6 0l110.4 82.8a4.5 4.5 0 0 1 0 7.2l-110.4 82.8a8 8 0 0 1-9.6 0l-110.4-82.8a4.5 4.5 0 0 1 0-7.2z" stroke="#007bff" stroke-width="3" fill="#f5fbff"/><use xlink:href="#a" transform="matrix(1,0,0,1,265,264.1922097299093) translate(72.525 56.19999999999999)"/><use xlink:href="#b" transform="matrix(1,0,0,1,265,264.1922097299093) translate(91.525 56.19999999999999)"/><use xlink:href="#c" transform="matrix(1,0,0,1,265,264.1922097299093) translate(137.47500000000002 56.19999999999999)"/><use xlink:href="#d" transform="matrix(1,0,0,1,265,264.1922097299093) translate(70.525 77.8)"/><use xlink:href="#e" transform="matrix(1,0,0,1,265,264.1922097299093) translate(51.074999999999996 99.4)"/><use xlink:href="#f" transform="matrix(1,0,0,1,265,264.1922097299093) translate(86.025 99.4)"/><use xlink:href="#g" transform="matrix(1,0,0,1,265,264.1922097299093) translate(104.975 99.4)"/><use xlink:href="#h" transform="matrix(1,0,0,1,265,264.1922097299093) translate(134.975 99.4)"/><use xlink:href="#i" transform="matrix(1,0,0,1,265,264.1922097299093) translate(46.625 121)"/><use xlink:href="#j" transform="matrix(1,0,0,1,265,264.1922097299093) translate(134.375 121)"/><path d="M680 306a6 6 0 0 1 6-6h148a6 6 0 0 1 6 6v352.2a6 6 0 0 1-6 6H686a6 6 0 0 1-6-6z" stroke="#e81313" stroke-width="3" fill="#e81313"/><use xlink:href="#k" transform="matrix(1,0,0,1,685,305) translate(17.642592592592614 183.76666666666665)"/><path d="M182.5 348h60.6" stroke="#224c72" stroke-width="2" fill="none"/><path d="M182.53 349h-1.1l.07-.97-.03-1.02h1.06z" stroke="#224c72" stroke-width=".05" fill="#224c72"/><path d="M258.38 348l-14.27 4.65v-9.27z" stroke="#224c72" stroke-width="2" fill="#224c72"/><path d="M660 349.3v2l-59.85-.02v-2zm-160.5.9v-2h77.36v2z" stroke="#e81313" stroke-width=".05" fill="#e81313"/><path d="M499.53 350.2h-1.12l.1-1-.1-1h1.13z" fill="#e81313"/><path d="M499.56 350.22h-1.17l.08-1.03-.1-1.03h1.18zm-1.12-2l.1.97-.1.97h1.07v-1.95z" stroke="#e81313" stroke-width=".05" fill="#e81313"/><path d="M675.27 350.3L661 354.95v-9.27z" fill="#e81313"/><path d="M678.5 350.3l-18.5 6.02V344.3zm-16.5 3.27l10.04-3.26-10.03-3.25z" stroke="#e81313" stroke-width=".05" fill="#e81313"/><use xlink:href="#l" transform="matrix(1,0,0,1,576.862793107239,340.4163219645419) translate(0 12.444444444444446)"/><path d="M20 547.18a6 6 0 0 1 6-6h616.6a6 6 0 0 1 6 6V658.2a6 6 0 0 1-6 6H26a6 6 0 0 1-6-6z" stroke="#54c45e" stroke-width="3" fill="#54c45e"/><use xlink:href="#m" transform="matrix(1,0,0,1,25,546.1782215861081) translate(56.744444444444525 63.266666666666666)"/><use xlink:href="#n" transform="matrix(1,0,0,1,25,546.1782215861081) translate(169.8055555555556 63.266666666666666)"/><use xlink:href="#o" transform="matrix(1,0,0,1,25,546.1782215861081) translate(207.9277777777778 63.266666666666666)"/><use xlink:href="#p" transform="matrix(1,0,0,1,25,546.1782215861081) translate(386.7018518518518 63.266666666666666)"/><use xlink:href="#q" transform="matrix(1,0,0,1,25,546.1782215861081) translate(447.5407407407407 63.266666666666666)"/><path d="M148 308c17.67 0 32 17.92 32 40 0 22.1-14.33 40-32 40H52c-17.67 0-32-17.9-32-40 0-22.08 14.33-40 32-40z" stroke="#1e2234" stroke-width="3" fill="#007bff"/><g><use xlink:href="#r" transform="matrix(1,0,0,1,25,313.0139881438012) translate(11.574999999999996 27.799999999999997)"/><use xlink:href="#s" transform="matrix(1,0,0,1,25,313.0139881438012) translate(74.525 27.799999999999997)"/><use xlink:href="#t" transform="matrix(1,0,0,1,25,313.0139881438012) translate(34.075 49.4)"/><use xlink:href="#u" transform="matrix(1,0,0,1,25,313.0139881438012) translate(78.975 49.4)"/></g><path d="M381 521.2h-2v-22.66h2zm0-41.33h-2V439.7h2z" stroke="#008a0e" stroke-width=".05" fill="#008a0e"/><path d="M380 438.7l1-.07v1.1h-2v-1.1z" fill="#008a0e"/><path d="M380 438.67l1.02-.07v1.15h-2.04v-1.15zm-.98 1.03h1.96v-1.04l-.98.06-.98-.06z" stroke="#008a0e" stroke-width=".05" fill="#008a0e"/><path d="M380 536.47l-4.64-14.26h9.28z" fill="#008a0e"/><path d="M380 539.7l-6-18.5h12zm-3.26-16.5l3.26 10.04 3.26-10.03z" stroke="#008a0e" stroke-width=".05" fill="#008a0e"/><g><use xlink:href="#v" transform="matrix(1,0,0,1,364.44444444444446,479.8691524042775) translate(0 12.444444444444446)"/></g><defs><path fill="#1d262b" d="M33 0v-248h34V0H33" id="w"/><path fill="#1d262b" d="M135-143c-3-34-86-38-87 0 15 53 115 12 119 90S17 21 10-45l28-5c4 36 97 45 98 0-10-56-113-15-118-90-4-57 82-63 122-42 12 7 21 19 24 35" id="x"/><g id="a"><use transform="matrix(0.05,0,0,0.05,0,0)" xlink:href="#w"/><use transform="matrix(0.05,0,0,0.05,5,0)" xlink:href="#x"/></g><path fill="#1d262b" d="M59-47c-2 24 18 29 38 22v24C64 9 27 4 27-40v-127H5v-23h24l9-43h21v43h35v23H59v120" id="y"/><path fill="#1d262b" d="M106-169C34-169 62-67 57 0H25v-261h32l-1 103c12-21 28-36 61-36 89 0 53 116 60 194h-32v-121c2-32-8-49-39-48" id="z"/><path fill="#1d262b" d="M100-194c63 0 86 42 84 106H49c0 40 14 67 53 68 26 1 43-12 49-29l28 8c-11 28-37 45-77 45C44 4 14-33 15-96c1-61 26-98 85-98zm52 81c6-60-76-77-97-28-3 7-6 17-6 28h103" id="A"/><path fill="#1d262b" d="M114-163C36-179 61-72 57 0H25l-1-190h30c1 12-1 29 2 39 6-27 23-49 58-41v29" id="B"/><g id="b"><use transform="matrix(0.05,0,0,0.05,0,0)" xlink:href="#y"/><use transform="matrix(0.05,0,0,0.05,5,0)" xlink:href="#z"/><use transform="matrix(0.05,0,0,0.05,15,0)" xlink:href="#A"/><use transform="matrix(0.05,0,0,0.05,25,0)" xlink:href="#B"/><use transform="matrix(0.05,0,0,0.05,30.950000000000003,0)" xlink:href="#A"/></g><path fill="#1d262b" d="M141-36C126-15 110 5 73 4 37 3 15-17 15-53c-1-64 63-63 125-63 3-35-9-54-41-54-24 1-41 7-42 31l-33-3c5-37 33-52 76-52 45 0 72 20 72 64v82c-1 20 7 32 28 27v20c-31 9-61-2-59-35zM48-53c0 20 12 33 32 33 41-3 63-29 60-74-43 2-92-5-92 41" id="C"/><path fill="#1d262b" d="M117-194c89-4 53 116 60 194h-32v-121c0-31-8-49-39-48C34-167 62-67 57 0H25l-1-190h30c1 10-1 24 2 32 11-22 29-35 61-36" id="D"/><g id="c"><use transform="matrix(0.05,0,0,0.05,0,0)" xlink:href="#C"/><use transform="matrix(0.05,0,0,0.05,10,0)" xlink:href="#D"/></g><path fill="#1d262b" d="M96-169c-40 0-48 33-48 73s9 75 48 75c24 0 41-14 43-38l32 2c-6 37-31 61-74 61-59 0-76-41-82-99-10-93 101-131 147-64 4 7 5 14 7 22l-32 3c-4-21-16-35-41-35" id="E"/><path fill="#1d262b" d="M210-169c-67 3-38 105-44 169h-31v-121c0-29-5-50-35-48C34-165 62-65 56 0H25l-1-190h30c1 10-1 24 2 32 10-44 99-50 107 0 11-21 27-35 58-36 85-2 47 119 55 194h-31v-121c0-29-5-49-35-48" id="F"/><g id="d"><use transform="matrix(0.05,0,0,0.05,0,0)" xlink:href="#C"/><use transform="matrix(0.05,0,0,0.05,10,0)" xlink:href="#y"/><use transform="matrix(0.05,0,0,0.05,15,0)" xlink:href="#y"/><use transform="matrix(0.05,0,0,0.05,20,0)" xlink:href="#C"/><use transform="matrix(0.05,0,0,0.05,30,0)" xlink:href="#E"/><use transform="matrix(0.05,0,0,0.05,39,0)" xlink:href="#z"/><use transform="matrix(0.05,0,0,0.05,49,0)" xlink:href="#F"/><use transform="matrix(0.05,0,0,0.05,63.95,0)" xlink:href="#A"/><use transform="matrix(0.05,0,0,0.05,73.95,0)" xlink:href="#D"/><use transform="matrix(0.05,0,0,0.05,83.95,0)" xlink:href="#y"/></g><path fill="#1d262b" d="M30 0v-248h187v28H63v79h144v27H63v87h162V0H30" id="G"/><path fill="#1d262b" d="M190 0L58-211 59 0H30v-248h39L202-35l-2-213h31V0h-41" id="H"/><g id="e"><use transform="matrix(0.05,0,0,0.05,0,0)" xlink:href="#G"/><use transform="matrix(0.05,0,0,0.05,12,0)" xlink:href="#H"/><use transform="matrix(0.05,0,0,0.05,24.950000000000003,0)" xlink:href="#w"/></g><path fill="#1d262b" d="M24-231v-30h32v30H24zM24 0v-190h32V0H24" id="I"/><g id="f"><use transform="matrix(0.05,0,0,0.05,0,0)" xlink:href="#I"/><use transform="matrix(0.05,0,0,0.05,3.95,0)" xlink:href="#D"/></g><g id="g"><use transform="matrix(0.05,0,0,0.05,0,0)" xlink:href="#y"/><use transform="matrix(0.05,0,0,0.05,5,0)" xlink:href="#z"/><use transform="matrix(0.05,0,0,0.05,15,0)" xlink:href="#A"/></g><g id="h"><use transform="matrix(0.05,0,0,0.05,0,0)" xlink:href="#x"/><use transform="matrix(0.05,0,0,0.05,9,0)" xlink:href="#C"/><use transform="matrix(0.05,0,0,0.05,19,0)" xlink:href="#F"/><use transform="matrix(0.05,0,0,0.05,33.95,0)" xlink:href="#A"/></g><path fill="#1d262b" d="M108 0H70L1-190h34L89-25l56-165h34" id="J"/><path fill="#1d262b" d="M24 0v-261h32V0H24" id="K"/><path fill="#1d262b" d="M115-194c53 0 69 39 70 98 0 66-23 100-70 100C84 3 66-7 56-30L54 0H23l1-261h32v101c10-23 28-34 59-34zm-8 174c40 0 45-34 45-75 0-40-5-75-45-74-42 0-51 32-51 76 0 43 10 73 51 73" id="L"/><path fill="#1d262b" d="M179-190L93 31C79 59 56 82 12 73V49c39 6 53-20 64-50L1-190h34L92-34l54-156h33" id="M"/><g id="i"><use transform="matrix(0.05,0,0,0.05,0,0)" xlink:href="#C"/><use transform="matrix(0.05,0,0,0.05,10,0)" xlink:href="#J"/><use transform="matrix(0.05,0,0,0.05,19,0)" xlink:href="#C"/><use transform="matrix(0.05,0,0,0.05,29,0)" xlink:href="#I"/><use transform="matrix(0.05,0,0,0.05,32.95,0)" xlink:href="#K"/><use transform="matrix(0.05,0,0,0.05,36.900000000000006,0)" xlink:href="#C"/><use transform="matrix(0.05,0,0,0.05,46.900000000000006,0)" xlink:href="#L"/><use transform="matrix(0.05,0,0,0.05,56.900000000000006,0)" xlink:href="#I"/><use transform="matrix(0.05,0,0,0.05,60.85,0)" xlink:href="#K"/><use transform="matrix(0.05,0,0,0.05,64.80000000000001,0)" xlink:href="#I"/><use transform="matrix(0.05,0,0,0.05,68.75000000000001,0)" xlink:href="#y"/><use transform="matrix(0.05,0,0,0.05,73.75000000000001,0)" xlink:href="#M"/></g><path fill="#1d262b" d="M9 0v-24l116-142H16v-24h144v24L44-24h123V0H9" id="N"/><path fill="#1d262b" d="M100-194c62-1 85 37 85 99 1 63-27 99-86 99S16-35 15-95c0-66 28-99 85-99zM99-20c44 1 53-31 53-75 0-43-8-75-51-75s-53 32-53 75 10 74 51 75" id="O"/><path fill="#1d262b" d="M103-251c84 0 111 97 45 133-19 10-37 24-39 52H78c0-63 77-55 77-114 0-30-21-42-52-43-32 0-53 17-56 46l-32-2c7-45 34-72 88-72zM77 0v-35h34V0H77" id="P"/><g id="j"><use transform="matrix(0.05,0,0,0.05,0,0)" xlink:href="#N"/><use transform="matrix(0.05,0,0,0.05,9,0)" xlink:href="#O"/><use transform="matrix(0.05,0,0,0.05,19,0)" xlink:href="#D"/><use transform="matrix(0.05,0,0,0.05,29,0)" xlink:href="#A"/><use transform="matrix(0.05,0,0,0.05,39,0)" xlink:href="#P"/></g><path fill="#1d262b" d="M24-248c120-7 223 5 221 122C244-46 201 0 124 0H24v-248zM76-40c74 7 117-18 117-86 0-67-45-88-117-82v168" id="Q"/><path fill="#1d262b" d="M25-224v-37h50v37H25zM25 0v-190h50V0H25" id="R"/><path fill="#1d262b" d="M137-138c1-29-70-34-71-4 15 46 118 7 119 86 1 83-164 76-172 9l43-7c4 19 20 25 44 25 33 8 57-30 24-41C81-84 22-81 20-136c-2-80 154-74 161-7" id="S"/><path fill="#1d262b" d="M190-63c-7 42-38 67-86 67-59 0-84-38-90-98-12-110 154-137 174-36l-49 2c-2-19-15-32-35-32-30 0-35 28-38 64-6 74 65 87 74 30" id="T"/><path fill="#1d262b" d="M133-34C117-15 103 5 69 4 32 3 11-16 11-54c-1-60 55-63 116-61 1-26-3-47-28-47-18 1-26 9-28 27l-52-2c7-38 36-58 82-57s74 22 75 68l1 82c-1 14 12 18 25 15v27c-30 8-71 5-69-32zm-48 3c29 0 43-24 42-57-32 0-66-3-65 30 0 17 8 27 23 27" id="U"/><path fill="#1d262b" d="M135-150c-39-12-60 13-60 57V0H25l-1-190h47c2 13-1 29 3 40 6-28 27-53 61-41v41" id="V"/><path fill="#1d262b" d="M88-194c31-1 46 15 58 34l-1-101h50l1 261h-48c-2-10 0-23-3-31C134-8 116 4 84 4 32 4 16-41 15-95c0-56 19-97 73-99zm17 164c33 0 40-30 41-66 1-37-9-64-41-64s-38 30-39 65c0 43 13 65 39 65" id="W"/><g id="k"><use transform="matrix(0.08703703703703701,0,0,0.08703703703703701,0,0)" xlink:href="#Q"/><use transform="matrix(0.08703703703703701,0,0,0.08703703703703701,22.542592592592584,0)" xlink:href="#R"/><use transform="matrix(0.08703703703703701,0,0,0.08703703703703701,31.246296296296286,0)" xlink:href="#S"/><use transform="matrix(0.08703703703703701,0,0,0.08703703703703701,48.65370370370369,0)" xlink:href="#T"/><use transform="matrix(0.08703703703703701,0,0,0.08703703703703701,66.06111111111109,0)" xlink:href="#U"/><use transform="matrix(0.08703703703703701,0,0,0.08703703703703701,83.4685185185185,0)" xlink:href="#V"/><use transform="matrix(0.08703703703703701,0,0,0.08703703703703701,95.65370370370367,0)" xlink:href="#W"/></g><path fill="#e81313" d="M175 0L67-191c6 58 2 128 3 191H24v-248h59L193-55c-6-58-2-129-3-193h46V0h-61" id="X"/><path fill="#e81313" d="M140-251c80 0 125 45 125 126S219 4 139 4C58 4 15-44 15-125s44-126 125-126zm-1 214c52 0 73-35 73-88 0-50-21-86-72-86-52 0-73 35-73 86s22 88 72 88" id="Y"/><g id="l"><use transform="matrix(0.04320987654320988,0,0,0.04320987654320988,0,0)" xlink:href="#X"/><use transform="matrix(0.04320987654320988,0,0,0.04320987654320988,11.19135802469136,0)" xlink:href="#Y"/></g><path fill="#1d262b" d="M24 0v-248h195v40H76v63h132v40H76v65h150V0H24" id="Z"/><path fill="#1d262b" d="M195-6C206 82 75 100 31 46c-4-6-6-13-8-21l49-6c3 16 16 24 34 25 40 0 42-37 40-79-11 22-30 35-61 35-53 0-70-43-70-97 0-56 18-96 73-97 30 0 46 14 59 34l2-30h47zm-90-29c32 0 41-27 41-63 0-35-9-62-40-62-32 0-39 29-40 63 0 36 9 62 39 62" id="aa"/><path fill="#1d262b" d="M185-48c-13 30-37 53-82 52C43 2 14-33 14-96s30-98 90-98c62 0 83 45 84 108H66c0 31 8 55 39 56 18 0 30-7 34-22zm-45-69c5-46-57-63-70-21-2 6-4 13-4 21h74" id="ab"/><g id="m"><use transform="matrix(0.08703703703703701,0,0,0.08703703703703701,0,0)" xlink:href="#Z"/><use transform="matrix(0.08703703703703701,0,0,0.08703703703703701,20.888888888888882,0)" xlink:href="#aa"/><use transform="matrix(0.08703703703703701,0,0,0.08703703703703701,39.94999999999999,0)" xlink:href="#V"/><use transform="matrix(0.08703703703703701,0,0,0.08703703703703701,52.13518518518517,0)" xlink:href="#ab"/><use transform="matrix(0.08703703703703701,0,0,0.08703703703703701,69.54259259259257,0)" xlink:href="#S"/><use transform="matrix(0.08703703703703701,0,0,0.08703703703703701,86.94999999999997,0)" xlink:href="#S"/></g><path fill="#1d262b" d="M115-3C79 11 28 4 28-45v-112H4v-33h27l15-45h31v45h36v33H77v99c-1 23 16 31 38 25v30" id="ac"/><path fill="#1d262b" d="M110-194c64 0 96 36 96 99 0 64-35 99-97 99-61 0-95-36-95-99 0-62 34-99 96-99zm-1 164c35 0 45-28 45-65 0-40-10-65-43-65-34 0-45 26-45 65 0 36 10 65 43 65" id="ad"/><g id="n"><use transform="matrix(0.08703703703703701,0,0,0.08703703703703701,0,0)" xlink:href="#ac"/><use transform="matrix(0.08703703703703701,0,0,0.08703703703703701,10.357407407407404,0)" xlink:href="#ad"/></g><path fill="#1d262b" d="M135-194c87-1 58 113 63 194h-50c-7-57 23-157-34-157-59 0-34 97-39 157H25l-1-190h47c2 12-1 28 3 38 12-26 28-41 61-42" id="ae"/><g id="o"><use transform="matrix(0.08703703703703701,0,0,0.08703703703703701,0,0)" xlink:href="#Q"/><use transform="matrix(0.08703703703703701,0,0,0.08703703703703701,22.542592592592584,0)" xlink:href="#ab"/><use transform="matrix(0.08703703703703701,0,0,0.08703703703703701,39.94999999999999,0)" xlink:href="#S"/><use transform="matrix(0.08703703703703701,0,0,0.08703703703703701,57.357407407407386,0)" xlink:href="#ac"/><use transform="matrix(0.08703703703703701,0,0,0.08703703703703701,67.7148148148148,0)" xlink:href="#R"/><use transform="matrix(0.08703703703703701,0,0,0.08703703703703701,76.4185185185185,0)" xlink:href="#ae"/><use transform="matrix(0.08703703703703701,0,0,0.08703703703703701,95.4796296296296,0)" xlink:href="#U"/><use transform="matrix(0.08703703703703701,0,0,0.08703703703703701,112.887037037037,0)" xlink:href="#ac"/><use transform="matrix(0.08703703703703701,0,0,0.08703703703703701,123.24444444444441,0)" xlink:href="#R"/><use transform="matrix(0.08703703703703701,0,0,0.08703703703703701,131.9481481481481,0)" xlink:href="#ad"/><use transform="matrix(0.08703703703703701,0,0,0.08703703703703701,151.0092592592592,0)" xlink:href="#ae"/></g><path fill="#1d262b" d="M175 0L67-191c6 58 2 128 3 191H24v-248h59L193-55c-6-58-2-129-3-193h46V0h-61" id="af"/><path fill="#1d262b" d="M24 0v-248h52V0H24" id="ag"/><g id="p"><use transform="matrix(0.08703703703703701,0,0,0.08703703703703701,0,0)" xlink:href="#Z"/><use transform="matrix(0.08703703703703701,0,0,0.08703703703703701,20.888888888888882,0)" xlink:href="#af"/><use transform="matrix(0.08703703703703701,0,0,0.08703703703703701,43.43148148148147,0)" xlink:href="#ag"/></g><path fill="#1d262b" d="M25 0v-261h50V0H25" id="ah"/><path fill="#1d262b" d="M123 10C108 53 80 86 19 72V37c35 8 53-11 59-39L3-190h52l48 148c12-52 28-100 44-148h51" id="ai"/><g id="q"><use transform="matrix(0.08703703703703701,0,0,0.08703703703703701,0,0)" xlink:href="#Q"/><use transform="matrix(0.08703703703703701,0,0,0.08703703703703701,22.542592592592584,0)" xlink:href="#R"/><use transform="matrix(0.08703703703703701,0,0,0.08703703703703701,31.246296296296286,0)" xlink:href="#V"/><use transform="matrix(0.08703703703703701,0,0,0.08703703703703701,43.43148148148147,0)" xlink:href="#ab"/><use transform="matrix(0.08703703703703701,0,0,0.08703703703703701,60.83888888888887,0)" xlink:href="#T"/><use transform="matrix(0.08703703703703701,0,0,0.08703703703703701,78.24629629629628,0)" xlink:href="#ac"/><use transform="matrix(0.08703703703703701,0,0,0.08703703703703701,88.60370370370369,0)" xlink:href="#ah"/><use transform="matrix(0.08703703703703701,0,0,0.08703703703703701,97.30740740740738,0)" xlink:href="#ai"/></g><path fill="#fff" d="M24-248c93 1 206-16 204 79-1 75-69 88-152 82V0H24v-248zm52 121c47 0 100 7 100-41 0-47-54-39-100-39v80" id="aj"/><path fill="#fff" d="M133-34C117-15 103 5 69 4 32 3 11-16 11-54c-1-60 55-63 116-61 1-26-3-47-28-47-18 1-26 9-28 27l-52-2c7-38 36-58 82-57s74 22 75 68l1 82c-1 14 12 18 25 15v27c-30 8-71 5-69-32zm-48 3c29 0 43-24 42-57-32 0-66-3-65 30 0 17 8 27 23 27" id="ak"/><path fill="#fff" d="M190-63c-7 42-38 67-86 67-59 0-84-38-90-98-12-110 154-137 174-36l-49 2c-2-19-15-32-35-32-30 0-35 28-38 64-6 74 65 87 74 30" id="al"/><path fill="#fff" d="M147 0L96-86 75-71V0H25v-261h50v150l67-79h53l-66 74L201 0h-54" id="am"/><path fill="#fff" d="M185-48c-13 30-37 53-82 52C43 2 14-33 14-96s30-98 90-98c62 0 83 45 84 108H66c0 31 8 55 39 56 18 0 30-7 34-22zm-45-69c5-46-57-63-70-21-2 6-4 13-4 21h74" id="an"/><path fill="#fff" d="M115-3C79 11 28 4 28-45v-112H4v-33h27l15-45h31v45h36v33H77v99c-1 23 16 31 38 25v30" id="ao"/><g id="r"><use transform="matrix(0.05,0,0,0.05,0,0)" xlink:href="#aj"/><use transform="matrix(0.05,0,0,0.05,12,0)" xlink:href="#ak"/><use transform="matrix(0.05,0,0,0.05,22,0)" xlink:href="#al"/><use transform="matrix(0.05,0,0,0.05,32,0)" xlink:href="#am"/><use transform="matrix(0.05,0,0,0.05,42,0)" xlink:href="#an"/><use transform="matrix(0.05,0,0,0.05,52,0)" xlink:href="#ao"/></g><path fill="#fff" d="M24 0v-248h52V0H24" id="ap"/><path fill="#fff" d="M135-194c87-1 58 113 63 194h-50c-7-57 23-157-34-157-59 0-34 97-39 157H25l-1-190h47c2 12-1 28 3 38 12-26 28-41 61-42" id="aq"/><path fill="#fff" d="M195-6C206 82 75 100 31 46c-4-6-6-13-8-21l49-6c3 16 16 24 34 25 40 0 42-37 40-79-11 22-30 35-61 35-53 0-70-43-70-97 0-56 18-96 73-97 30 0 46 14 59 34l2-30h47zm-90-29c32 0 41-27 41-63 0-35-9-62-40-62-32 0-39 29-40 63 0 36 9 62 39 62" id="ar"/><path fill="#fff" d="M135-150c-39-12-60 13-60 57V0H25l-1-190h47c2 13-1 29 3 40 6-28 27-53 61-41v41" id="as"/><path fill="#fff" d="M137-138c1-29-70-34-71-4 15 46 118 7 119 86 1 83-164 76-172 9l43-7c4 19 20 25 44 25 33 8 57-30 24-41C81-84 22-81 20-136c-2-80 154-74 161-7" id="at"/><g id="s"><use transform="matrix(0.05,0,0,0.05,0,0)" xlink:href="#ap"/><use transform="matrix(0.05,0,0,0.05,5,0)" xlink:href="#aq"/><use transform="matrix(0.05,0,0,0.05,15.950000000000001,0)" xlink:href="#ar"/><use transform="matrix(0.05,0,0,0.05,26.900000000000002,0)" xlink:href="#as"/><use transform="matrix(0.05,0,0,0.05,33.900000000000006,0)" xlink:href="#an"/><use transform="matrix(0.05,0,0,0.05,43.900000000000006,0)" xlink:href="#at"/><use transform="matrix(0.05,0,0,0.05,53.900000000000006,0)" xlink:href="#at"/></g><path fill="#fff" d="M121-226c-27-7-43 5-38 36h38v33H83V0H34v-157H6v-33h28c-9-59 32-81 87-68v32" id="au"/><path fill="#fff" d="M110-194c64 0 96 36 96 99 0 64-35 99-97 99-61 0-95-36-95-99 0-62 34-99 96-99zm-1 164c35 0 45-28 45-65 0-40-10-65-43-65-34 0-45 26-45 65 0 36 10 65 43 65" id="av"/><path fill="#fff" d="M220-157c-53 9-28 100-34 157h-49v-107c1-27-5-49-29-50C55-147 81-57 75 0H25l-1-190h47c2 12-1 28 3 38 10-53 101-56 108 0 13-22 24-43 59-42 82 1 51 116 57 194h-49v-107c-1-25-5-48-29-50" id="aw"/><g id="t"><use transform="matrix(0.05,0,0,0.05,0,0)" xlink:href="#au"/><use transform="matrix(0.05,0,0,0.05,5.95,0)" xlink:href="#as"/><use transform="matrix(0.05,0,0,0.05,12.949999999999998,0)" xlink:href="#av"/><use transform="matrix(0.05,0,0,0.05,23.9,0)" xlink:href="#aw"/></g><path fill="#fff" d="M147 0H94L2-248h55l64 206c17-72 42-137 63-206h54" id="ax"/><path fill="#fff" d="M67-125c0 53 21 87 73 88 37 1 54-22 65-47l45 17C233-25 199 4 140 4 58 4 20-42 15-125 8-235 124-281 211-232c18 10 29 29 36 50l-46 12c-8-25-30-41-62-41-52 0-71 34-72 86" id="ay"/><g id="u"><use transform="matrix(0.05,0,0,0.05,0,0)" xlink:href="#ax"/><use transform="matrix(0.05,0,0,0.05,12,0)" xlink:href="#aj"/><use transform="matrix(0.05,0,0,0.05,24,0)" xlink:href="#ay"/></g><path fill="#54c45e" d="M146-102V0H94v-102L6-248h54l60 105 60-105h54" id="az"/><path fill="#54c45e" d="M24 0v-248h195v40H76v63h132v40H76v65h150V0H24" id="aA"/><path fill="#54c45e" d="M169-182c-1-43-94-46-97-3 18 66 151 10 154 114 3 95-165 93-204 36-6-8-10-19-12-30l50-8c3 46 112 56 116 5-17-69-150-10-154-114-4-87 153-88 188-35 5 8 8 18 10 28" id="aB"/><g id="v"><use transform="matrix(0.04320987654320988,0,0,0.04320987654320988,0,0)" xlink:href="#az"/><use transform="matrix(0.04320987654320988,0,0,0.04320987654320988,10.370370370370372,0)" xlink:href="#aA"/><use transform="matrix(0.04320987654320988,0,0,0.04320987654320988,20.740740740740744,0)" xlink:href="#aB"/></g></defs></g></svg>