<svg xmlns="http://www.w3.org/2000/svg" xmlns:xlink="http://www.w3.org/1999/xlink" xmlns:lucid="lucid" width="900" height="843.02"><g transform="translate(0 -20)" lucid:page-tab-id="0_0"><path d="M375.2 43.6a8 8 0 0 1 9.6 0l110.4 82.8a4.5 4.5 0 0 1 0 7.2l-110.4 82.8a8 8 0 0 1-9.6 0l-110.4-82.8a4.5 4.5 0 0 1 0-7.2z" stroke="#007bff" stroke-width="3" fill="#f5fbff"/><use xlink:href="#a" transform="matrix(1,0,0,1,265,45) translate(29.049999999999997 77.8)"/><use xlink:href="#b" transform="matrix(1,0,0,1,265,45) translate(48.05 77.8)"/><use xlink:href="#c" transform="matrix(1,0,0,1,265,45) translate(78.05 77.8)"/><use xlink:href="#d" transform="matrix(1,0,0,1,265,45) translate(137 77.8)"/><use xlink:href="#e" transform="matrix(1,0,0,1,265,45) translate(61.025 99.4)"/><use xlink:href="#f" transform="matrix(1,0,0,1,265,45) translate(102.025 99.4)"/><use xlink:href="#g" transform="matrix(1,0,0,1,265,45) translate(122.975 99.4)"/><path d="M195.2 244.78a8 8 0 0 1 9.6 0l110.4 82.8a4.5 4.5 0 0 1 0 7.2l-110.4 82.8a8 8 0 0 1-9.6 0l-110.4-82.8a4.5 4.5 0 0 1 0-7.2z" stroke="#007bff" stroke-width="3" fill="#f5fbff"/><use xlink:href="#h" transform="matrix(1,0,0,1,85,246.17822158610807) translate(115 56.19999999999999)"/><use xlink:href="#i" transform="matrix(1,0,0,1,85,246.17822158610807) translate(33.7 77.8)"/><use xlink:href="#b" transform="matrix(1,0,0,1,85,246.17822158610807) translate(80.65 77.8)"/><use xlink:href="#j" transform="matrix(1,0,0,1,85,246.17822158610807) translate(110.65 77.8)"/><use xlink:href="#k" transform="matrix(1,0,0,1,85,246.17822158610807) translate(132.3 77.8)"/><use xlink:href="#l" transform="matrix(1,0,0,1,85,246.17822158610807) translate(176.3 77.8)"/><use xlink:href="#m" transform="matrix(1,0,0,1,85,246.17822158610807) translate(45.07499999999999 99.4)"/><use xlink:href="#n" transform="matrix(1,0,0,1,85,246.17822158610807) translate(136.02499999999998 99.4)"/><use xlink:href="#e" transform="matrix(1,0,0,1,85,246.17822158610807) translate(56.525 121)"/><use xlink:href="#o" transform="matrix(1,0,0,1,85,246.17822158610807) translate(97.525 121)"/><path d="M720 206a6 6 0 0 1 6-6h148a6 6 0 0 1 6 6v631.02a6 6 0 0 1-6 6H726a6 6 0 0 1-6-6z" stroke="#e81313" stroke-width="3" fill="#e81313"/><use xlink:href="#p" transform="matrix(1,0,0,1,725,205) translate(17.642592592592614 323.26666666666665)"/><path d="M182.5 128.82h60.6" stroke="#224c72" stroke-width="2" fill="none"/><path d="M182.53 129.82h-1.1l.07-.98-.03-1.02h1.06z" stroke="#224c72" stroke-width=".05" fill="#224c72"/><path d="M258.38 128.82l-14.27 4.64v-9.27z" stroke="#224c72" stroke-width="2" fill="#224c72"/><path d="M60 726a6 6 0 0 1 6-6h616.6a6 6 0 0 1 6 6v111.02a6 6 0 0 1-6 6H66a6 6 0 0 1-6-6z" stroke="#54c45e" stroke-width="3" fill="#54c45e"/><use xlink:href="#q" transform="matrix(1,0,0,1,65,725) translate(176.637962962963 63.266666666666666)"/><use xlink:href="#r" transform="matrix(1,0,0,1,65,725) translate(289.6990740740741 63.266666666666666)"/><use xlink:href="#s" transform="matrix(1,0,0,1,65,725) translate(327.8212962962963 63.266666666666666)"/><path d="M148 88.82c17.67 0 32 17.9 32 40s-14.33 40-32 40H52c-17.67 0-32-17.9-32-40s14.33-40 32-40z" stroke="#1e2234" stroke-width="3" fill="#007bff"/><use xlink:href="#t" transform="matrix(1,0,0,1,25,93.82177841389193) translate(11.574999999999996 27.799999999999997)"/><use xlink:href="#u" transform="matrix(1,0,0,1,25,93.82177841389193) translate(74.525 27.799999999999997)"/><use xlink:href="#v" transform="matrix(1,0,0,1,25,93.82177841389193) translate(34.075 49.4)"/><use xlink:href="#w" transform="matrix(1,0,0,1,25,93.82177841389193) translate(78.975 49.4)"/><path d="M247.46 212.8l-41.42.04-.82.07-.76.2-.73.3-.67.4-.6.5-.5.6-.4.67-.3.73-.2.73-.06 6.15-2-.02.08-6.38.26-1.1.42-1.02.57-.94.72-.83.83-.72.94-.58 1.02-.42 1.06-.26 1.06-.08 41.5-.03zm80.45-6.92l-.08 1.06-.25 1.07-.43 1.02-.57.94-.7.83-.85.7-.94.58-1 .42-1.12.27-42.52.02v-2l42.3-.03.7-.18.73-.3.67-.42.6-.5.5-.6.42-.67.3-.7.18-.78.07-.82V183h2z" stroke="#fc9432" stroke-width=".05" fill="#fc9432"/><path d="M327.9 182.76v.27h-2v-1.77z" fill="#fc9432"/><path d="M327.93 182.74v.32h-2.05v-1.85zm-2 .27h1.95v-.23l-1.95-1.46z" stroke="#fc9432" stroke-width=".05" fill="#fc9432"/><path d="M200 238.44l-4.64-14.27h9.28z" fill="#fc9432"/><path d="M200 241.68l-6-18.5h12zm-3.26-16.5L200 235.2l3.26-10.03z" stroke="#fc9432" stroke-width=".05" fill="#fc9432"/><use xlink:href="#x" transform="matrix(1,0,0,1,247.4649230640954,202.50772688343167) translate(0 12.444444444444446)"/><path d="M535.2 244.78a8 8 0 0 1 9.6 0l110.4 82.8a4.5 4.5 0 0 1 0 7.2l-110.4 82.8a8 8 0 0 1-9.6 0l-110.4-82.8a4.5 4.5 0 0 1 0-7.2z" stroke="#007bff" stroke-width="3" fill="#f5fbff"/><use xlink:href="#a" transform="matrix(1,0,0,1,425,246.17822158610807) translate(37.025000000000006 77.8)"/><use xlink:href="#b" transform="matrix(1,0,0,1,425,246.17822158610807) translate(56.025000000000006 77.8)"/><use xlink:href="#y" transform="matrix(1,0,0,1,425,246.17822158610807) translate(86.025 77.8)"/><use xlink:href="#z" transform="matrix(1,0,0,1,425,246.17822158610807) translate(127.025 77.8)"/><use xlink:href="#A" transform="matrix(1,0,0,1,425,246.17822158610807) translate(46.625 99.4)"/><use xlink:href="#B" transform="matrix(1,0,0,1,425,246.17822158610807) translate(116.47500000000001 99.4)"/><path d="M534.04 210.03l1.06.08 1.06.26 1.02.43.94.56.83.7.72.85.57.95.42 1 .26 1.1.08 7.2-2 .03-.07-6.97-.18-.72-.3-.72-.4-.67-.52-.6-.6-.52-.66-.4-.73-.3-.76-.2-.82-.05-30.33-.03v-2zM436.28 205l.06.8.18.77.3.72.4.66.52.6.6.5.67.42.73.3.73.17 31.2.03v2l-31.44-.03-1.1-.26-1.02-.44-.94-.57-.84-.72-.7-.84-.58-.94-.42-1-.26-1.08-.08-1.06v-23.68h2z" stroke="#fc9432" stroke-width=".05" fill="#fc9432"/><path d="M436.28 181.4h-2v-.27l2-1.5z" fill="#fc9432"/><path d="M436.3 181.43h-2.05v-.32l2.05-1.53zm-2-.3v.25h1.95v-1.7z" stroke="#fc9432" stroke-width=".05" fill="#fc9432"/><path d="M540 238.44l-4.64-14.27h9.28z" fill="#fc9432"/><path d="M540 241.68l-6-18.5h12zm-3.26-16.5L540 235.2l3.26-10.03z" stroke="#fc9432" stroke-width=".05" fill="#fc9432"/><use xlink:href="#C" transform="matrix(1,0,0,1,471.6502411553532,201.69174226301888) translate(0 12.444444444444446)"/><path d="M541 700h-2V578.94h2zm0-139.73h-2v-138.6h2z" stroke="#008a0e" stroke-width=".05" fill="#008a0e"/><path d="M540 420.68l1-.06v1.1h-2v-1.1z" fill="#008a0e"/><path d="M540 420.66l1.02-.07v1.13H539v-1.14zm-.98 1.02H541v-1.04l-.98.07-.98-.06z" stroke="#008a0e" stroke-width=".05" fill="#008a0e"/><path d="M540 715.28L535.36 701h9.28z" fill="#008a0e"/><path d="M540 718.52l-6-18.5h12zm-3.26-16.5l3.26 10.02 3.26-10.03z" stroke="#008a0e" stroke-width=".05" fill="#008a0e"/><use xlink:href="#D" transform="matrix(1,0,0,1,524.4444444444445,560.2658622257908) translate(0 12.444444444444446)"/><path d="M668.5 332.18h-9v-2h9zm31.5 0h-8.2v-2h8.2z" stroke="#e81313" stroke-width=".05" fill="#e81313"/><path d="M659.53 332.18h-1.12l.1-1-.1-1h1.13z" fill="#e81313"/><path d="M659.56 332.2h-1.17l.08-1.02-.1-1.03h1.18zm-1.12-2l.1.98-.1.97h1.07v-1.95z" stroke="#e81313" stroke-width=".05" fill="#e81313"/><path d="M715.28 331.18L701 335.8v-9.26z" fill="#e81313"/><path d="M718.5 331.18l-18.5 6v-12zm-16.5 3.26l10.04-3.26-10.03-3.26z" stroke="#e81313" stroke-width=".05" fill="#e81313"/><use xlink:href="#E" transform="matrix(1,0,0,1,668.5059337363867,321.84488825277475) translate(0 12.444444444444446)"/><path d="M375.2 363.6a8 8 0 0 1 9.6 0l110.4 82.8a4.5 4.5 0 0 1 0 7.2l-110.4 82.8a8 8 0 0 1-9.6 0l-110.4-82.8a4.5 4.5 0 0 1 0-7.2z" stroke="#007bff" stroke-width="3" fill="#f5fbff"/><use xlink:href="#h" transform="matrix(1,0,0,1,265,365) translate(115 56.19999999999999)"/><use xlink:href="#i" transform="matrix(1,0,0,1,265,365) translate(33.7 77.8)"/><use xlink:href="#b" transform="matrix(1,0,0,1,265,365) translate(80.65 77.8)"/><use xlink:href="#j" transform="matrix(1,0,0,1,265,365) translate(110.65 77.8)"/><use xlink:href="#k" transform="matrix(1,0,0,1,265,365) translate(132.3 77.8)"/><use xlink:href="#l" transform="matrix(1,0,0,1,265,365) translate(176.3 77.8)"/><use xlink:href="#m" transform="matrix(1,0,0,1,265,365) translate(43.07499999999999 99.4)"/><use xlink:href="#F" transform="matrix(1,0,0,1,265,365) translate(134.02499999999998 99.4)"/><use xlink:href="#e" transform="matrix(1,0,0,1,265,365) translate(56.525 121)"/><use xlink:href="#o" transform="matrix(1,0,0,1,265,365) translate(97.525 121)"/><path d="M376.16 330.52l1.02.42.94.57.83.73.72.83.57.94.42 1 .26 1.1.08 5.88-2 .03-.07-5.64-.18-.73-.3-.72-.4-.66-.52-.6-.6-.5-.66-.4-.7-.3v-2.07zm-56.65 1.66v-2h32.77v2z" stroke="#e81313" stroke-width=".05" fill="#e81313"/><path d="M319.53 332.18h-1.12l.1-1-.1-1h1.13z" fill="#e81313"/><path d="M319.56 332.2h-1.17l.08-1.02-.1-1.03h1.18zm-1.12-2l.1.98-.1.97h1.07v-1.95z" stroke="#e81313" stroke-width=".05" fill="#e81313"/><path d="M380 357.26L375.36 343h9.28z" fill="#e81313"/><path d="M380 360.5l-6-18.5h12zm-3.26-16.5l3.26 10.02 3.26-10.02z" stroke="#e81313" stroke-width=".05" fill="#e81313"/><g><use xlink:href="#E" transform="matrix(1,0,0,1,352.26749746216353,321.84488825277475) translate(0 12.444444444444446)"/></g><path d="M543.57 445.1l2.12 2.92.15.98h51.02v2h-52.72l-.35-2.18-1.46-2-2.42-.8-1.1.18-2 1.46-1.1 3.34h-36.2v-2h34.75l.84-2.57 2.92-2.12 2.06-.33zm156.46 3.9v2h-79.87v-2z" stroke="#e81313" stroke-width=".05" fill="#e81313"/><path d="M499.53 451h-1.12l.1-1-.1-1h1.13z" fill="#e81313"/><path d="M499.56 451.02h-1.17l.08-1.02-.1-1.02h1.18zm-1.12-2l.1.98-.1.98h1.07v-1.96z" stroke="#e81313" stroke-width=".05" fill="#e81313"/><path d="M715.3 450l-14.27 4.64v-9.28z" fill="#e81313"/><path d="M718.53 450l-18.5 6v-12zm-16.5 3.26l10.03-3.26-10.03-3.26z" stroke="#e81313" stroke-width=".05" fill="#e81313"/><g><use xlink:href="#E" transform="matrix(1,0,0,1,596.8724306712039,440.6666666666667) translate(0 12.444444444444446)"/></g><path d="M201 580.06h-2v-61.1h2zm0-79.77h-2v-78.62h2z" stroke="#008a0e" stroke-width=".05" fill="#008a0e"/><path d="M200 420.68l1-.06v1.1h-2v-1.1z" fill="#008a0e"/><path d="M200 420.66l1.03-.07v1.13h-2.06v-1.14zm-.97 1.02h1.94v-1.04l-.97.07-.97-.06z" stroke="#008a0e" stroke-width=".05" fill="#008a0e"/><path d="M200 595.32l-4.64-14.26h9.28z" fill="#008a0e"/><path d="M200 598.56l-6-18.5h12zm-3.26-16.5L200 592.1l3.26-10.04z" stroke="#008a0e" stroke-width=".05" fill="#008a0e"/><g><use xlink:href="#D" transform="matrix(1,0,0,1,184.44444444444446,500.28788536071266) translate(0 12.444444444444446)"/></g><path d="M381 580h-2v-1.66h2zm0-20.33h-2V540.5h2z" stroke="#008a0e" stroke-width=".05" fill="#008a0e"/><path d="M380 539.5l1-.06v1.1h-2v-1.1z" fill="#008a0e"/><path d="M380 539.48l1.02-.07v1.15h-2.04v-1.14zm-.98 1.02h1.96v-1.03l-.98.06-.98-.06z" stroke="#008a0e" stroke-width=".05" fill="#008a0e"/><path d="M380 595.27L375.36 581h9.28z" fill="#008a0e"/><path d="M380 598.5l-6-18.5h12zm-3.26-16.5l3.26 10.04 3.26-10.03z" stroke="#008a0e" stroke-width=".05" fill="#008a0e"/><g><use xlink:href="#D" transform="matrix(1,0,0,1,364.44444444444446,559.6730678168177) translate(0 12.444444444444446)"/></g><path d="M150.02 606a6 6 0 0 1 6-6H414a6 6 0 0 1 6 6v66.35a6 6 0 0 1-6 6H156.02a6 6 0 0 1-6-6z" stroke="#007bff" stroke-width="3" fill="#f5fbff"/><g><use xlink:href="#G" transform="matrix(1,0,0,1,155.02023296839275,605) translate(53.47500000000005 27.300000000000004)"/><use xlink:href="#H" transform="matrix(1,0,0,1,155.02023296839275,605) translate(122.325 27.300000000000004)"/><use xlink:href="#I" transform="matrix(1,0,0,1,155.02023296839275,605) translate(152.325 27.300000000000004)"/><use xlink:href="#J" transform="matrix(1,0,0,1,155.02023296839275,605) translate(191.52499999999995 27.300000000000004)"/><use xlink:href="#K" transform="matrix(1,0,0,1,155.02023296839275,605) translate(64.25000000000004 48.89999999999999)"/><use xlink:href="#L" transform="matrix(1,0,0,1,155.02023296839275,605) translate(176.04999999999995 48.89999999999999)"/></g><path d="M285 680.8v19.25" stroke="#224c72" stroke-width="2" fill="none"/><path d="M286 680.84h-2v-1.03h2z" stroke="#224c72" stroke-width=".05" fill="#224c72"/><path d="M285 715.3l-4.63-14.25h9.28z" stroke="#224c72" stroke-width="2" fill="#224c72"/><defs><path fill="#1d262b" d="M33 0v-248h34V0H33" id="M"/><path fill="#1d262b" d="M135-143c-3-34-86-38-87 0 15 53 115 12 119 90S17 21 10-45l28-5c4 36 97 45 98 0-10-56-113-15-118-90-4-57 82-63 122-42 12 7 21 19 24 35" id="N"/><g id="a"><use transform="matrix(0.05,0,0,0.05,0,0)" xlink:href="#M"/><use transform="matrix(0.05,0,0,0.05,5,0)" xlink:href="#N"/></g><path fill="#1d262b" d="M59-47c-2 24 18 29 38 22v24C64 9 27 4 27-40v-127H5v-23h24l9-43h21v43h35v23H59v120" id="O"/><path fill="#1d262b" d="M106-169C34-169 62-67 57 0H25v-261h32l-1 103c12-21 28-36 61-36 89 0 53 116 60 194h-32v-121c2-32-8-49-39-48" id="P"/><path fill="#1d262b" d="M100-194c63 0 86 42 84 106H49c0 40 14 67 53 68 26 1 43-12 49-29l28 8c-11 28-37 45-77 45C44 4 14-33 15-96c1-61 26-98 85-98zm52 81c6-60-76-77-97-28-3 7-6 17-6 28h103" id="Q"/><g id="b"><use transform="matrix(0.05,0,0,0.05,0,0)" xlink:href="#O"/><use transform="matrix(0.05,0,0,0.05,5,0)" xlink:href="#P"/><use transform="matrix(0.05,0,0,0.05,15,0)" xlink:href="#Q"/></g><path fill="#1d262b" d="M100-194c62-1 85 37 85 99 1 63-27 99-86 99S16-35 15-95c0-66 28-99 85-99zM99-20c44 1 53-31 53-75 0-43-8-75-51-75s-53 32-53 75 10 74 51 75" id="R"/><path fill="#1d262b" d="M84 4C-5 8 30-112 23-190h32v120c0 31 7 50 39 49 72-2 45-101 50-169h31l1 190h-30c-1-10 1-25-2-33-11 22-28 36-60 37" id="S"/><path fill="#1d262b" d="M114-163C36-179 61-72 57 0H25l-1-190h30c1 12-1 29 2 39 6-27 23-49 58-41v29" id="T"/><path fill="#1d262b" d="M96-169c-40 0-48 33-48 73s9 75 48 75c24 0 41-14 43-38l32 2c-6 37-31 61-74 61-59 0-76-41-82-99-10-93 101-131 147-64 4 7 5 14 7 22l-32 3c-4-21-16-35-41-35" id="U"/><g id="c"><use transform="matrix(0.05,0,0,0.05,0,0)" xlink:href="#N"/><use transform="matrix(0.05,0,0,0.05,9,0)" xlink:href="#R"/><use transform="matrix(0.05,0,0,0.05,19,0)" xlink:href="#S"/><use transform="matrix(0.05,0,0,0.05,29,0)" xlink:href="#T"/><use transform="matrix(0.05,0,0,0.05,34.95,0)" xlink:href="#U"/><use transform="matrix(0.05,0,0,0.05,43.95,0)" xlink:href="#Q"/></g><path fill="#1d262b" d="M141-36C126-15 110 5 73 4 37 3 15-17 15-53c-1-64 63-63 125-63 3-35-9-54-41-54-24 1-41 7-42 31l-33-3c5-37 33-52 76-52 45 0 72 20 72 64v82c-1 20 7 32 28 27v20c-31 9-61-2-59-35zM48-53c0 20 12 33 32 33 41-3 63-29 60-74-43 2-92-5-92 41" id="V"/><path fill="#1d262b" d="M85-194c31 0 48 13 60 33l-1-100h32l1 261h-30c-2-10 0-23-3-31C134-8 116 4 85 4 32 4 16-35 15-94c0-66 23-100 70-100zm9 24c-40 0-46 34-46 75 0 40 6 74 45 74 42 0 51-32 51-76 0-42-9-74-50-73" id="W"/><g id="d"><use transform="matrix(0.05,0,0,0.05,0,0)" xlink:href="#V"/><use transform="matrix(0.05,0,0,0.05,10,0)" xlink:href="#W"/><use transform="matrix(0.05,0,0,0.05,20,0)" xlink:href="#W"/><use transform="matrix(0.05,0,0,0.05,30,0)" xlink:href="#T"/><use transform="matrix(0.05,0,0,0.05,35.95,0)" xlink:href="#Q"/><use transform="matrix(0.05,0,0,0.05,45.95,0)" xlink:href="#N"/><use transform="matrix(0.05,0,0,0.05,54.95,0)" xlink:href="#N"/></g><path fill="#1d262b" d="M30-248c87 1 191-15 191 75 0 78-77 80-158 76V0H30v-248zm33 125c57 0 124 11 124-50 0-59-68-47-124-48v98" id="X"/><path fill="#1d262b" d="M108 0H70L1-190h34L89-25l56-165h34" id="Y"/><path fill="#1d262b" d="M155-56V0h-30v-56H8v-25l114-167h33v167h35v25h-35zm-30-156c-27 46-58 90-88 131h88v-131" id="Z"/><g id="e"><use transform="matrix(0.05,0,0,0.05,0,0)" xlink:href="#M"/><use transform="matrix(0.05,0,0,0.05,5,0)" xlink:href="#X"/><use transform="matrix(0.05,0,0,0.05,17,0)" xlink:href="#Y"/><use transform="matrix(0.05,0,0,0.05,26,0)" xlink:href="#Z"/></g><g id="f"><use transform="matrix(0.05,0,0,0.05,0,0)" xlink:href="#R"/><use transform="matrix(0.05,0,0,0.05,10,0)" xlink:href="#T"/></g><path fill="#1d262b" d="M110-160c48 1 74 30 74 79 0 53-28 85-80 85-65 0-83-55-86-122-5-90 50-162 133-122 14 7 22 21 27 39l-31 6c-5-40-67-38-82-6-9 19-15 44-15 74 11-20 30-34 60-33zm-7 138c34 0 49-23 49-58s-16-56-50-56c-29 0-50 16-49 49 1 36 15 65 50 65" id="aa"/><path fill="#1d262b" d="M103-251c84 0 111 97 45 133-19 10-37 24-39 52H78c0-63 77-55 77-114 0-30-21-42-52-43-32 0-53 17-56 46l-32-2c7-45 34-72 88-72zM77 0v-35h34V0H77" id="ab"/><g id="g"><use transform="matrix(0.05,0,0,0.05,0,0)" xlink:href="#M"/><use transform="matrix(0.05,0,0,0.05,5,0)" xlink:href="#X"/><use transform="matrix(0.05,0,0,0.05,17,0)" xlink:href="#Y"/><use transform="matrix(0.05,0,0,0.05,26,0)" xlink:href="#aa"/><use transform="matrix(0.05,0,0,0.05,36,0)" xlink:href="#ab"/></g><path fill="#1d262b" d="M30-248c118-7 216 8 213 122C240-48 200 0 122 0H30v-248zM63-27c89 8 146-16 146-99s-60-101-146-95v194" id="ac"/><g id="i"><use transform="matrix(0.05,0,0,0.05,0,0)" xlink:href="#ac"/><use transform="matrix(0.05,0,0,0.05,12.950000000000001,0)" xlink:href="#R"/><use transform="matrix(0.05,0,0,0.05,22.950000000000003,0)" xlink:href="#Q"/><use transform="matrix(0.05,0,0,0.05,32.95,0)" xlink:href="#N"/></g><g id="j"><use transform="matrix(0.05,0,0,0.05,0,0)" xlink:href="#M"/><use transform="matrix(0.05,0,0,0.05,5,0)" xlink:href="#X"/></g><g id="k"><use transform="matrix(0.05,0,0,0.05,0,0)" xlink:href="#P"/><use transform="matrix(0.05,0,0,0.05,10,0)" xlink:href="#V"/><use transform="matrix(0.05,0,0,0.05,20,0)" xlink:href="#Y"/><use transform="matrix(0.05,0,0,0.05,29,0)" xlink:href="#Q"/></g><path fill="#1d262b" d="M117-194c89-4 53 116 60 194h-32v-121c0-31-8-49-39-48C34-167 62-67 57 0H25l-1-190h30c1 10-1 24 2 32 11-22 29-35 61-36" id="ad"/><g id="l"><use transform="matrix(0.05,0,0,0.05,0,0)" xlink:href="#V"/><use transform="matrix(0.05,0,0,0.05,10,0)" xlink:href="#ad"/></g><path fill="#1d262b" d="M24-231v-30h32v30H24zM24 0v-190h32V0H24" id="ae"/><g id="m"><use transform="matrix(0.05,0,0,0.05,0,0)" xlink:href="#V"/><use transform="matrix(0.05,0,0,0.05,10,0)" xlink:href="#N"/><use transform="matrix(0.05,0,0,0.05,19,0)" xlink:href="#N"/><use transform="matrix(0.05,0,0,0.05,28,0)" xlink:href="#R"/><use transform="matrix(0.05,0,0,0.05,38,0)" xlink:href="#U"/><use transform="matrix(0.05,0,0,0.05,47,0)" xlink:href="#ae"/><use transform="matrix(0.05,0,0,0.05,50.95,0)" xlink:href="#V"/><use transform="matrix(0.05,0,0,0.05,60.95,0)" xlink:href="#O"/><use transform="matrix(0.05,0,0,0.05,65.95,0)" xlink:href="#Q"/><use transform="matrix(0.05,0,0,0.05,75.95,0)" xlink:href="#W"/></g><path fill="#1d262b" d="M115-194c53 0 69 39 70 98 0 66-23 100-70 100C84 3 66-7 56-30L54 0H23l1-261h32v101c10-23 28-34 59-34zm-8 174c40 0 45-34 45-75 0-40-5-75-45-74-42 0-51 32-51 76 0 43 10 73 51 73" id="af"/><path fill="#1d262b" d="M24 0v-261h32V0H24" id="ag"/><g id="n"><use transform="matrix(0.05,0,0,0.05,0,0)" xlink:href="#X"/><use transform="matrix(0.05,0,0,0.05,12,0)" xlink:href="#S"/><use transform="matrix(0.05,0,0,0.05,22,0)" xlink:href="#af"/><use transform="matrix(0.05,0,0,0.05,32,0)" xlink:href="#ag"/><use transform="matrix(0.05,0,0,0.05,35.95,0)" xlink:href="#ae"/><use transform="matrix(0.05,0,0,0.05,39.900000000000006,0)" xlink:href="#U"/></g><path fill="#1d262b" d="M205 0l-28-72H64L36 0H1l101-248h38L239 0h-34zm-38-99l-47-123c-12 45-31 82-46 123h93" id="ah"/><g id="o"><use transform="matrix(0.05,0,0,0.05,0,0)" xlink:href="#ah"/><use transform="matrix(0.05,0,0,0.05,12,0)" xlink:href="#W"/><use transform="matrix(0.05,0,0,0.05,22,0)" xlink:href="#W"/><use transform="matrix(0.05,0,0,0.05,32,0)" xlink:href="#T"/><use transform="matrix(0.05,0,0,0.05,37.95,0)" xlink:href="#Q"/><use transform="matrix(0.05,0,0,0.05,47.95,0)" xlink:href="#N"/><use transform="matrix(0.05,0,0,0.05,56.95,0)" xlink:href="#N"/><use transform="matrix(0.05,0,0,0.05,65.95,0)" xlink:href="#ab"/></g><path fill="#1d262b" d="M24-248c120-7 223 5 221 122C244-46 201 0 124 0H24v-248zM76-40c74 7 117-18 117-86 0-67-45-88-117-82v168" id="ai"/><path fill="#1d262b" d="M25-224v-37h50v37H25zM25 0v-190h50V0H25" id="aj"/><path fill="#1d262b" d="M137-138c1-29-70-34-71-4 15 46 118 7 119 86 1 83-164 76-172 9l43-7c4 19 20 25 44 25 33 8 57-30 24-41C81-84 22-81 20-136c-2-80 154-74 161-7" id="ak"/><path fill="#1d262b" d="M190-63c-7 42-38 67-86 67-59 0-84-38-90-98-12-110 154-137 174-36l-49 2c-2-19-15-32-35-32-30 0-35 28-38 64-6 74 65 87 74 30" id="al"/><path fill="#1d262b" d="M133-34C117-15 103 5 69 4 32 3 11-16 11-54c-1-60 55-63 116-61 1-26-3-47-28-47-18 1-26 9-28 27l-52-2c7-38 36-58 82-57s74 22 75 68l1 82c-1 14 12 18 25 15v27c-30 8-71 5-69-32zm-48 3c29 0 43-24 42-57-32 0-66-3-65 30 0 17 8 27 23 27" id="am"/><path fill="#1d262b" d="M135-150c-39-12-60 13-60 57V0H25l-1-190h47c2 13-1 29 3 40 6-28 27-53 61-41v41" id="an"/><path fill="#1d262b" d="M88-194c31-1 46 15 58 34l-1-101h50l1 261h-48c-2-10 0-23-3-31C134-8 116 4 84 4 32 4 16-41 15-95c0-56 19-97 73-99zm17 164c33 0 40-30 41-66 1-37-9-64-41-64s-38 30-39 65c0 43 13 65 39 65" id="ao"/><g id="p"><use transform="matrix(0.08703703703703701,0,0,0.08703703703703701,0,0)" xlink:href="#ai"/><use transform="matrix(0.08703703703703701,0,0,0.08703703703703701,22.542592592592584,0)" xlink:href="#aj"/><use transform="matrix(0.08703703703703701,0,0,0.08703703703703701,31.246296296296286,0)" xlink:href="#ak"/><use transform="matrix(0.08703703703703701,0,0,0.08703703703703701,48.65370370370369,0)" xlink:href="#al"/><use transform="matrix(0.08703703703703701,0,0,0.08703703703703701,66.06111111111109,0)" xlink:href="#am"/><use transform="matrix(0.08703703703703701,0,0,0.08703703703703701,83.4685185185185,0)" xlink:href="#an"/><use transform="matrix(0.08703703703703701,0,0,0.08703703703703701,95.65370370370367,0)" xlink:href="#ao"/></g><path fill="#1d262b" d="M24 0v-248h195v40H76v63h132v40H76v65h150V0H24" id="ap"/><path fill="#1d262b" d="M195-6C206 82 75 100 31 46c-4-6-6-13-8-21l49-6c3 16 16 24 34 25 40 0 42-37 40-79-11 22-30 35-61 35-53 0-70-43-70-97 0-56 18-96 73-97 30 0 46 14 59 34l2-30h47zm-90-29c32 0 41-27 41-63 0-35-9-62-40-62-32 0-39 29-40 63 0 36 9 62 39 62" id="aq"/><path fill="#1d262b" d="M185-48c-13 30-37 53-82 52C43 2 14-33 14-96s30-98 90-98c62 0 83 45 84 108H66c0 31 8 55 39 56 18 0 30-7 34-22zm-45-69c5-46-57-63-70-21-2 6-4 13-4 21h74" id="ar"/><g id="q"><use transform="matrix(0.08703703703703701,0,0,0.08703703703703701,0,0)" xlink:href="#ap"/><use transform="matrix(0.08703703703703701,0,0,0.08703703703703701,20.888888888888882,0)" xlink:href="#aq"/><use transform="matrix(0.08703703703703701,0,0,0.08703703703703701,39.94999999999999,0)" xlink:href="#an"/><use transform="matrix(0.08703703703703701,0,0,0.08703703703703701,52.13518518518517,0)" xlink:href="#ar"/><use transform="matrix(0.08703703703703701,0,0,0.08703703703703701,69.54259259259257,0)" xlink:href="#ak"/><use transform="matrix(0.08703703703703701,0,0,0.08703703703703701,86.94999999999997,0)" xlink:href="#ak"/></g><path fill="#1d262b" d="M115-3C79 11 28 4 28-45v-112H4v-33h27l15-45h31v45h36v33H77v99c-1 23 16 31 38 25v30" id="as"/><path fill="#1d262b" d="M110-194c64 0 96 36 96 99 0 64-35 99-97 99-61 0-95-36-95-99 0-62 34-99 96-99zm-1 164c35 0 45-28 45-65 0-40-10-65-43-65-34 0-45 26-45 65 0 36 10 65 43 65" id="at"/><g id="r"><use transform="matrix(0.08703703703703701,0,0,0.08703703703703701,0,0)" xlink:href="#as"/><use transform="matrix(0.08703703703703701,0,0,0.08703703703703701,10.357407407407404,0)" xlink:href="#at"/></g><path fill="#1d262b" d="M24 0v-248h52V0H24" id="au"/><path fill="#1d262b" d="M135-194c87-1 58 113 63 194h-50c-7-57 23-157-34-157-59 0-34 97-39 157H25l-1-190h47c2 12-1 28 3 38 12-26 28-41 61-42" id="av"/><g id="s"><use transform="matrix(0.08703703703703701,0,0,0.08703703703703701,0,0)" xlink:href="#au"/><use transform="matrix(0.08703703703703701,0,0,0.08703703703703701,8.7037037037037,0)" xlink:href="#av"/><use transform="matrix(0.08703703703703701,0,0,0.08703703703703701,27.764814814814805,0)" xlink:href="#as"/><use transform="matrix(0.08703703703703701,0,0,0.08703703703703701,38.122222222222206,0)" xlink:href="#ar"/><use transform="matrix(0.08703703703703701,0,0,0.08703703703703701,55.52962962962961,0)" xlink:href="#an"/><use transform="matrix(0.08703703703703701,0,0,0.08703703703703701,67.71481481481479,0)" xlink:href="#av"/><use transform="matrix(0.08703703703703701,0,0,0.08703703703703701,86.77592592592589,0)" xlink:href="#ar"/><use transform="matrix(0.08703703703703701,0,0,0.08703703703703701,104.1833333333333,0)" xlink:href="#as"/></g><path fill="#fff" d="M24-248c93 1 206-16 204 79-1 75-69 88-152 82V0H24v-248zm52 121c47 0 100 7 100-41 0-47-54-39-100-39v80" id="aw"/><path fill="#fff" d="M133-34C117-15 103 5 69 4 32 3 11-16 11-54c-1-60 55-63 116-61 1-26-3-47-28-47-18 1-26 9-28 27l-52-2c7-38 36-58 82-57s74 22 75 68l1 82c-1 14 12 18 25 15v27c-30 8-71 5-69-32zm-48 3c29 0 43-24 42-57-32 0-66-3-65 30 0 17 8 27 23 27" id="ax"/><path fill="#fff" d="M190-63c-7 42-38 67-86 67-59 0-84-38-90-98-12-110 154-137 174-36l-49 2c-2-19-15-32-35-32-30 0-35 28-38 64-6 74 65 87 74 30" id="ay"/><path fill="#fff" d="M147 0L96-86 75-71V0H25v-261h50v150l67-79h53l-66 74L201 0h-54" id="az"/><path fill="#fff" d="M185-48c-13 30-37 53-82 52C43 2 14-33 14-96s30-98 90-98c62 0 83 45 84 108H66c0 31 8 55 39 56 18 0 30-7 34-22zm-45-69c5-46-57-63-70-21-2 6-4 13-4 21h74" id="aA"/><path fill="#fff" d="M115-3C79 11 28 4 28-45v-112H4v-33h27l15-45h31v45h36v33H77v99c-1 23 16 31 38 25v30" id="aB"/><g id="t"><use transform="matrix(0.05,0,0,0.05,0,0)" xlink:href="#aw"/><use transform="matrix(0.05,0,0,0.05,12,0)" xlink:href="#ax"/><use transform="matrix(0.05,0,0,0.05,22,0)" xlink:href="#ay"/><use transform="matrix(0.05,0,0,0.05,32,0)" xlink:href="#az"/><use transform="matrix(0.05,0,0,0.05,42,0)" xlink:href="#aA"/><use transform="matrix(0.05,0,0,0.05,52,0)" xlink:href="#aB"/></g><path fill="#fff" d="M24 0v-248h52V0H24" id="aC"/><path fill="#fff" d="M135-194c87-1 58 113 63 194h-50c-7-57 23-157-34-157-59 0-34 97-39 157H25l-1-190h47c2 12-1 28 3 38 12-26 28-41 61-42" id="aD"/><path fill="#fff" d="M195-6C206 82 75 100 31 46c-4-6-6-13-8-21l49-6c3 16 16 24 34 25 40 0 42-37 40-79-11 22-30 35-61 35-53 0-70-43-70-97 0-56 18-96 73-97 30 0 46 14 59 34l2-30h47zm-90-29c32 0 41-27 41-63 0-35-9-62-40-62-32 0-39 29-40 63 0 36 9 62 39 62" id="aE"/><path fill="#fff" d="M135-150c-39-12-60 13-60 57V0H25l-1-190h47c2 13-1 29 3 40 6-28 27-53 61-41v41" id="aF"/><path fill="#fff" d="M137-138c1-29-70-34-71-4 15 46 118 7 119 86 1 83-164 76-172 9l43-7c4 19 20 25 44 25 33 8 57-30 24-41C81-84 22-81 20-136c-2-80 154-74 161-7" id="aG"/><g id="u"><use transform="matrix(0.05,0,0,0.05,0,0)" xlink:href="#aC"/><use transform="matrix(0.05,0,0,0.05,5,0)" xlink:href="#aD"/><use transform="matrix(0.05,0,0,0.05,15.950000000000001,0)" xlink:href="#aE"/><use transform="matrix(0.05,0,0,0.05,26.900000000000002,0)" xlink:href="#aF"/><use transform="matrix(0.05,0,0,0.05,33.900000000000006,0)" xlink:href="#aA"/><use transform="matrix(0.05,0,0,0.05,43.900000000000006,0)" xlink:href="#aG"/><use transform="matrix(0.05,0,0,0.05,53.900000000000006,0)" xlink:href="#aG"/></g><path fill="#fff" d="M121-226c-27-7-43 5-38 36h38v33H83V0H34v-157H6v-33h28c-9-59 32-81 87-68v32" id="aH"/><path fill="#fff" d="M110-194c64 0 96 36 96 99 0 64-35 99-97 99-61 0-95-36-95-99 0-62 34-99 96-99zm-1 164c35 0 45-28 45-65 0-40-10-65-43-65-34 0-45 26-45 65 0 36 10 65 43 65" id="aI"/><path fill="#fff" d="M220-157c-53 9-28 100-34 157h-49v-107c1-27-5-49-29-50C55-147 81-57 75 0H25l-1-190h47c2 12-1 28 3 38 10-53 101-56 108 0 13-22 24-43 59-42 82 1 51 116 57 194h-49v-107c-1-25-5-48-29-50" id="aJ"/><g id="v"><use transform="matrix(0.05,0,0,0.05,0,0)" xlink:href="#aH"/><use transform="matrix(0.05,0,0,0.05,5.95,0)" xlink:href="#aF"/><use transform="matrix(0.05,0,0,0.05,12.949999999999998,0)" xlink:href="#aI"/><use transform="matrix(0.05,0,0,0.05,23.9,0)" xlink:href="#aJ"/></g><path fill="#fff" d="M147 0H94L2-248h55l64 206c17-72 42-137 63-206h54" id="aK"/><path fill="#fff" d="M67-125c0 53 21 87 73 88 37 1 54-22 65-47l45 17C233-25 199 4 140 4 58 4 20-42 15-125 8-235 124-281 211-232c18 10 29 29 36 50l-46 12c-8-25-30-41-62-41-52 0-71 34-72 86" id="aL"/><g id="w"><use transform="matrix(0.05,0,0,0.05,0,0)" xlink:href="#aK"/><use transform="matrix(0.05,0,0,0.05,12,0)" xlink:href="#aw"/><use transform="matrix(0.05,0,0,0.05,24,0)" xlink:href="#aL"/></g><path fill="#fc9432" d="M24 0v-248h52V0H24" id="aM"/><path fill="#fc9432" d="M24-248c93 1 206-16 204 79-1 75-69 88-152 82V0H24v-248zm52 121c47 0 100 7 100-41 0-47-54-39-100-39v80" id="aN"/><path fill="#fc9432" d="M128 0H69L1-190h53L99-40l48-150h52" id="aO"/><path fill="#fc9432" d="M165-50V0h-47v-50H5v-38l105-160h55v161h33v37h-33zm-47-37l2-116L46-87h72" id="aP"/><g id="x"><use transform="matrix(0.04320987654320988,0,0,0.04320987654320988,0,0)" xlink:href="#aM"/><use transform="matrix(0.04320987654320988,0,0,0.04320987654320988,4.320987654320988,0)" xlink:href="#aN"/><use transform="matrix(0.04320987654320988,0,0,0.04320987654320988,14.691358024691363,0)" xlink:href="#aO"/><use transform="matrix(0.04320987654320988,0,0,0.04320987654320988,23.333333333333336,0)" xlink:href="#aP"/></g><g id="y"><use transform="matrix(0.05,0,0,0.05,0,0)" xlink:href="#M"/><use transform="matrix(0.05,0,0,0.05,5,0)" xlink:href="#X"/><use transform="matrix(0.05,0,0,0.05,17,0)" xlink:href="#Y"/><use transform="matrix(0.05,0,0,0.05,26,0)" xlink:href="#aa"/></g><g id="z"><use transform="matrix(0.05,0,0,0.05,0,0)" xlink:href="#ah"/><use transform="matrix(0.05,0,0,0.05,12,0)" xlink:href="#W"/><use transform="matrix(0.05,0,0,0.05,22,0)" xlink:href="#W"/><use transform="matrix(0.05,0,0,0.05,32,0)" xlink:href="#T"/><use transform="matrix(0.05,0,0,0.05,37.95,0)" xlink:href="#Q"/><use transform="matrix(0.05,0,0,0.05,47.95,0)" xlink:href="#N"/><use transform="matrix(0.05,0,0,0.05,56.95,0)" xlink:href="#N"/></g><path fill="#1d262b" d="M143 4C61 4 22-44 18-125c-5-107 100-154 193-111 17 8 29 25 37 43l-32 9c-13-25-37-40-76-40-61 0-88 39-88 99 0 61 29 100 91 101 35 0 62-11 79-27v-45h-74v-28h105v86C228-13 192 4 143 4" id="aQ"/><path fill="#1d262b" d="M179-190L93 31C79 59 56 82 12 73V49c39 6 53-20 64-50L1-190h34L92-34l54-156h33" id="aR"/><g id="A"><use transform="matrix(0.05,0,0,0.05,0,0)" xlink:href="#aQ"/><use transform="matrix(0.05,0,0,0.05,14,0)" xlink:href="#ag"/><use transform="matrix(0.05,0,0,0.05,17.95,0)" xlink:href="#R"/><use transform="matrix(0.05,0,0,0.05,27.950000000000003,0)" xlink:href="#af"/><use transform="matrix(0.05,0,0,0.05,37.95,0)" xlink:href="#V"/><use transform="matrix(0.05,0,0,0.05,47.95,0)" xlink:href="#ag"/><use transform="matrix(0.05,0,0,0.05,51.900000000000006,0)" xlink:href="#ag"/><use transform="matrix(0.05,0,0,0.05,55.85,0)" xlink:href="#aR"/></g><path fill="#1d262b" d="M232-93c-1 65-40 97-104 97C67 4 28-28 28-90v-158h33c8 89-33 224 67 224 102 0 64-133 71-224h33v155" id="aS"/><path fill="#1d262b" d="M145-31C134-9 116 4 85 4 32 4 16-35 15-94c0-59 17-99 70-100 32-1 48 14 60 33 0-11-1-24 2-32h30l-1 268h-32zM93-21c41 0 51-33 51-76s-8-73-50-73c-40 0-46 35-46 75s5 74 45 74" id="aT"/><g id="B"><use transform="matrix(0.05,0,0,0.05,0,0)" xlink:href="#aS"/><use transform="matrix(0.05,0,0,0.05,12.950000000000001,0)" xlink:href="#ad"/><use transform="matrix(0.05,0,0,0.05,22.950000000000003,0)" xlink:href="#ae"/><use transform="matrix(0.05,0,0,0.05,26.900000000000002,0)" xlink:href="#aT"/><use transform="matrix(0.05,0,0,0.05,36.900000000000006,0)" xlink:href="#S"/><use transform="matrix(0.05,0,0,0.05,46.900000000000006,0)" xlink:href="#Q"/><use transform="matrix(0.05,0,0,0.05,56.900000000000006,0)" xlink:href="#ab"/></g><path fill="#fc9432" d="M115-159c48 0 72 30 72 78 0 54-30 85-83 85-64 0-91-50-91-122 0-98 58-163 141-120 15 8 21 24 27 44l-47 6c-5-31-48-31-61-4-7 14-11 33-11 60 9-17 28-27 53-27zM102-35c24 0 36-20 36-45s-11-43-37-43c-23 0-36 14-36 38 0 27 11 50 37 50" id="aU"/><g id="C"><use transform="matrix(0.04320987654320988,0,0,0.04320987654320988,0,0)" xlink:href="#aM"/><use transform="matrix(0.04320987654320988,0,0,0.04320987654320988,4.320987654320988,0)" xlink:href="#aN"/><use transform="matrix(0.04320987654320988,0,0,0.04320987654320988,14.691358024691363,0)" xlink:href="#aO"/><use transform="matrix(0.04320987654320988,0,0,0.04320987654320988,23.333333333333336,0)" xlink:href="#aU"/></g><path fill="#54c45e" d="M146-102V0H94v-102L6-248h54l60 105 60-105h54" id="aV"/><path fill="#54c45e" d="M24 0v-248h195v40H76v63h132v40H76v65h150V0H24" id="aW"/><path fill="#54c45e" d="M169-182c-1-43-94-46-97-3 18 66 151 10 154 114 3 95-165 93-204 36-6-8-10-19-12-30l50-8c3 46 112 56 116 5-17-69-150-10-154-114-4-87 153-88 188-35 5 8 8 18 10 28" id="aX"/><g id="D"><use transform="matrix(0.04320987654320988,0,0,0.04320987654320988,0,0)" xlink:href="#aV"/><use transform="matrix(0.04320987654320988,0,0,0.04320987654320988,10.370370370370372,0)" xlink:href="#aW"/><use transform="matrix(0.04320987654320988,0,0,0.04320987654320988,20.740740740740744,0)" xlink:href="#aX"/></g><path fill="#e81313" d="M175 0L67-191c6 58 2 128 3 191H24v-248h59L193-55c-6-58-2-129-3-193h46V0h-61" id="aY"/><path fill="#e81313" d="M140-251c80 0 125 45 125 126S219 4 139 4C58 4 15-44 15-125s44-126 125-126zm-1 214c52 0 73-35 73-88 0-50-21-86-72-86-52 0-73 35-73 86s22 88 72 88" id="aZ"/><g id="E"><use transform="matrix(0.04320987654320988,0,0,0.04320987654320988,0,0)" xlink:href="#aY"/><use transform="matrix(0.04320987654320988,0,0,0.04320987654320988,11.19135802469136,0)" xlink:href="#aZ"/></g><path fill="#1d262b" d="M30 0v-248h187v28H63v79h144v27H63v87h162V0H30" id="ba"/><g id="F"><use transform="matrix(0.05,0,0,0.05,0,0)" xlink:href="#ba"/><use transform="matrix(0.05,0,0,0.05,12,0)" xlink:href="#ag"/><use transform="matrix(0.05,0,0,0.05,15.949999999999998,0)" xlink:href="#V"/><use transform="matrix(0.05,0,0,0.05,25.950000000000003,0)" xlink:href="#N"/><use transform="matrix(0.05,0,0,0.05,34.95,0)" xlink:href="#O"/><use transform="matrix(0.05,0,0,0.05,39.95,0)" xlink:href="#ae"/><use transform="matrix(0.05,0,0,0.05,43.900000000000006,0)" xlink:href="#U"/></g><path fill="#1d262b" d="M101-234c-31-9-42 10-38 44h38v23H63V0H32v-167H5v-23h27c-7-52 17-82 69-68v24" id="bb"/><path fill="#1d262b" d="M210-169c-67 3-38 105-44 169h-31v-121c0-29-5-50-35-48C34-165 62-65 56 0H25l-1-190h30c1 10-1 24 2 32 10-44 99-50 107 0 11-21 27-35 58-36 85-2 47 119 55 194h-31v-121c0-29-5-49-35-48" id="bc"/><g id="G"><use transform="matrix(0.04999999999999996,0,0,0.04999999999999996,0,0)" xlink:href="#X"/><use transform="matrix(0.04999999999999996,0,0,0.04999999999999996,11.999999999999991,0)" xlink:href="#Q"/><use transform="matrix(0.04999999999999996,0,0,0.04999999999999996,21.999999999999986,0)" xlink:href="#T"/><use transform="matrix(0.04999999999999996,0,0,0.04999999999999996,27.949999999999985,0)" xlink:href="#bb"/><use transform="matrix(0.04999999999999996,0,0,0.04999999999999996,32.949999999999974,0)" xlink:href="#R"/><use transform="matrix(0.04999999999999996,0,0,0.04999999999999996,42.94999999999997,0)" xlink:href="#T"/><use transform="matrix(0.04999999999999996,0,0,0.04999999999999996,48.89999999999996,0)" xlink:href="#bc"/></g><path fill="#1d262b" d="M27 0v-27h64v-190l-56 39v-29l58-41h29v221h61V0H27" id="bd"/><path fill="#1d262b" d="M33-154v-36h34v36H33zM33 0v-36h34V0H33" id="be"/><g id="H"><use transform="matrix(0.04999999999999996,0,0,0.04999999999999996,0,0)" xlink:href="#bd"/><use transform="matrix(0.04999999999999996,0,0,0.04999999999999996,9.999999999999993,0)" xlink:href="#be"/><use transform="matrix(0.04999999999999996,0,0,0.04999999999999996,14.999999999999988,0)" xlink:href="#bd"/></g><path fill="#1d262b" d="M190 0L58-211 59 0H30v-248h39L202-35l-2-213h31V0h-41" id="bf"/><path fill="#1d262b" d="M127-220V0H93v-220H8v-28h204v28h-85" id="bg"/><g id="I"><use transform="matrix(0.04999999999999996,0,0,0.04999999999999996,0,0)" xlink:href="#bf"/><use transform="matrix(0.04999999999999996,0,0,0.04999999999999996,12.94999999999999,0)" xlink:href="#ah"/><use transform="matrix(0.04999999999999996,0,0,0.04999999999999996,23.59999999999998,0)" xlink:href="#bg"/></g><g id="J"><use transform="matrix(0.04999999999999996,0,0,0.04999999999999996,0,0)" xlink:href="#O"/><use transform="matrix(0.04999999999999996,0,0,0.04999999999999996,4.9999999999999964,0)" xlink:href="#R"/></g><path fill="#1d262b" d="M0 4l72-265h28L28 4H0" id="bh"/><g id="K"><use transform="matrix(0.04999999999999996,0,0,0.04999999999999996,0,0)" xlink:href="#X"/><use transform="matrix(0.04999999999999996,0,0,0.04999999999999996,11.999999999999991,0)" xlink:href="#S"/><use transform="matrix(0.04999999999999996,0,0,0.04999999999999996,21.999999999999986,0)" xlink:href="#af"/><use transform="matrix(0.04999999999999996,0,0,0.04999999999999996,31.999999999999982,0)" xlink:href="#ag"/><use transform="matrix(0.04999999999999996,0,0,0.04999999999999996,35.949999999999974,0)" xlink:href="#ae"/><use transform="matrix(0.04999999999999996,0,0,0.04999999999999996,39.89999999999997,0)" xlink:href="#U"/><use transform="matrix(0.04999999999999996,0,0,0.04999999999999996,48.89999999999996,0)" xlink:href="#bh"/><use transform="matrix(0.04999999999999996,0,0,0.04999999999999996,53.899999999999956,0)" xlink:href="#ba"/><use transform="matrix(0.04999999999999996,0,0,0.04999999999999996,65.89999999999995,0)" xlink:href="#ag"/><use transform="matrix(0.04999999999999996,0,0,0.04999999999999996,69.84999999999995,0)" xlink:href="#V"/><use transform="matrix(0.04999999999999996,0,0,0.04999999999999996,79.84999999999994,0)" xlink:href="#N"/><use transform="matrix(0.04999999999999996,0,0,0.04999999999999996,88.84999999999994,0)" xlink:href="#O"/><use transform="matrix(0.04999999999999996,0,0,0.04999999999999996,93.84999999999994,0)" xlink:href="#ae"/><use transform="matrix(0.04999999999999996,0,0,0.04999999999999996,97.79999999999994,0)" xlink:href="#U"/></g><path fill="#1d262b" d="M33 0v-38h34V0H33" id="bi"/><g id="L"><use transform="matrix(0.04999999999999996,0,0,0.04999999999999996,0,0)" xlink:href="#M"/><use transform="matrix(0.04999999999999996,0,0,0.04999999999999996,4.9999999999999964,0)" xlink:href="#X"/><use transform="matrix(0.04999999999999996,0,0,0.04999999999999996,14.699999999999989,0)" xlink:href="#bi"/></g></defs></g></svg>